<svg aria-hidden="true" style="position: absolute; width: 0; height: 0; overflow: hidden;" version="1.1" xmlns="http://www.w3.org/2000/svg" xmlns:xlink="http://www.w3.org/1999/xlink">
<defs>
<symbol id="icon-home" viewBox="0 0 32 32">
<path d="M32 18.451l-16-12.42-16 12.42v-5.064l16-12.42 16 12.42zM28 18v12h-8v-8h-8v8h-8v-12l12-9z"></path>
</symbol>
<symbol id="icon-images" viewBox="0 0 36 32">
<path d="M34 4h-2v-2c0-1.1-0.9-2-2-2h-28c-1.1 0-2 0.9-2 2v24c0 1.1 0.9 2 2 2h2v2c0 1.1 0.9 2 2 2h28c1.1 0 2-0.9 2-2v-24c0-1.1-0.9-2-2-2zM4 6v20h-1.996c-0.001-0.001-0.003-0.002-0.004-0.004v-23.993c0.001-0.001 0.002-0.003 0.004-0.004h27.993c0.001 0.001 0.003 0.002 0.004 0.004v1.996h-24c-1.1 0-2 0.9-2 2v0zM34 29.996c-0.001 0.001-0.002 0.003-0.004 0.004h-27.993c-0.001-0.001-0.003-0.002-0.004-0.004v-23.993c0.001-0.001 0.002-0.003 0.004-0.004h27.993c0.001 0.001 0.003 0.002 0.004 0.004v23.993z"></path>
<path d="M30 11c0 1.657-1.343 3-3 3s-3-1.343-3-3 1.343-3 3-3 3 1.343 3 3z"></path>
<path d="M32 28h-24v-4l7-12 8 10h2l7-6z"></path>
</symbol>
<symbol id="icon-phone" viewBox="0 0 32 32">
<path d="M22 20c-2 2-2 4-4 4s-4-2-6-4-4-4-4-6 2-2 4-4-4-8-6-8-6 6-6 6c0 4 4.109 12.109 8 16s12 8 16 8c0 0 6-4 6-6s-6-8-8-6z"></path>
</symbol>
<symbol id="icon-info" viewBox="0 0 32 32">
<path d="M14 9.5c0-0.825 0.675-1.5 1.5-1.5h1c0.825 0 1.5 0.675 1.5 1.5v1c0 0.825-0.675 1.5-1.5 1.5h-1c-0.825 0-1.5-0.675-1.5-1.5v-1z"></path>
<path d="M20 24h-8v-2h2v-6h-2v-2h6v8h2z"></path>
<path d="M16 0c-8.837 0-16 7.163-16 16s7.163 16 16 16 16-7.163 16-16-7.163-16-16-16zM16 29c-7.18 0-13-5.82-13-13s5.82-13 13-13 13 5.82 13 13-5.82 13-13 13z"></path>
</symbol>
<symbol id="icon-jewelry" viewBox="0 0 256 256">
<path d="M 33.504 27.545 c -0.214 0 -0.429 -0.068 -0.611 -0.208 c -0.437 -0.338 -0.518 -0.966 -0.18 -1.403 l 7.16 -9.266 l -4.956 -7.01 H 22.314 l -4.957 7.01 l 7.16 9.266 c 0.337 0.437 0.257 1.065 -0.18 1.403 c -0.437 0.337 -1.064 0.257 -1.403 -0.18 l -7.611 -9.851 c -0.269 -0.348 -0.279 -0.83 -0.025 -1.188 l 5.682 -8.036 c 0.188 -0.265 0.492 -0.423 0.816 -0.423 h 13.637 c 0.325 0 0.629 0.158 0.816 0.423 l 5.682 8.036 c 0.254 0.358 0.244 0.841 -0.025 1.188 l -7.611 9.851 C 34.099 27.412 33.803 27.545 33.504 27.545 z" style="stroke: none; stroke-width: 1; stroke-dasharray: none; stroke-linecap: butt; stroke-linejoin: miter; stroke-miterlimit: 10; fill: rgb(0,0,0); fill-rule: nonzero; opacity: 1;" transform=" matrix(1 0 0 1 0 0) " stroke-linecap="round" />
	<path d="M 41.116 17.694 H 16.115 c -0.552 0 -1 -0.448 -1 -1 s 0.448 -1 1 -1 h 25.001 c 0.552 0 1 0.448 1 1 S 41.668 17.694 41.116 17.694 z" style="stroke: none; stroke-width: 1; stroke-dasharray: none; stroke-linecap: butt; stroke-linejoin: miter; stroke-miterlimit: 10; fill: rgb(0,0,0); fill-rule: nonzero; opacity: 1;" transform=" matrix(1 0 0 1 0 0) " stroke-linecap="round" />
	<path d="M 28.615 17.694 c -0.293 0 -0.573 -0.129 -0.763 -0.353 l -6.818 -8.036 c -0.357 -0.421 -0.305 -1.052 0.116 -1.41 c 0.422 -0.356 1.053 -0.305 1.41 0.116 l 6.056 7.138 l 6.056 -7.138 c 0.357 -0.421 0.988 -0.473 1.41 -0.116 c 0.421 0.357 0.473 0.989 0.116 1.41 l -6.819 8.036 C 29.188 17.565 28.909 17.694 28.615 17.694 z" style="stroke: none; stroke-width: 1; stroke-dasharray: none; stroke-linecap: butt; stroke-linejoin: miter; stroke-miterlimit: 10; fill: rgb(0,0,0); fill-rule: nonzero; opacity: 1;" transform=" matrix(1 0 0 1 0 0) " stroke-linecap="round" />
	<path d="M 61.385 77.069 c -4.622 0 -9.091 -1.349 -12.922 -3.9 c -0.459 -0.306 -0.584 -0.927 -0.277 -1.387 c 0.306 -0.46 0.925 -0.584 1.387 -0.277 c 3.501 2.332 7.586 3.564 11.813 3.564 c 11.769 0 21.343 -9.574 21.343 -21.343 s -9.574 -21.343 -21.343 -21.343 c -4.227 0 -8.312 1.232 -11.813 3.564 c -1.531 1.02 -2.928 2.234 -4.15 3.61 c -3.47 3.906 -5.38 8.938 -5.38 14.168 c 0 5.398 2.021 10.551 5.689 14.508 c 0.375 0.405 0.351 1.037 -0.054 1.413 c -0.404 0.376 -1.037 0.353 -1.413 -0.054 c -4.012 -4.328 -6.222 -9.963 -6.222 -15.867 c 0 -5.721 2.09 -11.224 5.885 -15.496 c 1.336 -1.504 2.862 -2.832 4.536 -3.947 c 3.832 -2.551 8.3 -3.899 12.922 -3.899 c 12.871 0 23.343 10.472 23.343 23.343 S 74.256 77.069 61.385 77.069 z" style="stroke: none; stroke-width: 1; stroke-dasharray: none; stroke-linecap: butt; stroke-linejoin: miter; stroke-miterlimit: 10; fill: rgb(0,0,0); fill-rule: nonzero; opacity: 1;" transform=" matrix(1 0 0 1 0 0) " stroke-linecap="round" />
	<path d="M 61.385 82.342 c -6.186 0 -12.074 -1.941 -17.029 -5.615 c -0.443 -0.329 -0.537 -0.956 -0.208 -1.399 s 0.955 -0.536 1.399 -0.208 c 4.607 3.417 10.083 5.223 15.837 5.223 C 76.061 80.342 88 68.402 88 53.727 S 76.061 27.111 61.385 27.111 S 34.77 39.051 34.77 53.727 c 0 6.664 2.474 13.04 6.967 17.953 c 0.373 0.407 0.345 1.04 -0.063 1.413 c -0.408 0.371 -1.041 0.344 -1.413 -0.063 c -4.831 -5.282 -7.491 -12.138 -7.491 -19.303 c 0 -15.778 12.837 -28.615 28.615 -28.615 S 90 37.948 90 53.727 S 77.163 82.342 61.385 82.342 z" style="stroke: none; stroke-width: 1; stroke-dasharray: none; stroke-linecap: butt; stroke-linejoin: miter; stroke-miterlimit: 10; fill: rgb(0,0,0); fill-rule: nonzero; opacity: 1;" transform=" matrix(1 0 0 1 0 0) " stroke-linecap="round" />
	<path d="M 28.615 77.069 c -12.871 0 -23.343 -10.472 -23.343 -23.343 s 10.472 -23.343 23.343 -23.343 c 4.622 0 9.09 1.349 12.921 3.899 c 0.46 0.306 0.584 0.927 0.278 1.387 c -0.307 0.46 -0.927 0.583 -1.387 0.278 c -3.502 -2.332 -7.586 -3.564 -11.813 -3.564 c -11.769 0 -21.343 9.574 -21.343 21.343 s 9.574 21.343 21.343 21.343 s 21.343 -9.574 21.343 -21.343 c 0 -5.4 -2.021 -10.553 -5.691 -14.51 c -0.375 -0.405 -0.352 -1.038 0.053 -1.414 c 0.405 -0.375 1.037 -0.352 1.414 0.053 c 4.014 4.328 6.225 9.964 6.225 15.871 C 51.958 66.598 41.486 77.069 28.615 77.069 z" style="stroke: none; stroke-width: 1; stroke-dasharray: none; stroke-linecap: butt; stroke-linejoin: miter; stroke-miterlimit: 10; fill: rgb(0,0,0); fill-rule: nonzero; opacity: 1;" transform=" matrix(1 0 0 1 0 0) " stroke-linecap="round" />
	<path d="M 28.615 82.342 C 12.837 82.342 0 69.505 0 53.727 s 12.837 -28.615 28.615 -28.615 c 6.164 0 12.035 1.929 16.979 5.579 c 0.445 0.328 0.539 0.954 0.211 1.398 c -0.329 0.445 -0.953 0.539 -1.398 0.211 c -4.598 -3.395 -10.059 -5.188 -15.792 -5.188 C 13.939 27.111 2 39.051 2 53.727 s 11.939 26.615 26.615 26.615 S 55.23 68.402 55.23 53.727 c 0 -6.655 -2.469 -13.025 -6.951 -17.937 c -0.373 -0.408 -0.344 -1.041 0.064 -1.413 c 0.407 -0.371 1.039 -0.343 1.412 0.064 c 4.82 5.281 7.475 12.13 7.475 19.285 C 57.23 69.505 44.394 82.342 28.615 82.342 z" style="stroke: none; stroke-width: 1; stroke-dasharray: none; stroke-linecap: butt; stroke-linejoin: miter; stroke-miterlimit: 10; fill: rgb(0,0,0); fill-rule: nonzero; opacity: 1;" transform=" matrix(1 0 0 1 0 0) " stroke-linecap="round" />
</symbol>
<symbol id="icon-coaster" viewBox="0 0 512 512">
<path d="M70.532 405.438a7.5 7.5 0 0 0-12.656 8.05l6.387-3.932-6.372 3.955a7.5 7.5 0 0 0 12.744-7.91ZM88.4 427.365a7.5 7.5 0 0 0-10.276 10.926l5.216-5.389-5.194 5.41a7.5 7.5 0 1 0 10.388-10.82Zm-9.55-154.46a7.5 7.5 0 0 0-11.51-9.619l-.205.251a7.5 7.5 0 0 0 11.714 9.368ZM58.676 379.947l-.052-.159a7.5 7.5 0 0 0-14.254 4.671l7.159-2.237-7.147 2.274a7.5 7.5 0 0 0 14.294-4.549Zm42.281-137.03a7.499 7.499 0 0 0-10.477-1.655l-.151.112a7.5 7.5 0 1 0 10.628 1.543ZM46.394 360.079a7.5 7.5 0 0 0 7.046-7.928l-.012-.194a7.5 7.5 0 0 0-14.964 1.049l7.49-.414-7.488.44a7.5 7.5 0 0 0 7.48 7.06c.148 0 .298-.004.448-.013Zm229.342-36.403a7.5 7.5 0 0 0 14.758-2.684l-.031-.165a7.5 7.5 0 1 0-14.727 2.849Zm9.703 21.165a7.49 7.49 0 0 0-7.927 7.047l-.007.113a7.5 7.5 0 0 0 7.06 7.916c.146.008.29.012.435.012a7.501 7.501 0 0 0 7.481-7.073l.005-.087a7.5 7.5 0 0 0-7.047-7.928Zm-18.35-48.032a7.5 7.5 0 1 0 13.588-6.356l-.043-.09a7.5 7.5 0 1 0-13.587 6.355Zm-213.277 3.753a7.495 7.495 0 0 0 9.97-3.616l.081-.174a7.5 7.5 0 0 0-13.655-6.206l6.781 3.203-6.793-3.178a7.5 7.5 0 0 0 3.616 9.971Zm-7.428 29.298a7.492 7.492 0 0 0 8.775-5.958l.03-.165a7.5 7.5 0 0 0-14.756-2.688l7.359 1.445-7.367-1.408a7.5 7.5 0 0 0 5.959 8.774Zm235.373 44.98a7.55 7.55 0 1 0 4.826 9.564l.052-.159a7.486 7.486 0 0 0-4.878-9.405ZM111.29 444.295l-.256-.14a7.542 7.542 0 1 0 .256.14Zm-4.537 8.008.083-.154.757-1.329ZM212.449 225.61l-2.846 6.939 2.823-6.949a7.5 7.5 0 1 0-5.646 13.897l.188.075a7.5 7.5 0 0 0 5.481-13.962Zm7.452 218.541a7.5 7.5 0 1 0 7.152 13.186l.21-.116a7.5 7.5 0 1 0-7.362-13.07Zm22.67-16.818a7.5 7.5 0 1 0 10.267 10.936l.133-.127a7.5 7.5 0 1 0-10.4-10.809ZM512 312a25.028 25.028 0 0 0-25-25h-22.094a24.929 24.929 0 0 0 0-20H472a25 25 0 0 0 0-50H271.677a163.8 163.8 0 0 0-106.209-39.056C74.23 177.944 0 252.872 0 344.972a167.318 167.318 0 0 0 52.797 122.201A24.987 24.987 0 0 0 68 512h404a24.984 24.984 0 0 0 17.831-42.5 24.944 24.944 0 0 0 0-35 24.944 24.944 0 0 0 0-35 24.981 24.981 0 0 0-10.446-41.386 24.926 24.926 0 0 0 .521-21.114H487a25.028 25.028 0 0 0 25-25Zm-40-80a10 10 0 0 1 0 20H302.867a167.964 167.964 0 0 0-15.636-20Zm-20 45a10.011 10.011 0 0 1-10 10H320.652a166.978 166.978 0 0 0-8.89-20H442a10.011 10.011 0 0 1 10 10ZM68 497a9.997 9.997 0 0 1-3.113-19.497A165.385 165.385 0 0 0 96.964 497Zm6.697-30.863a7.503 7.503 0 0 0-4.904-3.912A152.402 152.402 0 0 1 15 344.972c0-83.828 67.5-152.028 150.468-152.028s150.468 68.2 150.468 152.028c0 83.829-67.5 152.028-150.468 152.028a148.692 148.692 0 0 1-90.77-30.863ZM472 497H233.972a165.422 165.422 0 0 0 32.726-20H472a10 10 0 0 1 0 20Zm0-35H283.407a167.96 167.96 0 0 0 16.67-20H472a10 10 0 0 1 0 20Zm0-35H309.562a167.122 167.122 0 0 0 9.536-20H472a10 10 0 0 1 0 20Zm10-45a10.011 10.011 0 0 1-10 10H324.248a166.956 166.956 0 0 0 4.51-20H457a24.856 24.856 0 0 0 9.873-2.036A7.466 7.466 0 0 0 472 372a10.011 10.011 0 0 1 10 10Zm-151.257-45H457a10 10 0 0 1 0 20H330.503c.282-3.974.433-7.983.433-12.028 0-2.673-.069-5.33-.193-7.972Zm-1.379-15a167.167 167.167 0 0 0-3.99-20H487a10 10 0 0 1 0 20Zm-56.284 91.456.102-.163a7.588 7.588 0 1 0-.102.163Zm-9.417-150.09a12.746 12.746 0 0 0-.098-.119 7.459 7.459 0 0 0-10.507-.98 7.525 7.525 0 1 0 10.605 1.1Zm-21.517-11.68a7.471 7.471 0 0 0-1.716-10.442l-4.496 6.003 4.482-6.013a7.5 7.5 0 1 0-8.964 12.026l.204.15a7.532 7.532 0 0 0 10.49-1.724Zm-92.659-34.138-.207.027a7.5 7.5 0 0 0 .967 14.936 7.612 7.612 0 0 0 .993-.065 7.5 7.5 0 0 0-1.753-14.898ZM137.54 454.853q-.164-.046-.33-.085a7.57 7.57 0 1 0 .33.085Zm-2.233 8.185.014-.059.245-.891Zm58.382-8.263a7.5 7.5 0 0 0 3.58 14.567q.165-.04.328-.085a7.5 7.5 0 0 0-3.908-14.482Zm-65.51-224.899a7.5 7.5 0 0 0-9.714-4.256l-.225.09a7.5 7.5 0 1 0 9.94 4.166Zm53.24-12.332-1.007 7.432.984-7.435a7.5 7.5 0 1 0-1.968 14.87l.207.027a7.632 7.632 0 0 0 .884.051 7.502 7.502 0 0 0 .9-14.945Zm-15.691 240.86h-.101a4.197 4.197 0 0 1-.159 0h-.1a7.5 7.5 0 0 0 0 15h.36a7.5 7.5 0 1 0 0-15Z"></path>
</symbol>

<symbol id="icon-box" viewBox="0 -0.5 25 25">
<path d="M13.05 12.082C13.05 11.6678 12.7142 11.332 12.3 11.332C11.8858 11.332 11.55 11.6678 11.55 12.082H13.05ZM12.3 19H11.55C11.55 19.249 11.6736 19.4818 11.8799 19.6213C12.0862 19.7608 12.3483 19.7888 12.5794 19.696L12.3 19ZM18.044 16.694L18.3234 17.39C18.6077 17.2759 18.794 17.0003 18.794 16.694H18.044ZM18.794 11.9C18.794 11.4858 18.4582 11.15 18.044 11.15C17.6298 11.15 17.294 11.4858 17.294 11.9H18.794ZM12.7554 11.4861C12.4263 11.2346 11.9556 11.2975 11.7041 11.6266C11.4526 11.9557 11.5155 12.4264 11.8446 12.6779L12.7554 11.4861ZM14.348 13.647L13.8926 14.2429C14.1156 14.4133 14.415 14.445 14.6687 14.325L14.348 13.647ZM18.3617 12.578C18.7361 12.4008 18.8961 11.9537 18.719 11.5793C18.5418 11.2049 18.0947 11.0449 17.7203 11.222L18.3617 12.578ZM12.0206 11.386C11.6362 11.5403 11.4497 11.977 11.604 12.3614C11.7583 12.7458 12.195 12.9323 12.5794 12.778L12.0206 11.386ZM18.3234 10.472C18.7078 10.3177 18.8943 9.88097 18.74 9.49658C18.5857 9.11219 18.149 8.92567 17.7646 9.07999L18.3234 10.472ZM17.7647 10.472C18.1491 10.6263 18.5858 10.4397 18.74 10.0553C18.8943 9.6709 18.7077 9.23421 18.3233 9.07995L17.7647 10.472ZM12.5793 6.77495C12.1949 6.62069 11.7582 6.80727 11.604 7.19168C11.4497 7.5761 11.6363 8.01279 12.0207 8.16705L12.5793 6.77495ZM18.4115 9.12322C18.0505 8.92024 17.5932 9.0484 17.3902 9.40947C17.1872 9.77054 17.3154 10.2278 17.6765 10.4308L18.4115 9.12322ZM20.095 10.93L20.4153 11.6082C20.669 11.4884 20.8346 11.237 20.8445 10.9566C20.8545 10.6762 20.7071 10.4137 20.4625 10.2762L20.095 10.93ZM17.7207 11.2218C17.3462 11.3987 17.1859 11.8457 17.3628 12.2203C17.5397 12.5948 17.9867 12.7551 18.3613 12.5782L17.7207 11.2218ZM17.4849 9.27273C17.207 9.57984 17.2306 10.0541 17.5377 10.3321C17.8448 10.61 18.3191 10.5864 18.5971 10.2793L17.4849 9.27273ZM20.5 7.059L21.0561 7.56227C21.2259 7.37459 21.2897 7.11388 21.2255 6.86901C21.1614 6.62413 20.9781 6.42812 20.738 6.34778L20.5 7.059ZM14.348 5L14.586 4.28878C14.2926 4.19056 13.9689 4.28268 13.7711 4.52071L14.348 5ZM11.7181 6.99171C11.4534 7.31031 11.4971 7.78317 11.8157 8.04787C12.1343 8.31258 12.6072 8.26889 12.8719 7.95029L11.7181 6.99171ZM6.27168 9.07995C5.88727 9.23421 5.70069 9.6709 5.85495 10.0553C6.00921 10.4397 6.4459 10.6263 6.83032 10.472L6.27168 9.07995ZM12.5743 8.16705C12.9587 8.01279 13.1453 7.5761 12.991 7.19168C12.8368 6.80727 12.4001 6.62069 12.0157 6.77495L12.5743 8.16705ZM6.91853 10.4298C7.2796 10.2268 7.40776 9.76954 7.20478 9.40847C7.00179 9.0474 6.54454 8.91924 6.18347 9.12222L6.91853 10.4298ZM4.5 10.929L4.13247 10.2752C3.88802 10.4126 3.74065 10.675 3.75046 10.9552C3.76027 11.2355 3.92561 11.4869 4.17908 11.6069L4.5 10.929ZM6.23008 12.5779C6.60445 12.7551 7.05163 12.5953 7.22887 12.2209C7.40611 11.8465 7.2463 11.3994 6.87192 11.2221L6.23008 12.5779ZM6.83042 9.07999C6.44603 8.92567 6.00931 9.11219 5.85499 9.49658C5.70067 9.88097 5.88719 10.3177 6.27158 10.472L6.83042 9.07999ZM12.0156 12.778C12.4 12.9323 12.8367 12.7458 12.991 12.3614C13.1453 11.977 12.9588 11.5403 12.5744 11.386L12.0156 12.778ZM5.9907 10.2746C6.26604 10.584 6.74011 10.6116 7.04956 10.3363C7.35901 10.061 7.38665 9.58689 7.1113 9.27744L5.9907 10.2746ZM4.5 7.471L4.20362 6.78205C3.98226 6.87727 3.82014 7.07305 3.76786 7.30828C3.71558 7.54351 3.77951 7.78954 3.9397 7.96956L4.5 7.471ZM10.244 5L10.8211 4.52099C10.6087 4.26508 10.2531 4.17962 9.94762 4.31105L10.244 5ZM11.7179 7.95001C11.9824 8.26874 12.4553 8.31265 12.774 8.0481C13.0927 7.78355 13.1367 7.31071 12.8721 6.99199L11.7179 7.95001ZM13.045 12.083C13.045 11.6688 12.7092 11.333 12.295 11.333C11.8808 11.333 11.545 11.6688 11.545 12.083H13.045ZM12.295 19L12.0156 19.696C12.2467 19.7888 12.5088 19.7608 12.7151 19.6213C12.9214 19.4818 13.045 19.249 13.045 19H12.295ZM6.551 16.694H5.801C5.801 17.0003 5.9873 17.2759 6.27158 17.39L6.551 16.694ZM7.301 11.9C7.301 11.4858 6.96521 11.15 6.551 11.15C6.13679 11.15 5.801 11.4858 5.801 11.9H7.301ZM12.75 12.6782C13.0793 12.427 13.1425 11.9563 12.8912 11.627C12.64 11.2977 12.1693 11.2345 11.84 11.4858L12.75 12.6782ZM10.244 13.647L9.92328 14.325C10.1768 14.4449 10.476 14.4134 10.699 14.2432L10.244 13.647ZM6.87172 11.222C6.49729 11.0449 6.05016 11.2049 5.87303 11.5793C5.6959 11.9537 5.85585 12.4008 6.23028 12.578L6.87172 11.222ZM11.55 12.082V19H13.05V12.082H11.55ZM12.5794 19.696L18.3234 17.39L17.7646 15.998L12.0206 18.304L12.5794 19.696ZM18.794 16.694V11.9H17.294V16.694H18.794ZM11.8446 12.6779L13.8926 14.2429L14.8034 13.0511L12.7554 11.4861L11.8446 12.6779ZM14.6687 14.325L18.3617 12.578L17.7203 11.222L14.0273 12.969L14.6687 14.325ZM12.5794 12.778L18.3234 10.472L17.7646 9.07999L12.0206 11.386L12.5794 12.778ZM18.3233 9.07995L12.5793 6.77495L12.0207 8.16705L17.7647 10.472L18.3233 9.07995ZM17.6765 10.4308L19.7275 11.5838L20.4625 10.2762L18.4115 9.12322L17.6765 10.4308ZM19.7747 10.2518L17.7207 11.2218L18.3613 12.5782L20.4153 11.6082L19.7747 10.2518ZM18.5971 10.2793L21.0561 7.56227L19.9439 6.55573L17.4849 9.27273L18.5971 10.2793ZM20.738 6.34778L14.586 4.28878L14.11 5.71122L20.262 7.77022L20.738 6.34778ZM13.7711 4.52071L11.7181 6.99171L12.8719 7.95029L14.9249 5.47929L13.7711 4.52071ZM6.83032 10.472L12.5743 8.16705L12.0157 6.77495L6.27168 9.07995L6.83032 10.472ZM6.18347 9.12222L4.13247 10.2752L4.86753 11.5828L6.91853 10.4298L6.18347 9.12222ZM4.17908 11.6069L6.23008 12.5779L6.87192 11.2221L4.82092 10.2511L4.17908 11.6069ZM6.27158 10.472L12.0156 12.778L12.5744 11.386L6.83042 9.07999L6.27158 10.472ZM7.1113 9.27744L5.0603 6.97244L3.9397 7.96956L5.9907 10.2746L7.1113 9.27744ZM4.79638 8.15995L10.5404 5.68895L9.94762 4.31105L4.20362 6.78205L4.79638 8.15995ZM9.6669 5.47901L11.7179 7.95001L12.8721 6.99199L10.8211 4.52099L9.6669 5.47901ZM11.545 12.083V19H13.045V12.083H11.545ZM12.5744 18.304L6.83042 15.998L6.27158 17.39L12.0156 19.696L12.5744 18.304ZM7.301 16.694V11.9H5.801V16.694H7.301ZM11.84 11.4858L9.78904 13.0508L10.699 14.2432L12.75 12.6782L11.84 11.4858ZM10.5647 12.969L6.87172 11.222L6.23028 12.578L9.92328 14.325L10.5647 12.969Z" fill="#000000"/>
</symbol>
<symbol id="icon-price" viewBox="0 0 59.998 59.998">
<path d="M59.206,0.293c-0.391-0.391-1.023-0.391-1.414,0L54.085,4H30.802L1.532,33.511c-0.666,0.666-1.033,1.553-1.033,2.495   s0.367,1.829,1.033,2.495l20.466,20.466c0.687,0.687,1.588,1.031,2.491,1.031c0.907,0,1.814-0.347,2.509-1.041l28.501-29.271V5.414   l3.707-3.707C59.597,1.316,59.597,0.684,59.206,0.293z M53.499,28.874L25.574,57.553c-0.596,0.596-1.566,0.596-2.162,0   L2.946,37.087c-0.596-0.596-0.596-1.566,0.003-2.165L31.636,6h20.449l-4.833,4.833C46.461,10.309,45.516,10,44.499,10   c-2.757,0-5,2.243-5,5s2.243,5,5,5s5-2.243,5-5c0-1.017-0.309-1.962-0.833-2.753l4.833-4.833V28.874z M47.499,15   c0,1.654-1.346,3-3,3s-3-1.346-3-3s1.346-3,3-3c0.462,0,0.894,0.114,1.285,0.301l-1.992,1.992c-0.391,0.391-0.391,1.023,0,1.414   C43.987,15.902,44.243,16,44.499,16s0.512-0.098,0.707-0.293l1.992-1.992C47.386,14.106,47.499,14.538,47.499,15z"/>

<path d="M42.246,31.281L31.64,41.888c-0.391,0.391-0.391,1.023,0,1.414c0.195,0.195,0.451,0.293,0.707,0.293   s0.512-0.098,0.707-0.293L43.66,32.695c0.391-0.391,0.391-1.023,0-1.414S42.637,30.891,42.246,31.281z"/>

<path d="M45.779,27.74c-0.181,0.189-0.29,0.449-0.29,0.71c0,0.27,0.109,0.529,0.29,0.71c0.189,0.189,0.449,0.29,0.71,0.29   c0.26,0,0.52-0.101,0.699-0.29c0.19-0.181,0.301-0.44,0.301-0.71c0-0.261-0.11-0.521-0.301-0.71   C46.818,27.37,46.159,27.37,45.779,27.74z"/>

<path d="M37.296,19.26c0.391-0.391,0.391-1.023,0-1.414c-0.391-0.391-1.023-0.391-1.414,0L25.275,28.453   c-0.391,0.391-0.391,1.023,0,1.414c0.195,0.195,0.451,0.293,0.707,0.293s0.512-0.098,0.707-0.293L37.296,19.26z"/>

<path d="M33.761,31.281c0.195,0.195,0.451,0.293,0.707,0.293s0.512-0.098,0.707-0.293l7.071-7.071c0.391-0.391,0.391-1.023,0-1.414   s-1.023-0.391-1.414,0l-7.071,7.071C33.37,30.258,33.37,30.891,33.761,31.281z"/>

<path d="M28.104,35.523l-1.414,1.414c-0.391,0.391-0.391,1.023,0,1.414c0.195,0.195,0.451,0.293,0.707,0.293   s0.512-0.098,0.707-0.293l1.414-1.414c0.391-0.391,0.391-1.023,0-1.414S28.494,35.133,28.104,35.523z"/>

<path d="M17.497,28.745c0.256,0,0.512-0.098,0.707-0.293l10.606-10.606c0.391-0.391,0.391-1.023,0-1.414s-1.023-0.391-1.414,0   L16.79,27.038c-0.391,0.391-0.391,1.023,0,1.414C16.985,28.647,17.241,28.745,17.497,28.745z"/>

<path d="M31.639,14.6c0.26,0,0.521-0.1,0.71-0.29c0.181-0.189,0.29-0.439,0.29-0.71c0-0.26-0.109-0.52-0.3-0.71   c-0.37-0.37-1.03-0.37-1.41,0.01c-0.18,0.181-0.29,0.44-0.29,0.7s0.11,0.521,0.29,0.71C31.119,14.5,31.379,14.6,31.639,14.6z"/>

<path d="M22.449,31.28c-0.19,0.189-0.29,0.439-0.29,0.71c0,0.27,0.1,0.52,0.29,0.699c0.18,0.19,0.439,0.301,0.71,0.301   c0.26,0,0.52-0.11,0.699-0.29c0.19-0.19,0.301-0.45,0.301-0.71c0-0.261-0.11-0.521-0.301-0.71   C23.489,30.91,22.818,30.91,22.449,31.28z"/>

<path d="M32.349,34.109c0.181-0.18,0.29-0.439,0.29-0.71c0-0.26-0.109-0.52-0.29-0.71c-0.38-0.37-1.04-0.37-1.42,0   c-0.18,0.19-0.29,0.45-0.29,0.71c0,0.271,0.11,0.521,0.29,0.71c0.19,0.19,0.45,0.29,0.71,0.29S32.159,34.3,32.349,34.109z"/>

<path d="M24.651,47.627c0.615-0.929,0.909-2.041,0.814-3.172c-0.078-0.944-0.533-1.797-1.28-2.403   c-0.765-0.619-1.769-0.903-2.738-0.781l-2.802,0.35l-3.846-3.846c1.114-0.529,2.485-0.344,3.406,0.577   c0.391,0.391,1.023,0.391,1.414,0s0.391-1.023,0-1.414c-1.707-1.707-4.352-1.918-6.293-0.635l-0.779-0.779   c-0.391-0.391-1.023-0.391-1.414,0s-0.391,1.023,0,1.414l0.781,0.781c-0.614,0.928-0.908,2.041-0.813,3.172   c0.078,0.943,0.533,1.797,1.279,2.402c0.765,0.619,1.763,0.904,2.739,0.783l2.802-0.35l3.836,3.836   c-1.111,0.501-2.51,0.318-3.396-0.568c-0.391-0.391-1.023-0.391-1.414,0c-0.391,0.39-0.391,1.023,0,1.414   c0.943,0.944,2.199,1.465,3.535,1.465c0.996,0,1.946-0.291,2.757-0.829l0.622,0.622c0.195,0.195,0.451,0.293,0.707,0.293   s0.512-0.098,0.707-0.293c0.391-0.391,0.391-1.023,0-1.414L24.651,47.627z M14.871,42.092c-0.438,0.054-0.889-0.072-1.231-0.352   c-0.319-0.26-0.514-0.62-0.547-1.016c-0.044-0.536,0.07-1.059,0.295-1.532l2.742,2.742L14.871,42.092z M21.695,43.255   c0.433-0.059,0.886,0.072,1.229,0.351c0.32,0.26,0.515,0.62,0.548,1.016c0.044,0.536-0.07,1.059-0.296,1.532l-2.741-2.741   L21.695,43.255z"/>
</symbol>
<symbol id="icon-pallete" viewBox="0 0 383.991 383.991">
		
				<path d="M156.498,306.469c-9.166,0-16.857-3.767-21.104-10.334c-4.059-6.28-4.488-14.487-1.174-22.517
					c2.973-7.2,8.686-13.8,16.088-18.584c7.033-4.547,15.023-7.052,22.496-7.052c9.166,0,16.857,3.767,21.104,10.334
					c8.041,12.444,1.49,30.497-14.914,41.101C171.959,303.965,163.971,306.469,156.498,306.469z M172.805,262.983
					c-4.619,0-9.717,1.651-14.354,4.649c-4.795,3.098-8.572,7.366-10.365,11.71c-0.826,2.005-1.939,5.794-0.094,8.649
					c1.428,2.21,4.529,3.478,8.506,3.478c4.617,0,9.715-1.651,14.354-4.649c9.816-6.345,13.391-15.823,10.457-20.361
					C179.883,264.251,176.781,262.983,172.805,262.983z"/>
			
				<path d="M52.485,142.775c-2.66,0-5.283-0.467-7.795-1.389c-11.719-4.298-17.758-17.33-13.459-29.051
					c3.258-8.881,11.799-14.848,21.256-14.848c2.66,0,5.281,0.467,7.795,1.389c11.719,4.298,17.758,17.329,13.461,29.049
					C70.485,136.807,61.942,142.775,52.485,142.775z M52.486,112.488c-3.191,0-6.074,2.014-7.174,5.012
					c-1.449,3.956,0.588,8.354,4.543,9.805c0.852,0.313,1.736,0.471,2.629,0.471c3.191,0,6.074-2.015,7.174-5.014
					c1.451-3.954-0.588-8.352-4.543-9.803C54.264,112.646,53.379,112.488,52.486,112.488z"/>
		
				<path d="M102.016,118.814c-2.66,0-5.281-0.467-7.793-1.389c-5.678-2.082-10.205-6.25-12.746-11.736
					c-2.543-5.487-2.797-11.636-0.715-17.313c3.258-8.881,11.801-14.848,21.258-14.848c2.658,0,5.281,0.467,7.793,1.389
					c11.721,4.299,17.758,17.33,13.459,29.049C120.016,112.847,111.473,118.814,102.016,118.814z M102.02,88.529
					c-3.191,0-6.076,2.015-7.176,5.013c-0.701,1.915-0.617,3.989,0.242,5.841c0.858,1.852,2.385,3.258,4.301,3.961
					c0.854,0.313,1.736,0.471,2.629,0.471c3.191,0,6.074-2.014,7.174-5.012c1.449-3.955-0.588-8.352-4.541-9.803
					C103.795,88.687,102.91,88.529,102.02,88.529z"/>
		
				<path d="M157.576,122.012c-2.66,0-5.281-0.467-7.795-1.389c-5.676-2.082-10.203-6.25-12.746-11.737
					c-2.541-5.486-2.795-11.635-0.711-17.313c3.256-8.88,11.797-14.847,21.254-14.847c2.66,0,5.281,0.467,7.793,1.389
					c5.678,2.082,10.205,6.25,12.748,11.737c2.541,5.486,2.795,11.635,0.713,17.312
					C175.574,116.046,167.033,122.012,157.576,122.012z M157.578,91.727c-3.191,0-6.072,2.014-7.172,5.012
					c-0.703,1.916-0.617,3.991,0.24,5.842c0.857,1.851,2.385,3.258,4.301,3.961c0.852,0.313,1.736,0.471,2.629,0.471
					c3.191,0,6.072-2.014,7.172-5.012c0.703-1.916,0.617-3.99-0.24-5.842c-0.857-1.852-2.385-3.258-4.301-3.961
					C159.354,91.885,158.469,91.727,157.578,91.727z"/>
			
				<path d="M207.104,144.682c-2.658,0-5.279-0.467-7.789-1.387c-11.721-4.302-17.758-17.334-13.461-29.052
					c3.258-8.881,11.799-14.848,21.256-14.848c2.658,0,5.281,0.467,7.793,1.389c11.721,4.298,17.758,17.329,13.461,29.049
					C225.106,138.715,216.563,144.682,207.104,144.682z M207.11,114.396c-3.191,0-6.074,2.014-7.174,5.012
					c-1.449,3.955,0.588,8.354,4.543,9.805c0.85,0.312,1.734,0.47,2.625,0.47c3.193,0,6.076-2.015,7.178-5.014
					c1.449-3.954-0.588-8.351-4.543-9.802C208.885,114.554,208,114.396,207.11,114.396z"/>
		
				<path d="M245.264,185.451c-2.66,0-5.283-0.467-7.795-1.388c-5.678-2.083-10.205-6.251-12.746-11.737
					c-2.543-5.487-2.797-11.636-0.713-17.314c3.256-8.881,11.799-14.848,21.256-14.848c2.658,0,5.279,0.466,7.791,1.387
					c11.723,4.302,17.76,17.334,13.463,29.052C263.262,179.484,254.719,185.451,245.264,185.451z M245.266,155.165
					c-3.191,0-6.074,2.015-7.174,5.013c-0.703,1.916-0.617,3.99,0.24,5.842c0.857,1.852,2.385,3.258,4.301,3.961
					c0.854,0.313,1.738,0.471,2.631,0.471c3.189,0,6.072-2.015,7.174-5.013c1.449-3.954-0.59-8.353-4.545-9.804
					C247.043,155.323,246.158,155.165,245.266,155.165z"/>
	
		<path d="M379.555,40.674c-0.002-0.006-0.004-0.012-0.006-0.018v0.001c-0.172-0.74-0.459-1.467-0.869-2.154
			c-2.129-3.554-6.734-4.711-10.289-2.581c-3.414,2.045-81.428,49.56-65.078,106.212c-2.303,2.612-5.746,6.697-9.877,12.139
			c-12.055-35.523-39.877-65.37-79.85-85.126c-30.752-15.198-62.957-23.37-93.135-23.632c-27.957-0.281-53.754,6.138-74.625,18.453
			C18.08,80.34,1.418,106.115,0.113,134.685c-2.799,61.28,46.803,77.763,79.627,88.669c6.412,2.131,12.469,4.144,17.309,6.206
			c6.107,2.602,9.676,5.912,10.605,9.84c1.596,6.741-3.951,15.318-6.408,18.298c-15.777,15.847-15.512,39.639,0.699,57.988
			c12.84,14.536,33.117,22.8,55.82,22.8c0.508,0,1.021-0.005,1.533-0.013c24.582-0.401,51.061-10.297,77.137-28.72
			c-0.414,10.48-0.199,21.348,0.822,32.563c0.25,2.747,1.986,5.135,4.523,6.218c0.947,0.404,1.949,0.602,2.943,0.602
			c1.672,0,3.326-0.558,4.678-1.636c49.172-39.201,73.516-88.893,85.279-123.675c9.99-29.543,12.842-53.26,13.629-62.703
			C400.242,133.595,380.447,44.554,379.555,40.674z M238.016,289.782c-0.486,0.396-0.975,0.789-1.461,1.173
			c-26.471,20.88-53.27,32.125-77.5,32.52c-18.938,0.299-35.648-6.148-45.869-17.72c-11.109-12.577-11.557-27.353-1.139-37.645
			c0.145-0.142,0.285-0.292,0.416-0.445c1.385-1.609,13.412-16.164,9.809-31.636c-2.064-8.861-8.572-15.682-19.344-20.27
			c-5.406-2.304-11.746-4.41-18.457-6.641c-31.924-10.607-71.654-23.81-69.373-73.751c1.086-23.761,14.705-44.53,38.35-58.481
			c40.514-23.904,97.894-21.771,153.492,5.707c40.404,19.97,67.064,50.93,75.404,87.419c-4.742,7.246-9.787,15.664-14.748,25.17
			C255.635,218.109,242.66,250.663,238.016,289.782z M320.305,219.513c-10.19,29.947-30.281,71.623-68.984,106.68
			c-1.451-52.199,14.754-95.536,29.334-123.608c3.457-6.657,6.977-12.764,10.398-18.288l35.27,15.058
			C324.699,205.646,322.721,212.412,320.305,219.513z M329.723,184.497l-30.293-12.933c6.014-8.605,11.176-14.914,14.355-18.597
			l19.439,8.301C332.766,166.113,331.778,174.203,329.723,184.497z M340.727,148.162l-22.881-9.77
			c-10.521-35.644,30.074-69.751,49.02-83.378C370.201,78.124,373.813,131.079,340.727,148.162z"/>

</symbol>
<symbol id="icon-gear" viewBox="0 0 512 512">
<style type="text/css">
	.st0{fill:#000000;}
</style>
<g>
	<path class="st0" d="M336.896,269.874c-18.795,0-36.449,7.308-49.698,20.575c-13.276,13.267-20.593,30.912-20.593,49.698
		c0,18.768,7.307,36.422,20.593,49.707c13.276,13.267,30.921,20.574,49.698,20.574c18.769,0,36.422-7.307,49.698-20.574
		c13.276-13.286,20.584-30.939,20.584-49.707c0-18.778-7.307-36.43-20.574-49.689C373.336,277.182,355.682,269.874,336.896,269.874z
		 M378.1,381.35c-11.011,11.003-25.636,17.061-41.204,17.061c-15.559,0-30.202-6.058-41.204-17.061
		c-11.011-11.002-17.07-25.635-17.07-41.203c0-15.568,6.058-30.202,17.07-41.195c11.002-11.011,25.645-17.069,41.204-17.069
		c15.568,0,30.193,6.058,41.204,17.069c11.002,10.993,17.06,25.627,17.06,41.195C395.161,355.715,389.102,370.348,378.1,381.35z"/>
	<path class="st0" d="M499.041,317.118l-37.455-5.428c-2.346-0.18-4.368-1.654-5.277-3.838l-12.134-29.294
		c-0.908-2.175-0.531-4.656,1.006-6.436l22.4-30.103c3.569-4.18,3.335-10.392-0.556-14.274l-17.726-17.726
		c-2.04-2.05-4.736-3.083-7.433-3.083c-2.427,0-4.863,0.836-6.832,2.526l-30.112,22.409c-1.141,0.98-2.588,1.492-4.044,1.492
		c-0.809,0-1.618-0.162-2.382-0.476l-29.312-12.153c-2.166-0.89-3.65-2.94-3.838-5.268l-5.438-37.455
		c-0.422-5.484-4.989-9.708-10.472-9.708h-25.078c-5.492,0-10.059,4.224-10.481,9.708l-5.447,37.455
		c-0.179,2.328-1.654,4.378-3.829,5.276l-29.312,12.144c-0.773,0.314-1.582,0.476-2.39,0.476c-1.456,0-2.895-0.512-4.045-1.492
		l-30.094-22.4c-1.969-1.69-4.404-2.535-6.822-2.535c-2.706,0-5.402,1.043-7.452,3.092l-17.726,17.717
		c-3.883,3.892-4.116,10.094-0.557,14.274l22.4,30.103c1.519,1.779,1.914,4.26,1.016,6.436l-12.144,29.303
		c-0.881,2.175-2.931,3.65-5.258,3.829l-37.474,5.438c-5.464,0.432-9.689,4.998-9.689,10.49v25.06
		c0,5.502,4.225,10.068,9.689,10.498l37.474,5.43c2.328,0.189,4.378,1.672,5.258,3.838l12.144,29.311
		c0.907,2.158,0.503,4.656-1.016,6.436l-22.4,30.103c-3.559,4.161-3.326,10.382,0.557,14.265l17.726,17.726
		c2.05,2.049,4.746,3.082,7.443,3.082c2.427,0,4.863-0.836,6.832-2.526l30.094-22.409c1.15-0.98,2.589-1.483,4.045-1.483
		c0.809,0,1.617,0.152,2.39,0.476L304.6,459.57c2.175,0.899,3.659,2.93,3.838,5.276l5.438,37.456
		c0.422,5.464,4.989,9.698,10.481,9.698h25.078c5.492,0,10.049-4.234,10.481-9.698l5.429-37.456
		c0.189-2.345,1.672-4.376,3.838-5.276l29.312-12.144c0.773-0.324,1.581-0.476,2.39-0.476c1.456,0,2.904,0.503,4.045,1.483
		l30.103,22.409c1.969,1.69,4.404,2.526,6.832,2.526c2.697,0,5.393-1.034,7.433-3.082l17.726-17.726
		c3.9-3.883,4.125-10.104,0.556-14.265l-22.4-30.103c-1.509-1.78-1.914-4.279-1.006-6.436l12.134-29.311
		c0.909-2.167,2.931-3.65,5.277-3.838l37.455-5.43c5.474-0.431,9.699-4.997,9.699-10.48v-25.078
		C508.74,322.125,504.515,317.559,499.041,317.118z M496.722,351.364l-36.574,5.304c-6.643,0.71-12.324,4.944-14.939,11.182
		l-12.126,29.266c-2.598,6.22-1.582,13.25,2.633,18.481l21.879,29.402l-15.856,15.855l-29.392-21.878
		c-3.236-2.616-7.29-4.054-11.461-4.054c-2.436,0-4.808,0.485-6.984,1.402l-29.339,12.152c-6.211,2.589-10.444,8.278-11.155,14.93
		l-5.302,36.574h-22.418l-5.312-36.565c-0.701-6.652-4.926-12.35-11.173-14.957l-29.276-12.117c-2.238-0.944-4.602-1.42-7.028-1.42
		c-4.153,0-8.198,1.438-11.443,4.044l-29.411,21.887l-15.847-15.855l21.87-29.402c4.224-5.232,5.24-12.27,2.652-18.446
		l-12.117-29.248c-2.553-6.256-8.252-10.517-14.94-11.236l-36.592-5.304v-22.436l36.575-5.303
		c6.714-0.701,12.422-4.98,14.929-11.164l12.126-29.267c2.606-6.22,1.591-13.258-2.633-18.48l-21.879-29.411l15.865-15.856
		l29.383,21.878c3.245,2.624,7.29,4.054,11.461,4.054c2.409,0,4.763-0.468,6.992-1.393l29.303-12.144
		c6.23-2.571,10.481-8.278,11.173-14.948l5.321-36.566h22.418l5.302,36.584c0.72,6.669,4.972,12.369,11.173,14.921l29.312,12.153
		c2.22,0.916,4.575,1.393,6.984,1.393c4.18,0,8.234-1.438,11.47-4.054l29.392-21.878l15.856,15.856l-21.86,29.375
		c-4.243,5.214-5.268,12.26-2.661,18.471l12.135,29.312c2.588,6.22,8.288,10.462,14.948,11.164l36.565,5.303V351.364z"/>
	<path class="st0" d="M170.661,260.418l18.463-6.742c4.054-1.474,6.274-5.816,5.123-9.96l-6.066-29.05
		c-0.486-1.798,0.062-3.686,1.411-4.926l18.328-16.826c0.907-0.836,2.094-1.276,3.29-1.276c0.584,0,1.169,0.099,1.716,0.296
		l28.198,8.423c0.962,0.359,1.95,0.53,2.921,0.521c3.11-0.009,6.068-1.798,7.452-4.764l8.278-17.824
		c1.843-3.91,0.332-8.557-3.416-10.67l-24.584-16.144c-1.6-0.907-2.562-2.624-2.472-4.476l1.061-24.853
		c0.081-1.843,1.187-3.461,2.841-4.233l26.138-14.076c3.928-1.78,5.807-6.292,4.332-10.328l-6.732-18.471
		c-1.214-3.336-4.378-5.43-7.776-5.42c-0.728,0.009-1.465,0.098-2.193,0.306l-29.052,6.049c-0.432,0.126-0.872,0.189-1.303,0.189
		c-1.348,0.009-2.661-0.566-3.614-1.59l-16.808-18.32c-1.259-1.356-1.646-3.29-0.99-5.006l8.414-28.207
		c1.501-4.035-0.332-8.53-4.252-10.355l-17.824-8.296c-1.133-0.522-2.329-0.773-3.506-0.773c-2.885,0.017-5.654,1.546-7.154,4.206
		l-16.153,24.593c-0.872,1.528-2.49,2.471-4.243,2.48h-0.215l-24.863-1.078c-1.834-0.09-3.488-1.195-4.242-2.858L107.103,4.836
		c-1.375-3.038-4.387-4.853-7.542-4.836c-0.926,0-1.869,0.162-2.786,0.494l-18.463,6.75c-4.054,1.475-6.283,5.807-5.114,9.951
		l6.058,29.06c0.494,1.771-0.054,3.667-1.411,4.908L59.517,67.99c-0.925,0.845-2.094,1.286-3.299,1.295
		c-0.575,0-1.159-0.108-1.726-0.324l-28.188-8.395c-0.961-0.369-1.95-0.539-2.921-0.539c-3.101,0.017-6.05,1.798-7.442,4.764
		L7.662,82.624c-1.834,3.901-0.333,8.539,3.416,10.669l24.584,16.153c1.609,0.899,2.562,2.616,2.471,4.441l-1.06,24.871
		c-0.072,1.834-1.196,3.461-2.85,4.234L8.085,157.068c-3.919,1.779-5.798,6.283-4.324,10.319l6.733,18.471
		c1.222,3.335,4.386,5.447,7.784,5.438c0.719-0.009,1.447-0.117,2.175-0.323l29.069-6.058c0.423-0.117,0.854-0.18,1.277-0.18
		c1.357,0,2.678,0.558,3.622,1.582l16.818,18.337c1.258,1.348,1.626,3.29,0.989,5.016l-8.414,28.188
		c-1.5,4.036,0.342,8.539,4.252,10.374l17.815,8.286c1.141,0.522,2.337,0.773,3.514,0.773c2.886-0.018,5.654-1.537,7.146-4.197
		l16.153-24.584c0.862-1.528,2.463-2.482,4.197-2.482h0.27l24.854,1.07c1.842,0.072,3.487,1.177,4.252,2.849l14.067,26.139
		c1.384,3.02,4.386,4.836,7.55,4.827C168.801,260.903,169.744,260.75,170.661,260.418z M156.98,224.491
		c-2.741-5.564-8.242-9.151-14.454-9.394l-24.763-1.06c-0.306-0.018-0.611-0.036-0.917-0.036
		c-5.834,0.036-11.299,3.128-14.338,8.108L87.984,244.23l-11.883-5.528l7.569-25.321c1.986-5.887,0.628-12.314-3.569-16.845
		l-16.79-18.309c-3.21-3.524-7.784-5.528-12.558-5.502c-1.33,0-2.661,0.162-3.946,0.486l-26.148,5.447l-4.477-12.297l23.514-12.656
		c5.564-2.777,9.151-8.288,9.376-14.444l1.07-24.799c0.296-6.22-2.805-12.009-8.117-15.227L19.931,84.727l5.519-11.883l25.357,7.568
		c1.762,0.594,3.595,0.881,5.465,0.881c4.206-0.018,8.225-1.581,11.371-4.458l18.274-16.773c4.629-4.206,6.535-10.498,5.034-16.539
		l-5.438-26.121l12.296-4.494l12.646,23.513c2.751,5.547,8.234,9.133,14.446,9.393l24.889,1.079l0.746,0.018
		c5.879-0.027,11.353-3.137,14.391-8.126l14.526-22.121l11.883,5.527l-7.56,25.304c-2.013,5.896-0.664,12.314,3.56,16.862
		l16.817,18.328c3.208,3.514,7.775,5.51,12.512,5.483c1.349-0.009,2.679-0.17,3.991-0.476l26.121-5.456l4.476,12.305l-23.524,12.674
		c-5.491,2.733-9.069,8.18-9.375,14.418l-1.07,24.781c-0.297,6.23,2.805,12.018,8.126,15.254l22.085,14.516l-5.519,11.892
		l-25.348-7.577c-1.762-0.594-3.595-0.89-5.474-0.881c-4.234,0.008-8.279,1.609-11.362,4.44l-18.346,16.836
		c-4.557,4.206-6.436,10.481-4.97,16.485l5.456,26.138l-12.306,4.477L156.98,224.491z"/>
	<path class="st0" d="M186.04,154.802c6.499-13.987,7.173-29.663,1.888-44.135c-5.294-14.48-15.891-26.04-29.842-32.521
		c-7.792-3.64-16.062-5.465-24.575-5.429c-6.651,0.027-13.231,1.213-19.559,3.524c-14.498,5.285-26.057,15.883-32.556,29.86
		c-6.499,13.96-7.173,29.626-1.897,44.134c5.304,14.49,15.911,26.049,29.861,32.53c7.784,3.622,16.053,5.455,24.565,5.42
		c6.661-0.036,13.241-1.222,19.578-3.524C167.965,179.377,179.515,168.77,186.04,154.802z M149.376,173.372
		c-5.042,1.843-10.282,2.769-15.505,2.787c-6.634,0.036-13.25-1.403-19.442-4.288c-11.065-5.151-19.442-14.302-23.64-25.762
		c-4.17-11.478-3.65-23.882,1.501-34.939c5.151-11.074,14.31-19.469,25.77-23.639c5.051-1.852,10.292-2.778,15.506-2.796
		c6.634-0.028,13.24,1.411,19.433,4.297c11.056,5.15,19.451,14.301,23.64,25.761c4.18,11.47,3.648,23.865-1.493,34.939
		C169.978,160.797,160.837,169.184,149.376,173.372z"/>
</g>
</symbol>
<symbol id="icon-shield-heart" viewBox="0 0 512 512">
<path fill="#d65c8f" d="M256 32c-64 48-128 64-224 96 0 128 160 320 224 368 64-48 224-240 224-368-96-32-160-48-224-96zm0 34.75l5.4 4.05c49.7 37.3 99.6 49.9 176.7 75.6l6.2 2v6.5c0 55-33.1 119.7-72 176.4-38.9 56.8-83.6 105-110.9 125.5l-5.4 4.1-5.4-4.1c-27.3-20.5-72-68.7-110.9-125.5-38.9-56.7-72-121.4-72-176.4v-6.5l6.15-2C150.9 120.7 200.9 108 250.6 70.8l5.4-4.05zm0 22.18c-49.4 35.37-99.8 49.17-170.05 72.37 2.58 46.7 32.35 107 68.65 159.9 35.3 51.5 76.6 96.3 101.4 116.8 24.8-20.5 66.1-65.3 101.4-116.8 36.3-52.9 66.1-113.2 68.6-159.9-70.3-23.2-120.6-37-170-72.37zm-45.5 54.97c19.7.5 38.1 14.4 45.5 48.1 18-86.3 110-42.5 110 22.5-1 63.9-92 107.7-110 162.1-19-54.4-108-98.2-110-162.1 0-39.6 33.8-71.3 64.5-70.6z"/>
</symbol>
<symbol id="icon-painting" viewBox="0 0 512 512">
<path class="st0" d="M500.789,325.626c0-1.57,0-3.073,0-4.82c0-2.091,0-2.948,0-3.023c0-0.487,0-1.109,0-1.528
		c0-1.52,0-2.578,0-3.107c0.168-3.225,0.84-7.156,1.847-11.472c1.512-6.592,3.771-14.05,5.72-21.75
		c0.974-3.872,1.872-7.802,2.536-11.791C511.554,264.146,512,260.106,512,256c0-5.475-0.773-10.842-1.848-16.107
		c-1.612-7.886-3.905-15.595-5.794-22.708c-0.948-3.552-1.788-6.945-2.427-10.069c-0.613-3.057-1.008-5.836-1.142-8.238
		c0-5.736,0-29.384,0-45.492c0-3.644,0.277-6.584,0.689-9.086c0.621-3.762,1.536-6.568,2.628-9.582
		c0.546-1.511,1.142-3.056,1.747-4.778c0.597-1.722,1.201-3.612,1.68-5.719c1.972-8.716,2.746-16.644,2.746-23.656
		c0-10.85-1.84-19.484-3.771-25.512c-1.94-6.03-3.938-9.464-4.308-10.069l-1.36-2.226l-2.226-1.36
		c-0.596-0.37-4.039-2.368-10.077-4.308c-6.012-1.932-14.654-3.78-25.504-3.771c-7.013-0.009-14.94,0.773-23.657,2.746
		c-2.814,0.639-5.223,1.496-7.382,2.276c-3.258,1.2-5.963,2.259-9.213,3.057c-3.242,0.806-7.096,1.41-12.571,1.41
		c-8.373,0-32.743,0-55.006,0c-11.144,0-21.75,0-29.578,0c-3.913,0-7.13,0-9.372,0c-1.537,0-2.603,0-3.124,0
		c-3.208-0.176-7.146-0.839-11.454-1.847c-6.592-1.512-14.05-3.771-21.75-5.719c-3.871-0.974-7.801-1.872-11.79-2.536
		c-3.99-0.663-8.037-1.108-12.135-1.108c-5.476,0.008-10.842,0.773-16.108,1.839c-7.886,1.612-15.595,3.914-22.708,5.803
		c-3.552,0.949-6.945,1.789-10.069,2.427c-3.057,0.604-5.836,1.008-8.23,1.142c-5.744,0-80.989,0-97.097,0
		c-3.636,0-6.584-0.277-9.086-0.688c-3.762-0.622-6.567-1.538-9.582-2.629c-1.503-0.546-3.065-1.142-4.778-1.746
		c-1.722-0.597-3.611-1.202-5.72-1.68c-8.716-1.973-16.644-2.754-23.656-2.746c-10.851-0.009-19.484,1.839-25.513,3.771
		c-6.03,1.94-9.473,3.938-10.069,4.308l-2.234,1.36l-1.352,2.217c-0.37,0.613-2.377,4.048-4.308,10.078
		c-1.931,6.029-3.78,14.662-3.78,25.512c0,7.012,0.773,14.94,2.763,23.656c0.639,2.814,1.478,5.224,2.268,7.382
		c1.201,3.258,2.259,5.963,3.065,9.204c0.798,3.25,1.403,7.105,1.403,12.58c0,16.108,0,39.747,0,45.492
		c-0.176,3.216-0.848,7.138-1.847,11.446c-1.512,6.592-3.771,14.05-5.719,21.751c-0.983,3.863-1.873,7.801-2.537,11.79
		C0.446,247.854,0,251.893,0,256c0.008,5.467,0.773,10.842,1.848,16.107c1.604,7.886,3.905,15.595,5.794,22.708
		c0.948,3.552,1.788,6.945,2.418,10.069c0.622,3.04,1.016,5.82,1.151,8.213c0,0.512,0,1.588,0,3.158c0,15.678,0,27.696,0,42.359
		c0,3.644-0.277,6.584-0.688,9.086c-0.622,3.762-1.538,6.567-2.629,9.582c-0.546,1.503-1.142,3.056-1.747,4.778
		c-0.597,1.722-1.201,3.612-1.672,5.711c-1.99,8.725-2.763,16.662-2.763,23.665c0,10.851,1.848,19.484,3.78,25.505
		c1.932,6.038,3.938,9.472,4.308,10.077l1.36,2.226l2.226,1.36c0.596,0.37,4.039,2.368,10.069,4.3
		c6.021,1.94,14.662,3.78,25.513,3.78c7.012,0,14.94-0.773,23.656-2.754c2.814-0.638,5.232-1.487,7.39-2.276
		c3.258-1.192,5.954-2.25,9.204-3.048c3.242-0.806,7.096-1.41,12.571-1.41c16.09,0,91.21,0,97.071,0
		c3.225,0.176,7.147,0.84,11.463,1.847c6.592,1.512,14.05,3.771,21.75,5.72c3.863,0.973,7.802,1.872,11.79,2.536
		c3.99,0.663,8.028,1.1,12.136,1.108c5.475-0.009,10.841-0.773,16.107-1.84c7.886-1.612,15.595-3.914,22.708-5.803
		c3.552-0.948,6.945-1.789,10.069-2.418c3.048-0.622,5.836-1.016,8.23-1.151c0.52,0,1.587,0,3.141,0c15.678,0,79.301,0,93.955,0
		c3.644,0,6.584,0.277,9.086,0.688c3.762,0.622,6.567,1.538,9.582,2.629c1.503,0.546,3.056,1.142,4.778,1.747
		c1.722,0.597,3.612,1.201,5.72,1.672c8.716,1.981,16.644,2.754,23.657,2.754c10.85,0,19.492-1.84,25.504-3.78
		c6.038-1.931,9.481-3.93,10.077-4.3l2.226-1.36l1.36-2.226c0.37-0.604,2.368-4.039,4.308-10.077
		c1.931-6.021,3.771-14.654,3.771-25.505c0-7.003-0.773-14.94-2.746-23.665c-0.639-2.805-1.487-5.216-2.276-7.382
		c-1.2-3.25-2.259-5.954-3.065-9.204c-0.798-3.25-1.403-7.096-1.403-12.571c0-7.508,0-14.126,0-31.409
		C500.789,326.71,500.789,326.147,500.789,325.626z M48.968,74.649c5.458,0,11.774,0.596,18.937,2.217
		c1.344,0.31,2.864,0.806,4.77,1.512c2.864,1.042,6.61,2.536,11.404,3.729c4.812,1.2,10.623,2.041,17.71,2.032
		c16.754,0,97.457,0,97.457,0h0.269l0.277-0.008c5.182-0.277,10.271-1.218,15.334-2.385c7.584-1.755,15.116-4.039,22.179-5.82
		c3.519-0.89,6.911-1.654,10.069-2.184c3.158-0.52,6.081-0.814,8.625-0.814c3.401-0.009,7.449,0.52,11.849,1.419
		c6.617,1.335,13.982,3.502,21.474,5.51c3.754,0.999,7.541,1.948,11.354,2.721c3.812,0.764,7.65,1.352,11.53,1.553l0.277,0.008
		h0.269c0.008,0,1.268,0,3.502,0c15.678,0,79.301,0,93.955,0c4.719,0,8.876-0.361,12.554-0.974c5.51-0.898,9.935-2.36,13.395-3.619
		c1.738-0.63,3.225-1.201,4.526-1.655c1.294-0.453,2.393-0.789,3.41-1.024c7.164-1.621,13.479-2.217,18.938-2.217
		c5.912,0,10.791,0.705,14.628,1.579l-50.345,50.353H82.258L32.374,76.698C36.456,75.614,42.015,74.649,48.968,74.649z
		 M423.798,138.573v234.854H88.203V138.573H423.798z M23.052,411.435c0-5.458,0.596-11.774,2.226-18.928
		c0.302-1.36,0.798-2.872,1.503-4.779c1.033-2.864,2.536-6.601,3.737-11.404c1.192-4.812,2.032-10.623,2.024-17.71
		c0-7.508,0-14.126,0-31.409c0-0.495,0-1.058,0-1.579c0-1.57,0-3.073,0-4.82c0-2.091,0-2.948,0-3.023c0-0.487,0-1.109,0-1.528
		c0-2.234,0-3.494,0-3.494v-0.268l-0.009-0.286c-0.277-5.182-1.209-10.271-2.384-15.334c-1.755-7.584-4.048-15.116-5.82-22.179
		c-0.89-3.519-1.654-6.911-2.175-10.069c-0.529-3.158-0.823-6.081-0.823-8.625c-0.009-3.401,0.52-7.449,1.419-11.849
		c1.336-6.617,3.503-13.99,5.51-21.474c0.991-3.754,1.956-7.541,2.712-11.354c0.772-3.812,1.36-7.65,1.562-11.53l0.009-0.277v-0.277
		c0,0,0-29.107,0-45.853c0-4.728-0.361-8.876-0.966-12.554c-0.898-5.51-2.368-9.935-3.628-13.403
		c-0.638-1.73-1.209-3.216-1.654-4.518c-0.453-1.293-0.79-2.393-1.016-3.41c-1.63-7.163-2.226-13.478-2.226-18.937
		c0-5.912,0.705-10.791,1.588-14.638l51.563,51.571v239.439l-51.101,51.085C24.018,423.948,23.052,418.389,23.052,411.435z
		 M463.032,437.351c-5.459,0-11.774-0.596-18.938-2.217c-1.352-0.311-2.864-0.806-4.77-1.512c-2.864-1.041-6.601-2.536-11.404-3.736
		c-4.812-1.201-10.623-2.033-17.71-2.024c-8.373,0-32.743,0-55.006,0c-11.144,0-21.75,0-29.578,0c-3.913,0-7.13,0-9.372,0
		c-2.234,0-3.494,0-3.502,0h-0.269l-0.277,0.009c-5.182,0.277-10.279,1.209-15.334,2.384c-7.584,1.755-15.116,4.048-22.178,5.82
		c-3.528,0.89-6.912,1.654-10.069,2.174c-3.158,0.529-6.08,0.823-8.624,0.823c-3.402,0.008-7.457-0.52-11.858-1.419
		c-6.609-1.344-13.974-3.503-21.464-5.51c-3.755-1-7.542-1.956-11.355-2.721c-3.812-0.764-7.65-1.352-11.53-1.553l-0.277-0.009
		h-0.269c0,0-80.703,0-97.457,0c-4.719,0-8.876,0.361-12.554,0.966c-5.509,0.898-9.935,2.377-13.403,3.628
		c-1.73,0.629-3.216,1.209-4.518,1.654c-1.293,0.453-2.393,0.79-3.41,1.024c-7.163,1.621-13.479,2.217-18.937,2.217
		c-5.912,0-10.792-0.705-14.638-1.579l50.354-50.353h342.631l50.362,50.361C473.84,436.655,468.927,437.351,463.032,437.351z
		 M489.25,267.85c-1.336,6.617-3.502,13.982-5.509,21.472c-1,3.754-1.957,7.542-2.722,11.355c-0.764,3.812-1.352,7.65-1.545,11.53
		l-0.017,0.277v0.269c0,0,0,1.268,0,3.502c0,15.678,0,27.696,0,42.359c0,4.728,0.361,8.876,0.966,12.546
		c0.898,5.517,2.368,9.942,3.628,13.402c0.638,1.739,1.2,3.225,1.654,4.527c0.453,1.293,0.79,2.393,1.024,3.41
		c1.621,7.163,2.217,13.479,2.217,18.937c0,6.962-0.974,12.504-2.066,16.586l-51.084-51.085V135.063l51.092-51.092
		c1.091,4.081,2.057,9.641,2.057,16.594c0,5.458-0.596,11.774-2.217,18.937c-0.31,1.352-0.814,2.864-1.512,4.77
		c-1.041,2.864-2.536,6.601-3.736,11.405c-1.193,4.811-2.033,10.623-2.024,17.71c0,16.746,0,45.853,0,45.853v0.286l0.017,0.268
		c0.26,5.182,1.201,10.271,2.376,15.335c1.755,7.584,4.04,15.116,5.82,22.17c0.89,3.527,1.654,6.92,2.175,10.078
		c0.529,3.158,0.823,6.08,0.823,8.624C490.669,259.401,490.149,263.449,489.25,267.85z"/>
	<path class="st0" d="M330.53,269.587c-3.123-3.703-7.684-5.912-12.538-6.046c-4.845-0.152-9.531,1.78-12.873,5.299l-41.342,43.518
		l-48.859-73.297c-3.166-4.744-8.499-7.6-14.201-7.6c-5.702,0-11.035,2.856-14.2,7.6l-71.794,107.694h280.916L330.53,269.587z"/>
	<path class="st0" d="M302.466,240.7c19.004,0,34.398-15.394,34.398-34.398c0-19.005-15.394-34.398-34.398-34.398
		c-19.005,0-34.398,15.393-34.398,34.398C268.068,225.306,283.461,240.7,302.466,240.7z"/>
</symbol>
<symbol id="icon-tray-plate" viewBox="0 0 512 512">
<g>
	<g>
		<path d="M503.83,388.085H8.17c-4.513,0-8.17,3.657-8.17,8.17s3.657,8.17,8.17,8.17h25.333c3.795,18.624,20.3,32.681,40.029,32.681
			h364.936c19.728,0,36.233-14.057,40.029-32.681h25.333c4.513,0,8.17-3.657,8.17-8.17S508.343,388.085,503.83,388.085z
			 M438.468,420.766H73.532c-10.651,0-19.733-6.831-23.105-16.34h411.147C458.201,413.935,449.119,420.766,438.468,420.766z"/>
	</g>
</g>
<g>
	<g>
		<circle cx="156.868" cy="232.851" r="8.17"/>
	</g>
</g>
<g>
	<g>
		<circle cx="124.187" cy="265.532" r="8.17"/>
	</g>
</g>
<g>
	<g>
		<path d="M264.17,140.421v-16.506h24.511c4.513,0,8.17-3.657,8.17-8.17c0-22.526-18.325-40.851-40.851-40.851
			s-40.851,18.325-40.851,40.851c0,4.513,3.657,8.17,8.17,8.17s8.17-3.657,8.17-8.17c0-13.515,10.996-24.511,24.511-24.511
			c10.652,0,19.738,6.83,23.111,16.34H256c-4.513,0-8.17,3.657-8.17,8.17v24.676C128.463,144.737,32.681,243.173,32.681,363.574
			c0,4.513,3.657,8.17,8.17,8.17s8.17-3.657,8.17-8.17c0-114.129,92.85-206.979,206.979-206.979s206.979,92.85,206.979,206.979
			c0,4.513,3.657,8.17,8.17,8.17s8.17-3.657,8.17-8.17C479.319,243.173,383.537,144.737,264.17,140.421z"/>
	</g>
</g>
</symbol>
<symbol id="icon-jewelry-set" viewBox="0 0 365.535 365.535">
<path d="M35.206,97.117c1.178-0.915,1.949-2.329,1.949-3.936c0-2.762-2.239-5-5-5h-3.882V58.449
		c0-5.943-4.835-10.779-10.778-10.779c-3.651,0-6.622-2.971-6.622-6.621c0-3.652,2.971-6.623,6.656-6.623
		c0.038,0,3.385,0.129,4.789,1.987c4,5.287,9.914,6.241,15.067,2.428c2.22-1.643,2.687-4.773,1.044-6.993
		c-1.643-2.221-4.774-2.688-6.993-1.044c-0.208,0.153-0.366,0.246-0.476,0.302c-0.141-0.114-0.369-0.331-0.666-0.726
		c-4.42-5.842-12.005-5.955-12.8-5.954c-9.165,0-16.622,7.457-16.622,16.623c0,9.165,7.457,16.621,16.622,16.621
		c0.429,0,0.778,0.35,0.778,0.779v29.732h-3.881c-2.762,0-5,2.238-5,5c0,1.606,0.771,3.021,1.949,3.936
		c-4.019,3.399-6.581,8.47-6.581,14.133c0,10.208,8.305,18.514,18.513,18.514c10.209,0,18.514-8.306,18.514-18.514
		C41.787,105.587,39.224,100.517,35.206,97.117z M23.273,119.764c-4.693,0-8.513-3.819-8.513-8.514s3.819-8.514,8.513-8.514
		c4.694,0,8.514,3.819,8.514,8.514S27.967,119.764,23.273,119.764z"/>
	<path d="M90.366,86.826c0-5.663-2.563-10.735-6.582-14.134c1.179-0.914,1.95-2.329,1.95-3.937c0-2.762-2.238-5-5-5h-3.882V34.025
		c0-5.943-4.835-10.779-10.778-10.779c-3.651,0-6.622-2.971-6.622-6.621c0-3.653,2.971-6.625,6.654-6.625
		c0.038,0,3.386,0.13,4.79,1.985c4,5.291,9.914,6.248,15.067,2.432c2.22-1.643,2.687-4.773,1.044-6.993
		c-1.644-2.221-4.774-2.688-6.993-1.044c-0.207,0.153-0.365,0.246-0.474,0.301c-0.141-0.114-0.369-0.332-0.668-0.728
		C74.455,0.116,66.893,0.028,66.074,0c-9.166,0-16.622,7.458-16.622,16.625c0,9.165,7.456,16.621,16.622,16.621
		c0.43,0,0.778,0.35,0.778,0.779v29.731h-3.881c-2.761,0-5,2.238-5,5c0,1.607,0.771,3.021,1.95,3.937
		c-4.019,3.398-6.583,8.47-6.583,14.134c0,10.208,8.306,18.514,18.514,18.514S90.366,97.034,90.366,86.826z M71.852,95.34
		c-4.694,0-8.514-3.819-8.514-8.514c0-4.694,3.819-8.514,8.514-8.514c4.694,0,8.514,3.819,8.514,8.514
		C80.366,91.521,76.546,95.34,71.852,95.34z"/>
	<path d="M363.179,218.516c0-3.722-1.311-7.139-3.487-9.829c3.051-2.858,4.971-6.91,4.971-11.411c0-4.457-1.881-8.475-4.88-11.329
		c2.223-2.704,3.561-6.163,3.561-9.929c0-5.272-2.627-9.935-6.634-12.774c1.443-2.369,2.29-5.139,2.29-8.11
		c0-6.086-3.499-11.359-8.584-13.948c0.784-1.864,1.22-3.91,1.22-6.056c0-6.89-4.479-12.743-10.673-14.831
		c0.322-1.25,0.512-2.553,0.512-3.901c0-7.728-5.634-14.15-13.006-15.416c0.048-0.496,0.076-0.997,0.076-1.506
		c0-8.563-6.913-15.534-15.45-15.647c-0.492-8.192-7.297-14.712-15.612-14.712c-3.384,0-6.511,1.09-9.074,2.922
		c-18.857-12.032-40.147-18.779-62.082-19.671v-0.868c0-2.762-2.238-5-5-5s-5,2.238-5,5v0.868
		c-21.932,0.892-43.222,7.639-62.081,19.672c-2.563-1.832-5.691-2.923-9.075-2.923c-8.315,0-15.119,6.52-15.611,14.712
		c-8.537,0.113-15.451,7.084-15.451,15.647c0,0.509,0.028,1.01,0.076,1.506c-7.372,1.267-13.006,7.688-13.006,15.416
		c0,1.349,0.189,2.651,0.512,3.901c-6.194,2.088-10.674,7.941-10.674,14.831c0,2.145,0.436,4.192,1.221,6.056
		c-5.085,2.59-8.583,7.863-8.583,13.948c0,2.972,0.847,5.741,2.289,8.11c-4.006,2.839-6.634,7.502-6.634,12.774
		c0,3.766,1.338,7.225,3.561,9.929c-2.999,2.854-4.88,6.872-4.88,11.329c0,4.501,1.92,8.553,4.972,11.412
		c-2.177,2.689-3.487,6.107-3.487,9.828c0,5.048,2.41,9.532,6.13,12.398c-2.556,3.263-4.094,7.358-4.094,11.813
		c0,8.206,5.183,15.208,12.438,17.955c-1.88,3.31-2.959,7.131-2.959,11.201c0,12.305,9.817,22.353,22.029,22.743
		c-0.725,2.383-1.118,4.908-1.118,7.524c0,14.28,11.617,25.898,25.896,25.898c3.02,0,5.918-0.524,8.614-1.478
		c0.071,15.5,12.7,28.09,28.217,28.09c7.481,0,14.288-2.932,19.344-7.7c4.333,10.87,14.958,18.575,27.354,18.575
		s23.02-7.706,27.354-18.576c5.056,4.768,11.861,7.701,19.343,7.701c15.517,0,28.146-12.59,28.218-28.091
		c2.696,0.955,5.595,1.479,8.614,1.479c14.28,0,25.898-11.618,25.898-25.898c0-2.616-0.393-5.142-1.118-7.524
		c12.212-0.391,22.028-10.439,22.028-22.743c0-4.07-1.079-7.892-2.959-11.201c7.256-2.747,12.438-9.749,12.438-17.955
		c0-4.455-1.538-8.551-4.093-11.813C360.768,228.048,363.179,223.564,363.179,218.516z M347.52,224.176
		c-0.377,0-0.744-0.039-1.101-0.109c-0.207-0.05-0.407-0.116-0.617-0.159c-2.282-0.729-3.94-2.869-3.94-5.392
		c0-3.119,2.537-5.656,5.657-5.656c3.12,0,5.659,2.537,5.659,5.656C353.179,221.637,350.64,224.176,347.52,224.176z M322.72,242.727
		c0,2.442,0.477,4.771,1.312,6.922c-10.22,2.236-17.896,11.354-17.896,22.234c0,1.517,0.152,2.998,0.437,4.433
		c-0.568-0.038-1.14-0.063-1.718-0.063c-13.708,0-24.957,10.709-25.836,24.2c-3.381-1.436-7.098-2.231-10.996-2.231
		c-11.592,0-21.57,7.028-25.907,17.044c-5.33-5.319-12.683-8.614-20.79-8.614s-15.46,3.294-20.79,8.614
		c-4.337-10.017-14.316-17.044-25.908-17.044c-3.898,0-7.613,0.795-10.993,2.229c-0.88-13.49-12.128-24.198-25.838-24.198
		c-0.578,0-1.149,0.025-1.718,0.063c0.284-1.435,0.437-2.916,0.437-4.433c0-10.881-7.676-19.998-17.895-22.234
		c0.834-2.15,1.311-4.48,1.311-6.922c0-7.572-4.416-14.117-10.797-17.244c1.05-2.102,1.655-4.462,1.655-6.967
		c0-4.501-1.92-8.552-4.971-11.411c2.176-2.69,3.486-6.107,3.486-9.829c0-3.766-1.338-7.225-3.561-9.929
		c2.999-2.854,4.88-6.872,4.88-11.329c0-2.971-0.847-5.74-2.289-8.109c4.006-2.839,6.634-7.502,6.634-12.775
		c0-2.145-0.436-4.19-1.22-6.054c5.084-2.59,8.582-7.864,8.582-13.95c0-1.35-0.189-2.653-0.513-3.903
		c6.195-2.087,10.675-7.939,10.675-14.829c0-0.509-0.028-1.01-0.076-1.506c7.068-1.213,12.52-7.171,12.958-14.472
		c8.537-0.111,15.451-7.083,15.451-15.647c0-1.613-0.246-3.17-0.701-4.636c17.133-10.809,36.405-16.886,56.241-17.757
		c0.211,2.567,2.337,4.592,4.959,4.592s4.748-2.024,4.959-4.592c19.839,0.871,39.112,6.948,56.242,17.759
		c-0.455,1.465-0.701,3.021-0.701,4.634c0,8.564,6.913,15.536,15.45,15.647c0.438,7.301,5.89,13.258,12.957,14.472
		c-0.048,0.496-0.076,0.997-0.076,1.506c0,6.89,4.479,12.741,10.676,14.829c-0.323,1.25-0.513,2.554-0.513,3.903
		c0,6.086,3.498,11.36,8.583,13.95c-0.784,1.863-1.22,3.908-1.22,6.054c0,5.273,2.627,9.937,6.634,12.776
		c-1.442,2.368-2.289,5.139-2.289,8.108c0,4.457,1.881,8.475,4.88,11.329c-2.223,2.704-3.56,6.163-3.56,9.929
		c0,3.722,1.31,7.14,3.486,9.829c-3.051,2.859-4.971,6.91-4.971,11.411c0,2.505,0.605,4.865,1.655,6.967
		C327.136,228.61,322.72,235.154,322.72,242.727z M96.234,224.066c-0.356,0.07-0.725,0.109-1.102,0.109
		c-3.121,0-5.659-2.539-5.659-5.66c0-3.119,2.538-5.656,5.659-5.656c3.119,0,5.657,2.537,5.657,5.656
		c0,2.523-1.659,4.664-3.942,5.393C96.639,223.951,96.44,224.017,96.234,224.066z M104.969,155.133c0,3.121-2.538,5.66-5.658,5.66
		c-3.12,0-5.658-2.539-5.658-5.66c0-3.119,2.538-5.656,5.658-5.656C102.431,149.477,104.969,152.014,104.969,155.133z
		 M94.966,170.359c3.12,0,5.658,2.538,5.658,5.658c0,3.12-2.538,5.658-5.658,5.658s-5.658-2.538-5.658-5.658
		C89.308,172.898,91.846,170.359,94.966,170.359z M93.647,191.617c3.12,0,5.658,2.538,5.658,5.658c0,3.12-2.538,5.658-5.658,5.658
		c-3.12,0-5.658-2.538-5.658-5.658C87.989,194.155,90.527,191.617,93.647,191.617z M349.004,202.934
		c-3.12,0-5.657-2.538-5.657-5.658c0-3.12,2.537-5.658,5.657-5.658s5.658,2.538,5.658,5.658
		C354.663,200.395,352.124,202.934,349.004,202.934z M342.028,176.018c0-3.12,2.538-5.658,5.658-5.658
		c3.12,0,5.657,2.538,5.657,5.658c0,3.12-2.537,5.658-5.657,5.658C344.566,181.676,342.028,179.138,342.028,176.018z
		 M343.34,160.793c-3.12,0-5.657-2.539-5.657-5.66c0-3.119,2.537-5.656,5.657-5.656c3.12,0,5.659,2.537,5.659,5.656
		C348.999,158.254,346.461,160.793,343.34,160.793z M335.979,140.787c-3.12,0-5.659-2.538-5.659-5.658
		c0-3.12,2.539-5.658,5.659-5.658c3.118,0,5.656,2.538,5.656,5.658C341.635,138.249,339.097,140.787,335.979,140.787z
		 M331.474,116.396c0,3.119-2.538,5.656-5.658,5.656c-3.121,0-5.659-2.537-5.659-5.656c0-3.12,2.538-5.658,5.659-5.658
		C328.936,110.738,331.474,113.276,331.474,116.396z M318.544,99.475c0,3.12-2.538,5.658-5.658,5.658
		c-3.12,0-5.658-2.538-5.658-5.658s2.538-5.658,5.658-5.658C316.006,93.816,318.544,96.354,318.544,99.475z M303.142,84.771
		c0,3.12-2.539,5.658-5.66,5.658c-3.119,0-5.656-2.538-5.656-5.658c0-3.119,2.537-5.656,5.656-5.656
		C300.603,79.115,303.142,81.652,303.142,84.771z M145.169,79.115c3.119,0,5.657,2.537,5.657,5.656c0,3.12-2.538,5.658-5.657,5.658
		c-3.121,0-5.659-2.538-5.659-5.658C139.51,81.652,142.048,79.115,145.169,79.115z M129.766,93.816c3.12,0,5.657,2.538,5.657,5.658
		s-2.537,5.658-5.657,5.658c-3.12,0-5.659-2.538-5.659-5.658S126.646,93.816,129.766,93.816z M116.836,110.738
		c3.12,0,5.657,2.538,5.657,5.658c0,3.119-2.537,5.656-5.657,5.656c-3.12,0-5.659-2.537-5.659-5.656
		C111.177,113.276,113.716,110.738,116.836,110.738z M106.673,129.471c3.12,0,5.658,2.538,5.658,5.658
		c0,3.12-2.538,5.658-5.658,5.658c-3.12,0-5.658-2.538-5.658-5.658C101.015,132.009,103.553,129.471,106.673,129.471z
		 M98.247,233.862c0.223-0.045,0.438-0.11,0.656-0.165c0.588-0.118,1.195-0.182,1.817-0.182c5.079,0,9.211,4.132,9.211,9.211
		c0,3.514-1.979,6.572-4.88,8.124c-0.374,0.156-0.744,0.319-1.108,0.494c-1.005,0.377-2.088,0.593-3.223,0.593
		c-5.079,0-9.211-4.132-9.211-9.211C91.509,238.505,94.367,234.947,98.247,233.862z M100.989,271.883
		c0-4.997,2.894-9.321,7.087-11.415c0.282-0.117,0.553-0.256,0.828-0.387c1.496-0.616,3.132-0.962,4.848-0.962
		c7.038,0,12.764,5.726,12.764,12.764c0,7.037-5.726,12.762-12.764,12.762C106.714,284.645,100.989,278.92,100.989,271.883z
		 M121.9,302.15c0-8.767,7.131-15.898,15.896-15.898c8.768,0,15.899,7.132,15.899,15.898s-7.132,15.898-15.899,15.898
		C129.031,318.049,121.9,310.917,121.9,302.15z M174.628,344.66c-10.046,0-18.22-8.174-18.22-18.221
		c0-10.046,8.174-18.219,18.22-18.219c10.047,0,18.221,8.173,18.221,18.219C192.848,336.486,184.674,344.66,174.628,344.66z
		 M221.326,355.535c-10.721,0-19.442-8.723-19.442-19.443c0-10.72,8.722-19.441,19.442-19.441s19.441,8.722,19.441,19.441
		C240.767,346.813,232.046,355.535,221.326,355.535z M268.023,344.66c-10.047,0-18.22-8.174-18.22-18.221
		c0-10.046,8.173-18.219,18.22-18.219c10.047,0,18.221,8.173,18.221,18.219C286.244,336.486,278.07,344.66,268.023,344.66z
		 M304.855,318.049c-8.766,0-15.898-7.132-15.898-15.898s7.132-15.898,15.898-15.898c8.767,0,15.898,7.132,15.898,15.898
		S313.622,318.049,304.855,318.049z M328.9,284.645c-7.038,0-12.764-5.725-12.764-12.762c0-7.038,5.726-12.764,12.764-12.764
		c1.718,0,3.354,0.346,4.851,0.963c0.274,0.13,0.543,0.268,0.823,0.385c4.195,2.094,7.09,6.418,7.09,11.416
		C341.664,278.92,335.938,284.645,328.9,284.645z M341.933,251.938c-1.137,0-2.221-0.217-3.228-0.595
		c-0.361-0.174-0.729-0.336-1.103-0.49c-2.902-1.553-4.883-4.611-4.883-8.126c0-5.079,4.133-9.211,9.213-9.211
		c0.621,0,1.228,0.064,1.815,0.182c0.22,0.055,0.435,0.12,0.658,0.166c3.879,1.085,6.735,4.643,6.735,8.863
		C351.142,247.806,347.011,251.938,341.933,251.938z"/>
</symbol>
<symbol id="icon-box-open-2" viewBox="0 0 32 32">
<path d="M29.742 5.39c-0.002-0.012-0.010-0.022-0.012-0.034-0.014-0.057-0.032-0.106-0.055-0.152l0.002 0.004c-0.017-0.046-0.036-0.086-0.059-0.124l0.002 0.003c-0.033-0.044-0.069-0.082-0.108-0.117l-0.001-0.001c-0.023-0.028-0.046-0.053-0.071-0.076l-0-0-0.023-0.011c-0.044-0.027-0.095-0.050-0.149-0.067l-0.005-0.002c-0.034-0.016-0.073-0.031-0.115-0.043l-0.005-0.001-0.028-0.010-12.999-2c-0.034-0.006-0.074-0.009-0.114-0.009s-0.080 0.003-0.119 0.009l0.004-0.001-13.026 2.010c-0.054 0.014-0.101 0.032-0.146 0.054l0.004-0.002c-0.052 0.018-0.096 0.039-0.138 0.064l0.003-0.002-0.024 0.011c-0.025 0.023-0.047 0.048-0.068 0.074l-0.001 0.001c-0.041 0.036-0.078 0.075-0.11 0.118l-0.001 0.002c-0.020 0.034-0.039 0.074-0.055 0.115l-0.002 0.005c-0.021 0.042-0.039 0.090-0.052 0.141l-0.001 0.005c-0.003 0.013-0.011 0.023-0.013 0.036l-1 6.75c-0.005 0.033-0.008 0.071-0.008 0.11 0 0.361 0.255 0.663 0.595 0.734l0.005 0.001 1.445 0.296c-0.025 0.065-0.041 0.14-0.044 0.218l-0 0.002v12.5c0 0 0 0 0 0 0 0.36 0.254 0.66 0.592 0.733l0.005 0.001 12 2.5c0.046 0.010 0.099 0.016 0.153 0.016s0.107-0.006 0.158-0.017l-0.005 0.001 11.999-2.5c0.344-0.073 0.597-0.374 0.598-0.734v-12.5c-0.004-0.080-0.020-0.155-0.046-0.225l0.002 0.005 1.445-0.296c0.345-0.072 0.6-0.373 0.6-0.734 0-0.039-0.003-0.077-0.009-0.115l0.001 0.004zM16 4.259l8.351 1.285-8.351 1.446-8.351-1.446zM3.629 6.37l11.295 1.955-2.364 5.319-9.714-1.987zM4.75 13.578l8.1 1.657c0.046 0.010 0.099 0.016 0.153 0.016 0.303 0 0.564-0.181 0.681-0.441l0.002-0.005 1.564-3.52v16.294l-10.5-2.188zM27.25 25.391l-10.5 2.188v-16.294l1.564 3.52c0.12 0.264 0.382 0.445 0.685 0.445h0c0 0 0 0 0 0 0.053 0 0.105-0.006 0.155-0.017l-0.005 0.001 8.1-1.657zM19.441 13.645l-2.365-5.319 11.295-1.955 0.783 5.287z"></path>
</symbol>



<symbol id="icon-whatsapp" viewBox="0 0 32 32">
<path fill="#25d366" style="fill: var(--color1, #25d366)" d="M23.331 19.176c-0.401-0.2-2.356-1.156-2.72-1.288-0.364-0.135-0.631-0.2-0.897 0.2-0.263 0.393-1.028 1.285-1.259 1.549-0.233 0.26-0.465 0.28-0.861 0.1-0.4-0.2-1.684-0.62-3.204-1.98-1.184-1.060-1.979-2.36-2.213-2.76-0.232-0.4-0.025-0.62 0.173-0.82 0.181-0.18 0.401-0.46 0.601-0.697 0.195-0.241 0.259-0.401 0.396-0.661 0.133-0.28 0.065-0.5-0.033-0.699-0.1-0.2-0.896-2.16-1.229-2.941-0.32-0.779-0.649-0.68-0.896-0.68-0.229-0.020-0.495-0.020-0.761-0.020s-0.697 0.099-1.063 0.479c-0.364 0.4-1.393 1.36-1.393 3.3s1.427 3.82 1.625 4.1c0.199 0.26 2.807 4.26 6.8 5.98 0.952 0.4 1.693 0.64 2.272 0.839 0.952 0.303 1.82 0.26 2.507 0.161 0.765-0.121 2.356-0.961 2.688-1.901 0.34-0.94 0.34-1.72 0.24-1.9-0.099-0.18-0.36-0.28-0.76-0.46zM16.081 29h-0.021c-2.36 0-4.699-0.64-6.74-1.84l-0.48-0.285-5 1.3 1.34-4.86-0.319-0.5c-1.32-2.101-2.021-4.521-2.021-7.013 0-7.26 5.94-13.18 13.256-13.18 3.539 0 6.86 1.38 9.361 3.88 2.5 2.479 3.879 5.8 3.879 9.32-0.005 7.259-5.947 13.18-13.247 13.18zM27.36 4.599c-3.040-2.939-7.040-4.599-11.3-4.599-8.776 0-15.921 7.112-15.925 15.857 0 2.795 0.732 5.52 2.127 7.927l-2.261 8.216 8.447-2.203c2.328 1.257 4.947 1.925 7.613 1.929h0.008c8.78 0 15.928-7.115 15.932-15.861 0-4.235-1.653-8.22-4.66-11.215z"></path>
</symbol>
<symbol id="icon-facebook" viewBox="0 0 32 32">
<path fill="#1877f2" style="fill: var(--color2, #1877f2)" d="M31.997 15.999c0-8.836-7.163-15.999-15.999-15.999s-15.999 7.163-15.999 15.999c0 7.985 5.851 14.604 13.499 15.804v-11.18h-4.062v-4.625h4.062v-3.525c0-4.010 2.389-6.225 6.043-6.225 1.75 0 3.581 0.313 3.581 0.313v3.937h-2.017c-1.987 0-2.607 1.233-2.607 2.498v3.001h4.437l-0.709 4.625h-3.728v11.18c7.649-1.2 13.499-7.819 13.499-15.804z"></path>
</symbol>
<symbol id="icon-instagram" viewBox="0 0 32 32">
<path fill="#e4405f" style="fill: var(--color3, #e4405f)" d="M16 0c-4.347 0-4.889 0.020-6.596 0.096-1.704 0.080-2.864 0.348-3.884 0.744-1.052 0.408-1.945 0.956-2.835 1.845s-1.439 1.781-1.845 2.835c-0.396 1.020-0.665 2.18-0.744 3.884-0.080 1.707-0.096 2.249-0.096 6.596s0.020 4.889 0.096 6.596c0.080 1.703 0.348 2.864 0.744 3.884 0.408 1.051 0.956 1.945 1.845 2.835 0.889 0.888 1.781 1.439 2.835 1.845 1.021 0.395 2.181 0.665 3.884 0.744 1.707 0.080 2.249 0.096 6.596 0.096s4.889-0.020 6.596-0.096c1.703-0.080 2.864-0.349 3.884-0.744 1.051-0.408 1.945-0.957 2.835-1.845 0.888-0.889 1.439-1.78 1.845-2.835 0.395-1.020 0.665-2.181 0.744-3.884 0.080-1.707 0.096-2.249 0.096-6.596s-0.020-4.889-0.096-6.596c-0.080-1.703-0.349-2.865-0.744-3.884-0.408-1.052-0.957-1.945-1.845-2.835-0.889-0.889-1.78-1.439-2.835-1.845-1.020-0.396-2.181-0.665-3.884-0.744-1.707-0.080-2.249-0.096-6.596-0.096zM16 2.88c4.271 0 4.78 0.021 6.467 0.095 1.56 0.073 2.407 0.332 2.969 0.553 0.749 0.289 1.28 0.636 1.843 1.195 0.559 0.56 0.905 1.092 1.195 1.841 0.219 0.563 0.48 1.409 0.551 2.969 0.076 1.688 0.093 2.195 0.093 6.467s-0.020 4.78-0.099 6.467c-0.081 1.56-0.341 2.407-0.561 2.969-0.299 0.749-0.639 1.28-1.199 1.843-0.559 0.559-1.099 0.905-1.84 1.195-0.56 0.219-1.42 0.48-2.98 0.551-1.699 0.076-2.199 0.093-6.479 0.093-4.281 0-4.781-0.020-6.479-0.099-1.561-0.081-2.421-0.341-2.981-0.561-0.759-0.299-1.28-0.639-1.839-1.199-0.561-0.559-0.92-1.099-1.2-1.84-0.22-0.56-0.479-1.42-0.56-2.98-0.060-1.68-0.081-2.199-0.081-6.459 0-4.261 0.021-4.781 0.081-6.481 0.081-1.56 0.34-2.419 0.56-2.979 0.28-0.76 0.639-1.28 1.2-1.841 0.559-0.559 1.080-0.919 1.839-1.197 0.56-0.221 1.401-0.481 2.961-0.561 1.7-0.060 2.2-0.080 6.479-0.080zM16 7.784c-4.54 0-8.216 3.68-8.216 8.216 0 4.54 3.68 8.216 8.216 8.216 4.54 0 8.216-3.68 8.216-8.216 0-4.54-3.68-8.216-8.216-8.216zM16 21.333c-2.947 0-5.333-2.387-5.333-5.333s2.387-5.333 5.333-5.333 5.333 2.387 5.333 5.333-2.387 5.333-5.333 5.333zM26.461 7.46c0 1.060-0.861 1.92-1.92 1.92-1.060 0-1.92-0.861-1.92-1.92s0.861-1.919 1.92-1.919c1.057-0.001 1.92 0.86 1.92 1.919z"></path>
</symbol>
<symbol id="icon-home" viewBox="0 0 32 32">
<path d="M32 18.451l-16-12.42-16 12.42v-5.064l16-12.42 16 12.42zM28 18v12h-8v-8h-8v8h-8v-12l12-9z"></path>
</symbol>
<symbol id="icon-gallery" viewBox="0 0 36 32">
<path d="M34 4h-2v-2c0-1.1-0.9-2-2-2h-28c-1.1 0-2 0.9-2 2v24c0 1.1 0.9 2 2 2h2v2c0 1.1 0.9 2 2 2h28c1.1 0 2-0.9 2-2v-24c0-1.1-0.9-2-2-2zM4 6v20h-1.996c-0.001-0.001-0.003-0.002-0.004-0.004v-23.993c0.001-0.001 0.002-0.003 0.004-0.004h27.993c0.001 0.001 0.003 0.002 0.004 0.004v1.996h-24c-1.1 0-2 0.9-2 2v0zM34 29.996c-0.001 0.001-0.002 0.003-0.004 0.004h-27.993c-0.001-0.001-0.003-0.002-0.004-0.004v-23.993c0.001-0.001 0.002-0.003 0.004-0.004h27.993c0.001 0.001 0.003 0.002 0.004 0.004v23.993z"></path>
<path d="M30 11c0 1.657-1.343 3-3 3s-3-1.343-3-3 1.343-3 3-3 3 1.343 3 3z"></path>
<path d="M32 28h-24v-4l7-12 8 10h2l7-6z"></path>
</symbol>
<symbol id="icon-info" viewBox="0 0 32 32">
<path d="M14 9.5c0-0.825 0.675-1.5 1.5-1.5h1c0.825 0 1.5 0.675 1.5 1.5v1c0 0.825-0.675 1.5-1.5 1.5h-1c-0.825 0-1.5-0.675-1.5-1.5v-1z"></path>
<path d="M20 24h-8v-2h2v-6h-2v-2h6v8h2z"></path>
<path d="M16 0c-8.837 0-16 7.163-16 16s7.163 16 16 16 16-7.163 16-16-7.163-16-16-16zM16 29c-7.18 0-13-5.82-13-13s5.82-13 13-13 13 5.82 13 13-5.82 13-13 13z"></path>
</symbol>
<symbol id="icon-contact" viewBox="0 0 32 32">
<path d="M22 20c-2 2-2 4-4 4s-4-2-6-4-4-4-4-6 2-2 4-4-4-8-6-8-6 6-6 6c0 4 4.109 12.109 8 16s12 8 16 8c0 0 6-4 6-6s-6-8-8-6z"></path>
</symbol>
<symbol id="icon-address-book" viewBox="0 0 32 32">
<path d="M6 0v32h24v-32h-24zM18 8.010c2.203 0 3.99 1.786 3.99 3.99s-1.786 3.99-3.99 3.99-3.99-1.786-3.99-3.99 1.786-3.99 3.99-3.99v0zM24 24h-12v-2c0-2.209 1.791-4 4-4v0h4c2.209 0 4 1.791 4 4v2z"></path>
<path d="M2 2h3v6h-3v-6z"></path>
<path d="M2 10h3v6h-3v-6z"></path>
<path d="M2 18h3v6h-3v-6z"></path>
<path d="M2 26h3v6h-3v-6z"></path>
</symbol>
<symbol id="icon-chat-bubble-dots" viewBox="0 0 20 20">
<path d="M10 15l-4 4v-4h-4c-1.105 0-2-0.895-2-2v0-10c0-1.1 0.9-2 2-2h16c1.105 0 2 0.895 2 2v0 10c0 1.105-0.895 2-2 2v0h-8zM5 7v2h2v-2h-2zM9 7v2h2v-2h-2zM13 7v2h2v-2h-2z"></path>
</symbol>
<symbol id="icon-modern" viewBox="0 0 100 125">
<path d="M90,9H10a1,1,0,0,0-1,1V90a1,1,0,0,0,1,1H90a1,1,0,0,0,1-1V10A1,1,0,0,0,90,9ZM89,65.36542l-7.43549,3.499a9.97787,9.97787,0,0,0-17.91644,1.62579L45.95,65.80505a6.93475,6.93475,0,0,0-3.15723-6.67993l3.97437-8.67169A9.93677,9.93677,0,0,0,58.132,46.79828l9.024,5.15692A3.9476,3.9476,0,0,0,67,53a4.016,4.016,0,1,0,1.13922-2.78625L59.1283,45.06427a9.85273,9.85273,0,0,0,.62115-6.2597l11.00177-3.6673a7.103,7.103,0,1,0-.63458-1.89685L59.11475,36.90771a10.05707,10.05707,0,0,0-4.27851-4.65435l3.56336-8.31409A3.951,3.951,0,0,0,59,24a4,4,0,1,0-2.2287-7.31927L50.38055,11H89ZM73,66a8,8,0,1,1-8,8A8.00917,8.00917,0,0,1,73,66ZM39,70a5,5,0,1,1,5-5A5.00588,5.00588,0,0,1,39,70ZM11,39.29218l8.79083-8.71235A6.97044,6.97044,0,0,0,29.37238,29.48l11.64038,7.16327a9.76937,9.76937,0,0,0-.8465,6.12647l-7.73395,2.20953a3.988,3.988,0,1,0-5.19311,5.59424L22.80206,72.02A3.995,3.995,0,0,0,19,76c0,.0376.01007.07239.01111.10974L11,78.42059ZM24,30a5,5,0,1,1,5-5A5.00588,5.00588,0,0,1,24,30ZM58,41a8,8,0,1,1-8-8A8.00917,8.00917,0,0,1,58,41ZM29,49a2,2,0,1,1,2-2A2.002,2.002,0,0,1,29,49ZM21,76a2,2,0,1,1,2,2A2.002,2.002,0,0,1,21,76Zm4.6087-3.00739a3.99168,3.99168,0,0,0-.8479-.56616L29.19794,50.98A3.995,3.995,0,0,0,33,47c0-.03424-.00928-.066-.01013-.1l7.72534-2.20709a10.04519,10.04519,0,0,0,4.23517,4.92395L40.976,58.28864a6.98536,6.98536,0,0,0-8.24475,9.80725ZM71,51a2,2,0,1,1-2,2A2.002,2.002,0,0,1,71,51Zm1-19a5,5,0,1,1,5,5A5.00588,5.00588,0,0,1,72,32ZM57,20a2,2,0,1,1,2,2A2.002,2.002,0,0,1,57,20Zm-9.63055-9,8.08532,7.18707a3.916,3.916,0,0,0,1.108,4.96179l-3.56262,8.31232a9.9689,9.9689,0,0,0-10.93738,3.48029L30.42206,27.778a7.00238,7.00238,0,1,0-12.03949,1.38092L11,36.47565V11ZM11,89V80.5025l8.57257-2.47284a3.98046,3.98046,0,0,0,7.17291-3.39129l7.12091-4.89569a6.94976,6.94976,0,0,0,8.2298,1.52594l4.89649,7.12268a4.06578,4.06578,0,1,0,1.64569-1.13678L43.743,70.13336a7.02222,7.02222,0,0,0,1.69775-2.394l17.69593,4.68451a9.99677,9.99677,0,1,0,19.28216-1.75116L89,67.57574V89ZM50,79a2,2,0,1,1-2,2A2.002,2.002,0,0,1,50,79Z"/>
</symbol>
<symbol id="icon-culture" viewBox="0 0 512 640">
<g><g><g><g><g><path d="M302.267,416.333c-1.104,0-2-0.896-2-2V135.667c0-1.104,0.896-2,2-2s2,0.896,2,2v278.666       C304.267,415.438,303.371,416.333,302.267,416.333z"/></g><g><path d="M272.267,422c-1.104,0-2-0.896-2-2V135.667c0-1.104,0.896-2,2-2s2,0.896,2,2V420       C274.267,421.104,273.371,422,272.267,422z"/></g><g><path d="M242.267,422c-1.104,0-2-0.896-2-2V135.667c0-1.104,0.896-2,2-2s2,0.896,2,2V420       C244.267,421.104,243.371,422,242.267,422z"/></g><g><path d="M212.267,416.333c-1.104,0-2-0.896-2-2V135.667c0-1.104,0.896-2,2-2s2,0.896,2,2v278.666       C214.267,415.438,213.371,416.333,212.267,416.333z"/></g></g><g><path d="M256.001,492.333c-0.476,0-0.951-0.001-1.428-0.005c-25.514-0.186-50.299-5.354-73.666-15.363      c-1.016-0.435-1.486-1.61-1.051-2.626c0.435-1.015,1.61-1.483,2.626-1.051c22.876,9.799,47.141,14.859,72.12,15.04      c0.467,0.004,0.933,0.005,1.398,0.005c76.171,0,144.318-45.434,173.615-115.747c0.424-1.02,1.592-1.501,2.615-1.077      c1.02,0.425,1.501,1.596,1.076,2.615C403.389,445.934,333.791,492.333,256.001,492.333z M155.182,463.198      c-0.365,0-0.733-0.1-1.065-0.309c-27.015-17.033-49.604-40.715-65.329-68.484C72.571,365.766,64,333.233,64,300.324l0.001-0.668      c0.113-32.766,11.297-66.99,33.241-101.721c0.367-0.58,1.005-0.932,1.691-0.932l76-0.004c0.652,0,1.264,0.318,1.638,0.853      s0.465,1.218,0.242,1.831c-1.837,5.054-6.238,9.637-10.122,13.681c-0.896,0.932-1.767,1.84-2.575,2.72      c-21.14,23.041-32.782,52.961-32.782,84.249c-0.001,26.246,8.06,51.352,23.31,72.603c0.645,0.897,0.438,2.147-0.459,2.791      c-0.897,0.645-2.146,0.438-2.791-0.459c-15.74-21.935-24.061-47.847-24.06-74.935c0-32.292,12.016-63.173,33.835-86.953      c0.828-0.901,1.721-1.831,2.638-2.787c2.85-2.967,6-6.247,7.961-9.593l-71.729,0.004c-21.15,33.765-31.928,66.955-32.037,98.668      L68,300.324c0,64.833,32.99,124.341,88.25,159.182c0.935,0.59,1.214,1.824,0.625,2.759      C156.495,462.868,155.846,463.198,155.182,463.198z M255.981,429c-0.437,0-0.874-0.002-1.313-0.007      c-30.397-0.308-59.795-11.419-82.776-31.286c-0.836-0.723-0.928-1.985-0.205-2.821c0.722-0.836,1.984-0.928,2.821-0.205      c22.266,19.249,50.749,30.015,80.203,30.313c0.426,0.005,0.848,0.007,1.27,0.007c68.61,0,124.544-55.808,124.685-124.404v-0.264      c0.001-3.543-0.149-7.126-0.448-10.651c-0.093-1.101,0.724-2.068,1.824-2.161c1.121-0.091,2.068,0.725,2.162,1.824      c0.308,3.637,0.463,7.334,0.462,10.989v0.267c-0.07,34.171-13.548,66.384-37.949,90.709C322.334,415.614,290.11,429,255.981,429      z M440.753,346.872c-0.155,0-0.313-0.018-0.469-0.056c-1.074-0.258-1.736-1.338-1.478-2.412      c3.446-14.347,5.193-29.175,5.193-44.071c0-34.093-10.199-68.414-29.506-99.329h-72.049c2.16,5.015,6.191,9.842,10.199,14.397      c11.423,12.986,19.978,27.847,25.428,44.169c0.35,1.048-0.217,2.181-1.264,2.53c-1.053,0.35-2.181-0.215-2.531-1.264      c-5.279-15.813-13.568-30.211-24.637-42.794c-4.982-5.664-10.011-11.757-11.962-18.481c-0.175-0.604-0.056-1.256,0.321-1.759      c0.378-0.503,0.971-0.799,1.6-0.799h76c0.687,0,1.324,0.352,1.69,0.932C437.381,229.731,448,265.14,448,300.333      c0,15.211-1.784,30.354-5.305,45.006C442.476,346.256,441.656,346.872,440.753,346.872z"/></g><g><path d="M415.6,201.004H383.69c-1.104,0-2-0.896-2-2s0.896-2,2-2H413.6v-80.799c0-0.714,0.381-1.374,0.998-1.731      c15.011-8.687,24.336-24.834,24.336-42.14c0-26.835-21.832-48.667-48.667-48.667S341.6,45.499,341.6,72.334v124.67h12.091      c1.104,0,2,0.896,2,2s-0.896,2-2,2H339.6c-1.104,0-2-0.896-2-2V72.334c0-29.041,23.626-52.667,52.667-52.667      s52.667,23.626,52.667,52.667c0,18.343-9.677,35.48-25.334,45.01v81.66C417.6,200.108,416.704,201.004,415.6,201.004z"/></g><g><path d="M174.934,201.004h-76c-1.104,0-2-0.896-2-2v-81.66c-15.656-9.529-25.333-26.668-25.333-45.01      c0-29.041,23.626-52.667,52.666-52.667c29.041,0,52.667,23.626,52.667,52.667v88.147c0,1.104-0.896,2-2,2s-2-0.896-2-2V72.334      c0-26.835-21.832-48.667-48.667-48.667S75.601,45.499,75.601,72.334c0,17.306,9.324,33.453,24.335,42.14      c0.617,0.357,0.998,1.018,0.998,1.731v80.799h72v-6.522c0-1.104,0.896-2,2-2s2,0.896,2,2v8.522      C176.934,200.108,176.038,201.004,174.934,201.004z"/></g><g><path d="M339.6,137.667H174.934c-1.104,0-2-0.896-2-2v-38c0-1.104,0.896-2,2-2h97.333c1.104,0,2,0.896,2,2s-0.896,2-2,2h-95.333      v34H337.6v-34h-35.333c-1.104,0-2-0.896-2-2s0.896-2,2-2H339.6c1.104,0,2,0.896,2,2v38      C341.6,136.771,340.704,137.667,339.6,137.667z"/></g><g><path d="M377.6,441.667c-0.512,0-1.023-0.195-1.414-0.586l-38-38c-0.781-0.78-0.781-2.047,0-2.828s2.047-0.781,2.828,0l38,38      c0.781,0.781,0.781,2.048,0,2.828C378.623,441.472,378.111,441.667,377.6,441.667z"/></g><g><path d="M340,402c-1.103,0-1.998-0.893-2-1.996l-0.4-200.996c-0.002-1.104,0.892-2.002,1.996-2.004c0.001,0,0.003,0,0.004,0      c1.103,0,1.998,0.893,2,1.996l0.4,200.996c0.002,1.104-0.892,2.002-1.996,2.004C340.003,402,340.001,402,340,402z"/></g><g><path d="M136.934,441.667c-0.512,0-1.024-0.195-1.414-0.586c-0.781-0.78-0.781-2.047,0-2.828l37.414-37.414V199.004      c0-1.104,0.896-2,2-2s2,0.896,2,2v202.663c0,0.53-0.211,1.039-0.586,1.414l-38,38      C137.957,441.472,137.445,441.667,136.934,441.667z"/></g></g></g></g>
</symbol>
<symbol id="icon-art" viewBox="0 0 96 120">
<path d="M73.726,63.142c-0.206-1.786,0.162-5.982,0.518-10.04c0.128-1.465,0.256-2.923,0.357-4.269  c0.333-4.413-3.055-6.437-5.088-6.961c-1.995-2.171-4.781-3.543-5.271-3.774c-0.362-0.284-0.767-0.571-1.228-0.866  c-2.88-1.844-8.961-11.091-9.713-12.245c-0.179-0.936-0.339-1.8-0.477-2.545c-0.164-0.884-0.298-1.611-0.401-2.112  c-0.221-1.083-0.843-1.966-1.799-2.555c-1.807-1.112-4.409-0.976-6.241-0.476c-1.805,0.492-6.56-0.213-9.402-0.635  c-1.696-0.251-2.599-0.377-3.041-0.359c-0.625,0.033-1.15,0.38-1.441,0.954c-0.326,0.642-0.336,1.512-0.071,2.504l-6.363-5.32  l-2.989,3.582l5.312,4.502c-0.246,0.009-0.489,0.017-0.766,0.05c-0.994,0.12-1.444,0.623-1.647,1.024  c-0.716,1.419,0.577,3.696,1.717,5.706c0.429,0.754,0.833,1.467,0.973,1.88c0.579,1.716,0.129,5.528-0.019,6.782  c-0.152,1.293,0.556,4.005,1.573,7.694c0.559,2.026,1.136,4.122,1.136,4.801c0,0.95,0.491,3.345,1.059,6.119  c0.534,2.604,1.138,5.555,1.138,6.547c0,2.153,7.186,15.151,8.626,17.734l0.215,0.385h34.265l-0.032-0.781  C74.599,79.866,74.018,65.661,73.726,63.142z M23.179,17.844l1.073-1.287l8.127,6.794c0.318,0.325,0.678,0.625,1.071,0.896  l7.049,5.893c0.086,0.384,0.179,0.787,0.28,1.224c0.129,0.558,0.263,1.143,0.395,1.734L23.179,17.844z M38.311,26.355l0.008-0.053  c0.627,0.164,1.179,0.282,1.581,0.358c0.01,0.317,0.055,0.695,0.124,1.126L38.311,26.355z M40.08,45.933  c-0.323-1.296-0.618-2.631-0.804-3.479c-0.352-1.599-0.486-2.182-0.606-2.446c-0.027-0.06-0.057-0.16-0.089-0.287l0.003-0.001  c-0.171-0.617-0.335-2.504-0.466-4.467c0.817,1.01,1.931,1.979,3.312,2.266C41.096,41.063,40.645,45.158,40.08,45.933z   M41.052,47.075c-0.06,0.581-0.124,1.14-0.195,1.593c-0.123-0.347-0.25-0.77-0.378-1.223c0.075-0.028,0.151-0.052,0.223-0.094  C40.827,47.279,40.942,47.186,41.052,47.075z M38.095,32.454l3.563,3.02c0.007,0.038,0.014,0.077,0.021,0.114l-0.072-0.006  c-0.013,0.139-0.026,0.285-0.039,0.428C39.832,35.539,38.57,33.392,38.095,32.454z M73.105,48.72  c-0.101,1.34-0.228,2.792-0.356,4.251c-0.379,4.322-0.736,8.405-0.513,10.342c0.247,2.133,0.728,13.358,0.856,16.437h-31.82  c-4.079-7.34-8.222-15.467-8.222-16.619c0-1.144-0.568-3.915-1.168-6.849c-0.505-2.467-1.028-5.019-1.028-5.817  c0-0.84-0.452-2.523-1.19-5.2c-0.739-2.681-1.659-6.018-1.53-7.12c0.274-2.318,0.566-5.612-0.049-7.437  c-0.186-0.549-0.604-1.287-1.089-2.142c-0.712-1.254-2.037-3.588-1.683-4.29c0.068-0.134,0.302-0.188,0.487-0.21  c2.306-0.276,3.008,0.435,4.066,1.513c0.24,0.244,0.489,0.498,0.766,0.751c1.368,1.253,3.959,4.042,4.459,4.582  c0.376,0.863,1.22,2.952,1.312,3.92c0.061,0.647,0.334,3.4,0.658,4.934c0,0,0,0,0,0.001c0.013,0.067,0.026,0.115,0.039,0.173  c0.014,0.061,0.027,0.131,0.041,0.18l0.001,0c0.053,0.209,0.107,0.382,0.161,0.501c0.078,0.195,0.307,1.236,0.51,2.155  c1.044,4.745,1.721,7.284,2.524,7.993c0.296,0.261,0.673,0.336,1.013,0.2c0.829-0.332,1.015-1.48,1.392-5.862  c0.166-1.924,0.337-3.914,0.63-5.131c0.48-2.002-0.375-5.694-1.129-8.952c-0.416-1.795-0.985-4.254-0.825-4.76l0.269-0.847  l-0.878-0.124c-1.318-0.187-4.469-0.903-6.469-2.261l-0.945-0.79c-0.149-0.159-0.287-0.322-0.399-0.494  c-1.376-2.11-1.36-3.416-1.16-3.811c0.061-0.12,0.117-0.132,0.183-0.135c0.303-0.017,1.545,0.167,2.743,0.345  c3.338,0.495,7.91,1.172,10.017,0.598c1.921-0.523,3.907-0.404,5.061,0.306c0.611,0.375,0.976,0.892,1.116,1.577  c0.102,0.495,0.234,1.212,0.396,2.085c0.765,4.133,2.189,11.826,3.982,15.903c1.925,4.374,1.542,6.174,0.848,9.442l-0.119,0.563  l1.468,0.309l0.119-0.56c0.709-3.336,1.178-5.541-0.942-10.357c-1.006-2.287-1.901-5.822-2.624-9.179  c2.3,3.323,5.93,8.255,8.125,9.661c2.991,1.914,3.273,3.172,3.273,6.023c0,2.961-0.507,7.562-0.513,7.608l1.491,0.166  c0.021-0.192,0.521-4.729,0.521-7.774c0-1.272-0.081-2.313-0.366-3.235c1.73,1.282,3.528,3.127,3.438,5.239  c-0.193,4.549-0.386,8.035-0.387,8.037l1.498,0.083c0,0,0.193-3.495,0.388-8.056c0.035-0.819-0.146-1.59-0.45-2.315  C72.2,45.062,73.278,46.425,73.105,48.72z"/><path d="M28.228,86.25c-1.236,0-2.242,1.006-2.242,2.242s1.006,2.242,2.242,2.242s2.242-1.006,2.242-2.242  S29.464,86.25,28.228,86.25z M28.228,90.234c-0.96,0-1.742-0.782-1.742-1.742s0.782-1.742,1.742-1.742s1.742,0.782,1.742,1.742  S29.188,90.234,28.228,90.234z"/><path d="M8.512,27.812L7.521,29.82l-2.216,0.322l1.604,1.563L6.53,33.912l1.982-1.042l1.982,1.042l-0.378-2.207l1.604-1.563  L9.503,29.82L8.512,27.812z M9.578,31.53l0.251,1.468l-1.318-0.692l-1.318,0.692l0.251-1.468l-1.066-1.04l1.474-0.214l0.659-1.335  l0.659,1.335l1.474,0.214L9.578,31.53z"/><path d="M26.923,11.03l1.368-0.719l1.368,0.719l-0.261-1.523l1.107-1.079l-1.53-0.223l-0.684-1.386l-0.684,1.386l-1.53,0.223  l1.107,1.079L26.923,11.03z M27.151,8.776l0.788-0.114l0.352-0.713l0.352,0.713l0.788,0.114l-0.57,0.556l0.134,0.784l-0.704-0.37  l-0.704,0.37l0.134-0.784L27.151,8.776z"/><path d="M87.086,69.95l1.368,0.719l-0.261-1.523l1.107-1.079l-1.53-0.223l-0.684-1.386l-0.684,1.386l-1.53,0.223l1.107,1.079  l-0.261,1.523L87.086,69.95z M85.947,68.416l0.788-0.114l0.352-0.713l0.352,0.713l0.788,0.114l-0.57,0.556l0.134,0.784l-0.704-0.37  l-0.704,0.37l0.134-0.784L85.947,68.416z"/><path d="M87.086,14.135l-0.902,2.777h-2.919l2.361,1.717l-0.902,2.776l2.362-1.716l2.362,1.716l-0.902-2.776l2.361-1.717h-2.919  L87.086,14.135z M87.958,18.438l0.539,1.658l-1.411-1.025l-1.411,1.025l0.539-1.658l-1.411-1.026h1.745l0.539-1.659l0.539,1.659  h1.745L87.958,18.438z"/><path d="M79.13,5.267c-1.236,0-2.242,1.006-2.242,2.242s1.006,2.242,2.242,2.242s2.242-1.006,2.242-2.242S80.367,5.267,79.13,5.267z   M79.13,9.251c-0.96,0-1.742-0.782-1.742-1.742s0.782-1.742,1.742-1.742s1.742,0.782,1.742,1.742S80.091,9.251,79.13,9.251z"/><path d="M88.623,47.2c-0.985,0-1.786,0.801-1.786,1.786s0.801,1.786,1.786,1.786s1.786-0.801,1.786-1.786S89.607,47.2,88.623,47.2z   M88.623,50.272c-0.709,0-1.286-0.577-1.286-1.286s0.577-1.286,1.286-1.286s1.286,0.577,1.286,1.286S89.332,50.272,88.623,50.272z"/><path d="M14.958,14.794c-1.302,0-2.361,1.059-2.361,2.361s1.059,2.361,2.361,2.361s2.361-1.059,2.361-2.361  S16.259,14.794,14.958,14.794z M14.958,19.016c-1.026,0-1.861-0.835-1.861-1.861s0.835-1.861,1.861-1.861s1.861,0.835,1.861,1.861  S15.983,19.016,14.958,19.016z"/><path d="M21.983,88.514c0.326,0.083,0.655,0.156,0.988,0.223l0.099-0.49c-0.325-0.065-0.646-0.138-0.964-0.217L21.983,88.514z"/><path d="M9.529,79.253c0.339,0.567,0.711,1.124,1.104,1.655l0.402-0.297c-0.383-0.519-0.746-1.062-1.077-1.615L9.529,79.253z"/><path d="M14.832,85.124c0.532,0.396,1.088,0.769,1.653,1.108l0.258-0.429c-0.551-0.331-1.093-0.695-1.612-1.081L14.832,85.124z"/><path d="M11.893,82.448c0.441,0.49,0.914,0.964,1.404,1.41l0.337-0.37c-0.478-0.435-0.939-0.897-1.37-1.375L11.893,82.448z"/><path d="M7.146,68.852c0-0.327,0.008-0.655,0.024-0.985l-0.499-0.024c-0.017,0.337-0.025,0.674-0.025,1.009  c0,0.328,0.008,0.655,0.024,0.98l0.499-0.024C7.153,69.49,7.146,69.171,7.146,68.852z"/><path d="M6.864,71.81c0.097,0.653,0.228,1.309,0.388,1.95l0.485-0.122c-0.157-0.625-0.285-1.265-0.379-1.901L6.864,71.81z"/><path d="M18.24,87.172c0.597,0.283,1.216,0.54,1.838,0.763l0.169-0.471c-0.607-0.217-1.21-0.468-1.793-0.744L18.24,87.172z"/><path d="M7.83,75.663C8.052,76.282,8.308,76.9,8.592,77.5l0.452-0.214c-0.277-0.585-0.527-1.188-0.743-1.792L7.83,75.663z"/><path d="M7.533,64.949l-0.49-0.098c-0.066,0.333-0.125,0.665-0.174,0.998l0.494,0.073C7.412,65.598,7.469,65.273,7.533,64.949z"/><path d="M89.182,76.982l0.498,0.046c0.031-0.336,0.05-0.675,0.057-1.017l-0.5-0.01C89.229,76.331,89.211,76.658,89.182,76.982z"/><path d="M85.817,84.731l0.374,0.332c0.493-0.555,0.944-1.152,1.342-1.773l-0.421-0.27C86.729,83.62,86.293,84.195,85.817,84.731z"/><path d="M88.121,81.128l0.459,0.199c0.295-0.679,0.538-1.387,0.721-2.104l-0.484-0.124C88.639,79.791,88.405,80.473,88.121,81.128z"/><path d="M78.523,88.985l0.104,0.489c0.723-0.154,1.439-0.368,2.131-0.636l-0.181-0.466C79.912,88.631,79.22,88.837,78.523,88.985z"/><path d="M82.51,87.441l0.252,0.432c0.639-0.373,1.253-0.8,1.826-1.27l-0.317-0.387C83.718,86.669,83.125,87.082,82.51,87.441z"/><path d="M75.408,89.28l-0.01,0.5c0.096,0.002,0.192,0.003,0.288,0.003c0.245,0,0.488-0.006,0.73-0.019l-0.025-0.499  C76.065,89.282,75.739,89.289,75.408,89.28z"/>
</symbol>
<symbol id="icon-spiritual" viewBox="0 0 64 80">
<path d="M28,40c-0.551,0-1-0.448-1-1h-2c0,1.654,1.346,3,3,3s3-1.346,3-3h-2C29,39.552,28.551,40,28,40z"/><path d="M39,39h-2c0,0.552-0.449,1-1,1s-1-0.448-1-1h-2c0,1.654,1.346,3,3,3S39,40.654,39,39z"/><path d="M57.131,51H54c0-0.553-0.448-1-1-1h-4.247c-2.363,0-4.673-0.444-6.951-1.356C40.733,48.217,39.609,48,38.459,48h-0.485  C40.412,46.175,42,43.273,42,40c0-5.514-4.486-10-10-10s-10,4.486-10,10c0,3.273,1.588,6.175,4.026,8h-0.485  c-1.149,0-2.274,0.217-3.428,0.678C19.92,49.556,17.61,50,15.247,50H11c-0.552,0-1,0.447-1,1H7.001  c-0.739,0-1.415,0.405-1.763,1.057s-0.311,1.438,0.1,2.055l0.072,0.107C6.153,55.334,7.398,56,8.739,56H10c0,0.553,0.448,1,1,1  h4.838c1.747,0,3.478-0.222,5.162-0.661V62h2v-7c0-0.321-0.154-0.623-0.415-0.812c-0.261-0.188-0.598-0.24-0.901-0.137  C19.795,54.681,17.828,55,15.838,55H12v-3h3.247c2.619,0,5.179-0.493,7.693-1.499c0.832-0.332,1.706-0.501,2.6-0.501h4.693  l-2.091,3.485c-0.176,0.293-0.19,0.656-0.037,0.962l3,6C31.275,60.786,31.621,61,32,61s0.725-0.214,0.895-0.553l3-6  c0.153-0.306,0.139-0.669-0.037-0.962L33.766,50h4.693c0.894,0,1.769,0.169,2.685,0.535c2.43,0.972,4.99,1.465,7.609,1.465H52v3  h-3.838c-1.99,0-3.957-0.319-5.846-0.948c-0.304-0.104-0.64-0.052-0.901,0.137C41.154,54.377,41,54.679,41,55v7h2v-5.661  C44.685,56.778,46.415,57,48.162,57H53c0.552,0,1-0.447,1-1h1.395c1.34,0,2.584-0.666,3.329-1.782l0.072-0.107  c0.411-0.615,0.449-1.401,0.1-2.054C58.546,51.405,57.871,51,57.131,51z M8.739,54c-0.67,0-1.292-0.333-1.665-0.893L7.001,53H10v1  H8.739z M32,32c2.701,0,5.088,1.349,6.538,3.404C36.501,34.487,34.289,34,32,34s-4.501,0.487-6.538,1.404  C26.912,33.349,29.299,32,32,32z M24,40c0-0.541,0.055-1.07,0.158-1.581C26.468,36.841,29.168,36,32,36s5.532,0.841,7.842,2.419  C39.945,38.93,40,39.459,40,40c0,4.411-3.589,8-8,8S24,44.411,24,40z M32,57.764l-1.86-3.72L32,50.943l1.86,3.101L32,57.764z   M57.059,53.109C56.687,53.667,56.065,54,55.395,54H54v-1l3.131,0.001L57.059,53.109z"/><path d="M44.799,37.602C46.893,34.815,48,31.495,48,28c0-8.822-7.178-16-16-16s-16,7.178-16,16c0,3.495,1.106,6.814,3.2,9.601  l1.599-1.201C18.968,33.962,18,31.058,18,28c0-7.72,6.28-14,14-14s14,6.28,14,14c0,3.059-0.968,5.963-2.799,8.4L44.799,37.602z"/><path d="M6,28c0,8.255,3.79,15.836,10.397,20.8l1.201-1.6C11.499,42.618,8,35.62,8,28C8,14.767,18.767,4,32,4s24,10.767,24,24  c0,7.62-3.5,14.619-9.601,19.202l1.201,1.6C54.209,43.837,58,36.255,58,28C58,13.663,46.336,2,32,2S6,13.663,6,28z"/><path d="M31.962,27.991C31.975,27.992,31.987,28,32,28c0.006,0,0.012-0.004,0.018-0.004c0.014,0.001,0.028,0.003,0.042,0.003  c0.052,0,0.1-0.02,0.151-0.028l1.42-0.157c3.276-0.365,5.819-2.908,6.183-6.183l0.18-1.59c0.034-0.303-0.071-0.604-0.287-0.819  s-0.517-0.325-0.82-0.286l-1.586,0.18c-0.824,0.091-1.607,0.34-2.334,0.703c-0.257-0.776-0.646-1.519-1.184-2.192l-1.001-1.252  c-0.379-0.475-1.183-0.475-1.562,0l-1.001,1.252c-0.538,0.673-0.928,1.416-1.184,2.192c-0.727-0.362-1.509-0.611-2.331-0.702  l-1.59-0.181c-0.302-0.039-0.604,0.071-0.82,0.286s-0.321,0.517-0.287,0.819l0.18,1.588c0.364,3.276,2.906,5.819,6.184,6.185  l1.459,0.163c0.024,0.004,0.052,0.007,0.08,0.009v0.001C31.927,27.99,31.945,27.99,31.962,27.991z M37.523,21.104l0.342-0.038  l-0.039,0.344c-0.228,2.047-1.647,3.695-3.565,4.249c0.713-1.153,1.075-2.445,1.059-3.744  C35.975,21.476,36.723,21.192,37.523,21.104z M31.779,18.877L32,18.601l0.221,0.276c1.471,1.839,1.471,4.407,0,6.246L32,25.399  l-0.221-0.276C30.309,23.284,30.309,20.716,31.779,18.877z M26.174,21.407l-0.039-0.342l0.345,0.039  c0.797,0.087,1.545,0.372,2.2,0.81c-0.016,1.298,0.346,2.59,1.058,3.743C27.82,25.103,26.401,23.456,26.174,21.407z"/>
</symbol>
<symbol id="icon-universe" viewBox="0 0 80 100">
<path d="M39.1743774,17.4599609c-7.7751465,0-14.8395386,4.2200317-18.5415039,11.03125  c-8.6658936,2.25-13.6328125,5.8908081-13.6328125,10.0263672c0,4.1129761,4.9440918,7.7484741,13.5697632,10.0097046  c3.6814575,6.8936157,10.7628784,11.1621704,18.6040649,11.1621704c7.8014526,0,14.8670044-4.2417603,18.5620728-11.0930176  c8.7854614-2.2497559,13.821228-5.9093628,13.821228-10.0788574c0-4.177063-5.0568237-7.8422241-13.8789063-10.0930176  C53.9666748,21.6536255,46.9240723,17.4599609,39.1743774,17.4599609z M39.1743774,19.4599609  c7.152832,0,13.6489258,3.9404297,16.9521484,10.2802734c1.4116211,2.7246094,2.1577148,5.7783203,2.1577148,8.8300781  c0,0.081665-0.0046997,0.1664429-0.0071411,0.2495728c-3.3936157,1.2407227-20.3782959,6.730896-38.2055664-0.0042114  c-0.0023804-0.0817261-0.007019-0.1651001-0.007019-0.2453613c0-3.0527344,0.7460938-6.1064453,2.1567383-8.828125  C25.5249634,23.3994141,32.0210571,19.4599609,39.1743774,19.4599609z M39.1738892,57.6894531  c-6.4754028,0-12.3770142-3.2182007-15.8937378-8.5204468c4.8410645,1.0217285,10.3170776,1.5604858,15.9987183,1.5604858  c5.5839233,0,10.9727783-0.5196533,15.7449951-1.5046997C51.4993286,54.4924316,45.6146851,57.6894531,39.1738892,57.6894531z   M69.5571899,38.5175781c0,3.1474609-4.8779297,6.3095703-12.7324219,8.2509766  c-5.1464844,1.2832031-11.2138672,1.9609375-17.5458984,1.9609375c-6.4296875,0-12.581543-0.7001953-17.7905273-2.0253906  c-7.703125-1.9501953-12.4882813-5.0878906-12.4882813-8.1865234c0-2.8355713,3.984375-5.6881714,10.5241699-7.6416626  c-0.9551392,2.4509888-1.4597168,5.071228-1.4597168,7.694397c0,0.2167969,0.0087891,0.4394531,0.0180664,0.6621094  l0.0053101,0.1356201c-0.0635376,0.4474487,0.1651001,0.895874,0.6040649,1.069458  c7.0908203,2.7939453,14.003418,3.7255859,20.0712891,3.7255859c11.5405273,0,20.005249-3.3638306,20.8422241-3.708374  c0.0187988-0.0072021,0.0366211-0.0139771,0.0548706-0.0222778c0.0012207-0.0004883,0.0055542-0.0022583,0.0067139-0.0027466  c0.0430298-0.0180664,0.0720215-0.0523071,0.111084-0.0753784c0.0600586-0.0383911,0.1251221-0.0692749,0.1757202-0.1192627  c0.2304077-0.2131958,0.3391113-0.5187988,0.3057861-0.8329468l0.0065308-0.1696777  c0.0092773-0.2226563,0.0180664-0.4453125,0.0180664-0.6621094c0-2.6484375-0.515564-5.2941284-1.4898071-7.767334  C65.4817505,32.7627563,69.5571899,35.6434326,69.5571899,38.5175781z"/><path d="M68.1675415,12.6269531c0-2.8994141-2.359375-5.2587891-5.2592773-5.2587891s-5.2592773,2.359375-5.2592773,5.2587891  s2.359375,5.2587891,5.2592773,5.2587891S68.1675415,15.5263672,68.1675415,12.6269531z M59.6489868,12.6269531  c0-1.796875,1.4619141-3.2587891,3.2592773-3.2587891s3.2592773,1.4619141,3.2592773,3.2587891  s-1.4619141,3.2587891-3.2592773,3.2587891S59.6489868,14.4238281,59.6489868,12.6269531z"/><path d="M14.7578735,57.6894531c-4.1201172,0-7.4716797,3.3515625-7.4716797,7.4716797  c0,4.1191406,3.3515625,7.4707031,7.4716797,7.4707031s7.4716797-3.3515625,7.4716797-7.4707031  C22.2295532,61.0410156,18.8779907,57.6894531,14.7578735,57.6894531z M14.7578735,70.6318359  c-3.0170898,0-5.4716797-2.4541016-5.4716797-5.4707031c0-3.0175781,2.4545898-5.4716797,5.4716797-5.4716797  s5.4716797,2.4541016,5.4716797,5.4716797C20.2295532,68.1777344,17.7749634,70.6318359,14.7578735,70.6318359z"/><path d="M66.7979126,68.4257813c0.0683594,0,0.1376953-0.0068359,0.2060547-0.0214844  c0.3725586-0.078125,0.668457-0.3613281,0.7626953-0.7304688L68.7236938,63.9375l3.6210938-1.3310547  c0.3574219-0.1308594,0.609375-0.4541016,0.6494141-0.8320313c0.0405273-0.3789063-0.137207-0.7470703-0.4589844-0.9511719  l-3.2583008-2.0654297l-0.1459961-3.8554688c-0.0146484-0.3798828-0.2436523-0.7197266-0.5913086-0.875  c-0.3481445-0.15625-0.7529297-0.1005859-1.0463867,0.1425781l-2.9707031,2.4619141l-3.7114258-1.0527344  c-0.3681641-0.1035156-0.7597656,0.0087891-1.0151367,0.2910156c-0.2548828,0.2832031-0.3276367,0.6855469-0.1875,1.0400391  l1.4223633,3.5859375l-2.1474609,3.2050781c-0.2119141,0.3164063-0.2260742,0.7255859-0.0361328,1.0556641  c0.1894531,0.3291016,0.5371094,0.5136719,0.9301758,0.4990234l3.8500977-0.2451172l2.3842773,3.0332031  C66.2036743,68.2880859,66.4946899,68.4257813,66.7979126,68.4257813z M64.0889282,62.9794922  c-0.0209961,0-0.0419922,0.0009766-0.0634766,0.0019531l-2.3525391,0.1494141l1.3120117-1.9580078  c0.1835938-0.2734375,0.2202148-0.6191406,0.0991211-0.9257813l-0.8691406-2.1914063l2.2675781,0.6435547  c0.3164063,0.0898438,0.6577148,0.0195313,0.9111328-0.1914063l1.8154297-1.5048828l0.0888672,2.3564453  c0.0126953,0.3291016,0.1860352,0.6298828,0.4643555,0.8066406l1.9912109,1.2617188l-2.2128906,0.8134766  c-0.309082,0.1132813-0.5424805,0.3710938-0.6240234,0.6904297l-0.5844727,2.2832031l-1.4570313-1.8535156  C64.6846313,63.1191406,64.3945923,62.9794922,64.0889282,62.9794922z"/>
</symbol>

<symbol id="icon-circle-up" viewBox="0 0 32 32">
<path d="M0 16c0 8.837 7.163 16 16 16s16-7.163 16-16-7.163-16-16-16-16 7.163-16 16zM29 16c0 7.18-5.82 13-13 13s-13-5.82-13-13 5.82-13 13-13 13 5.82 13 13z"></path>
<path d="M22.086 20.914l2.829-2.829-8.914-8.914-8.914 8.914 2.828 2.828 6.086-6.086z"></path>
</symbol>
</defs>
</svg>
