<svg xmlns="http://www.w3.org/2000/svg" data-name="Layer 1" viewBox="0 0 512 512" id="coaster"><path d="M70.532 405.438a7.5 7.5 0 0 0-12.656 8.05l6.387-3.932-6.372 3.955a7.5 7.5 0 0 0 12.744-7.91ZM88.4 427.365a7.5 7.5 0 0 0-10.276 10.926l5.216-5.389-5.194 5.41a7.5 7.5 0 1 0 10.388-10.82Zm-9.55-154.46a7.5 7.5 0 0 0-11.51-9.619l-.205.251a7.5 7.5 0 0 0 11.714 9.368ZM58.676 379.947l-.052-.159a7.5 7.5 0 0 0-14.254 4.671l7.159-2.237-7.147 2.274a7.5 7.5 0 0 0 14.294-4.549Zm42.281-137.03a7.499 7.499 0 0 0-10.477-1.655l-.151.112a7.5 7.5 0 1 0 10.628 1.543ZM46.394 360.079a7.5 7.5 0 0 0 7.046-7.928l-.012-.194a7.5 7.5 0 0 0-14.964 1.049l7.49-.414-7.488.44a7.5 7.5 0 0 0 7.48 7.06c.148 0 .298-.004.448-.013Zm229.342-36.403a7.5 7.5 0 0 0 14.758-2.684l-.031-.165a7.5 7.5 0 1 0-14.727 2.849Zm9.703 21.165a7.49 7.49 0 0 0-7.927 7.047l-.007.113a7.5 7.5 0 0 0 7.06 7.916c.146.008.29.012.435.012a7.501 7.501 0 0 0 7.481-7.073l.005-.087a7.5 7.5 0 0 0-7.047-7.928Zm-18.35-48.032a7.5 7.5 0 1 0 13.588-6.356l-.043-.09a7.5 7.5 0 1 0-13.587 6.355Zm-213.277 3.753a7.495 7.495 0 0 0 9.97-3.616l.081-.174a7.5 7.5 0 0 0-13.655-6.206l6.781 3.203-6.793-3.178a7.5 7.5 0 0 0 3.616 9.971Zm-7.428 29.298a7.492 7.492 0 0 0 8.775-5.958l.03-.165a7.5 7.5 0 0 0-14.756-2.688l7.359 1.445-7.367-1.408a7.5 7.5 0 0 0 5.959 8.774Zm235.373 44.98a7.55 7.55 0 1 0 4.826 9.564l.052-.159a7.486 7.486 0 0 0-4.878-9.405ZM111.29 444.295l-.256-.14a7.542 7.542 0 1 0 .256.14Zm-4.537 8.008.083-.154.757-1.329ZM212.449 225.61l-2.846 6.939 2.823-6.949a7.5 7.5 0 1 0-5.646 13.897l.188.075a7.5 7.5 0 0 0 5.481-13.962Zm7.452 218.541a7.5 7.5 0 1 0 7.152 13.186l.21-.116a7.5 7.5 0 1 0-7.362-13.07Zm22.67-16.818a7.5 7.5 0 1 0 10.267 10.936l.133-.127a7.5 7.5 0 1 0-10.4-10.809ZM512 312a25.028 25.028 0 0 0-25-25h-22.094a24.929 24.929 0 0 0 0-20H472a25 25 0 0 0 0-50H271.677a163.8 163.8 0 0 0-106.209-39.056C74.23 177.944 0 252.872 0 344.972a167.318 167.318 0 0 0 52.797 122.201A24.987 24.987 0 0 0 68 512h404a24.984 24.984 0 0 0 17.831-42.5 24.944 24.944 0 0 0 0-35 24.944 24.944 0 0 0 0-35 24.981 24.981 0 0 0-10.446-41.386 24.926 24.926 0 0 0 .521-21.114H487a25.028 25.028 0 0 0 25-25Zm-40-80a10 10 0 0 1 0 20H302.867a167.964 167.964 0 0 0-15.636-20Zm-20 45a10.011 10.011 0 0 1-10 10H320.652a166.978 166.978 0 0 0-8.89-20H442a10.011 10.011 0 0 1 10 10ZM68 497a9.997 9.997 0 0 1-3.113-19.497A165.385 165.385 0 0 0 96.964 497Zm6.697-30.863a7.503 7.503 0 0 0-4.904-3.912A152.402 152.402 0 0 1 15 344.972c0-83.828 67.5-152.028 150.468-152.028s150.468 68.2 150.468 152.028c0 83.829-67.5 152.028-150.468 152.028a148.692 148.692 0 0 1-90.77-30.863ZM472 497H233.972a165.422 165.422 0 0 0 32.726-20H472a10 10 0 0 1 0 20Zm0-35H283.407a167.96 167.96 0 0 0 16.67-20H472a10 10 0 0 1 0 20Zm0-35H309.562a167.122 167.122 0 0 0 9.536-20H472a10 10 0 0 1 0 20Zm10-45a10.011 10.011 0 0 1-10 10H324.248a166.956 166.956 0 0 0 4.51-20H457a24.856 24.856 0 0 0 9.873-2.036A7.466 7.466 0 0 0 472 372a10.011 10.011 0 0 1 10 10Zm-151.257-45H457a10 10 0 0 1 0 20H330.503c.282-3.974.433-7.983.433-12.028 0-2.673-.069-5.33-.193-7.972Zm-1.379-15a167.167 167.167 0 0 0-3.99-20H487a10 10 0 0 1 0 20Zm-56.284 91.456.102-.163a7.588 7.588 0 1 0-.102.163Zm-9.417-150.09a12.746 12.746 0 0 0-.098-.119 7.459 7.459 0 0 0-10.507-.98 7.525 7.525 0 1 0 10.605 1.1Zm-21.517-11.68a7.471 7.471 0 0 0-1.716-10.442l-4.496 6.003 4.482-6.013a7.5 7.5 0 1 0-8.964 12.026l.204.15a7.532 7.532 0 0 0 10.49-1.724Zm-92.659-34.138-.207.027a7.5 7.5 0 0 0 .967 14.936 7.612 7.612 0 0 0 .993-.065 7.5 7.5 0 0 0-1.753-14.898ZM137.54 454.853q-.164-.046-.33-.085a7.57 7.57 0 1 0 .33.085Zm-2.233 8.185.014-.059.245-.891Zm58.382-8.263a7.5 7.5 0 0 0 3.58 14.567q.165-.04.328-.085a7.5 7.5 0 0 0-3.908-14.482Zm-65.51-224.899a7.5 7.5 0 0 0-9.714-4.256l-.225.09a7.5 7.5 0 1 0 9.94 4.166Zm53.24-12.332-1.007 7.432.984-7.435a7.5 7.5 0 1 0-1.968 14.87l.207.027a7.632 7.632 0 0 0 .884.051 7.502 7.502 0 0 0 .9-14.945Zm-15.691 240.86h-.101a4.197 4.197 0 0 1-.159 0h-.1a7.5 7.5 0 0 0 0 15h.36a7.5 7.5 0 1 0 0-15Z"></path></svg>