<svg xmlns="http://www.w3.org/2000/svg" version="1.1" xmlns:xlink="http://www.w3.org/1999/xlink" xmlns:svgjs="http://svgjs.dev/svgjs" width="1500" height="318" viewBox="0 0 1500 318"><g transform="matrix(1,0,0,1,-0.9090909090909918,0.1522736822655304)"><svg viewBox="0 0 396 84" data-background-color="#ffffff" preserveAspectRatio="xMidYMid meet" height="318" width="1500" xmlns="http://www.w3.org/2000/svg" xmlns:xlink="http://www.w3.org/1999/xlink"><g id="tight-bounds" transform="matrix(1,0,0,1,0.2400000000000091,-0.04022323682485762)"><svg viewBox="0 0 395.52 84.08044647364972" height="84.08044647364972" width="395.52"><g><svg viewBox="0 0 531.4101580643606 112.96825280816195" height="84.08044647364972" width="395.52"><g><rect width="4.892506444637237" height="112.96825280816195" x="118.19004312590863" y="0" fill="#333333" opacity="1" stroke-width="0" stroke="transparent" fill-opacity="1" class="rect-qz-0" data-fill-palette-color="primary" rx="1%" id="qz-0" data-palette-color="#333333"></rect></g><g transform="matrix(1,0,0,1,135.89015806436063,9.41402106734683)"><svg viewBox="0 0 395.52 94.14021067346829" height="94.14021067346829" width="395.52"><g id="textblocktransform"><svg viewBox="0 0 395.52 94.14021067346829" height="94.14021067346829" width="395.52" id="textblock"><g><svg viewBox="0 0 395.52 54.25205651491366" height="54.25205651491366" width="395.52"><g transform="matrix(1,0,0,1,0,0)"><svg width="395.52" viewBox="3.4 -34.6 254.78 34.95" height="54.25205651491366" data-palette-color="#333333"><path d="M14.95-27.25L14.95-6.8Q16.25-6.8 17.23-7.08 18.2-7.35 19.07-8.08 19.95-8.8 20.5-10 21.05-11.2 21.38-13.08 21.7-14.95 21.7-17.5L21.7-17.5Q21.7-20.35 21.2-22.33 20.7-24.3 19.75-25.33 18.8-26.35 17.68-26.78 16.55-27.2 14.95-27.25L14.95-27.25ZM9.1-34.2L16.45-34.2Q24.25-34.2 28.98-29.7 33.7-25.2 33.7-17.3L33.7-17.3Q33.7-14.75 33.23-12.35 32.75-9.95 31.65-7.68 30.55-5.4 28.9-3.73 27.25-2.05 24.7-1.03 22.15 0 18.95 0L18.95 0 9.1 0Q6.05 0 4.73-1.55 3.4-3.1 3.4-7.15L3.4-7.15 3.4-28.25Q3.4-34.2 9.1-34.2L9.1-34.2ZM54.35-7L54.35-7Q56.05-7 57.27-8.5 58.5-10 59.02-12.2 59.55-14.4 59.55-16.9L59.55-16.9Q59.55-19.45 59-21.73 58.45-24 57.22-25.6 56-27.2 54.35-27.2L54.35-27.2Q52.75-27.2 51.55-25.6 50.35-24 49.75-21.7 49.15-19.4 49.15-16.9L49.15-16.9Q49.15-14.4 49.72-12.2 50.3-10 51.52-8.5 52.75-7 54.35-7ZM63.2-1.68Q59.25 0.3 54.32 0.3 49.4 0.3 45.47-1.68 41.55-3.65 39.2-7.6 36.85-11.55 36.85-16.9L36.85-16.9Q36.85-25 41.72-29.78 46.6-34.55 54.35-34.55 62.1-34.55 67-29.78 71.9-25 71.9-16.9L71.9-16.9Q71.9-11.55 69.52-7.6 67.15-3.65 63.2-1.68ZM95.59-25.6L95.59-7.5Q95.59-4.65 94.9-2.98 94.2-1.3 92.97-0.65 91.75 0 89.75 0L89.75 0Q86.8 0 85.47-1.58 84.15-3.15 84.09-7.15L84.09-7.15 84-25.6 79.75-25.6Q76.59-25.6 75.02-26.6 73.45-27.6 73.45-30.15L73.45-30.15Q73.45-31.7 74.07-32.6 74.7-33.5 75.95-33.88 77.2-34.25 79.3-34.25L79.3-34.25 100.7-34.25Q103.5-34.25 104.75-33.25 106-32.25 106-29.8L106-29.8Q106-28.15 105.27-27.23 104.55-26.3 103.34-25.95 102.15-25.6 100.25-25.6L100.25-25.6 95.59-25.6ZM122.64-34.6L122.64-34.6Q128.59-34.6 132.79-32.15 136.99-29.7 136.99-26.95L136.99-26.95Q136.99-26.2 136.67-25.68 136.34-25.15 135.87-24.93 135.39-24.7 134.84-24.7L134.84-24.7Q133.94-24.7 132.14-25.63 130.34-26.55 128.14-27.48 125.94-28.4 124.09-28.4L124.09-28.4Q121.14-28.4 121.14-26L121.14-26Q121.14-25.25 121.62-24.58 122.09-23.9 123.14-23.18 124.19-22.45 125.19-21.9 126.19-21.35 127.94-20.43 129.69-19.5 130.89-18.8L130.89-18.8Q134.74-16.6 136.29-14.6 137.84-12.6 137.84-10L137.84-10Q137.84 0.35 123.89 0.35L123.89 0.35Q121.14 0.35 118.57-0.2 115.99-0.75 114.07-1.65 112.14-2.55 110.67-3.65 109.19-4.75 108.44-5.9 107.69-7.05 107.69-8.05L107.69-8.05Q107.69-9.15 108.42-9.93 109.14-10.7 110.54-10.7L110.54-10.7Q111.59-10.7 115.59-9.38 119.59-8.05 122.04-8.05L122.04-8.05Q124.29-8.05 124.29-9.6L124.29-9.6Q124.29-10.05 124.12-10.43 123.94-10.8 123.52-11.18 123.09-11.55 122.57-11.88 122.04-12.2 121.12-12.7 120.19-13.2 119.27-13.7 118.34-14.2 116.84-15 115.34-15.8 113.94-16.6L113.94-16.6Q112.09-17.65 110.77-19.2 109.44-20.75 108.84-22.28 108.24-23.8 108.24-25.1L108.24-25.1Q108.24-29.3 111.99-31.95 115.74-34.6 122.64-34.6ZM171.64-26.1L171.64-26.1Q169.49-26.1 168.46-24.85 167.44-23.6 167.44-20.4L167.44-20.4 167.44-14.5 175.74-14.5 175.74-20.5Q175.74-22.6 175.24-23.88 174.74-25.15 173.86-25.63 172.99-26.1 171.64-26.1ZM175.74-4.95L175.74-7.6 167.44-7.6 167.44-4.95Q167.44-2.4 166.09-1.2 164.74 0 161.44 0L161.44 0Q160.04 0 159.14-0.4 158.24-0.8 157.56-1.75 156.89-2.7 156.56-4.53 156.24-6.35 156.06-8.93 155.89-11.5 155.89-15.45L155.89-15.45Q155.89-18.9 156.61-21.78 157.34-24.65 158.56-26.65 159.79-28.65 161.34-30.18 162.89-31.7 164.71-32.55 166.54-33.4 168.26-33.83 169.99-34.25 171.74-34.25L171.74-34.25Q173.84-34.25 175.89-33.68 177.94-33.1 180.04-31.7 182.14-30.3 183.71-28.23 185.29-26.15 186.29-22.85 187.29-19.55 187.29-15.45L187.29-15.45Q187.29-8.85 186.81-5.68 186.34-2.5 185.21-1.25 184.09 0 181.74 0L181.74 0Q178.44 0 177.09-1.2 175.74-2.4 175.74-4.95L175.74-4.95ZM211.54-24.3L211.54-24.3Q211.54-26.7 209.79-27.6 208.03-28.5 203.89-28.5L203.89-28.5 203.89-19.85Q207.78-19.85 209.66-20.83 211.54-21.8 211.54-24.3ZM203.89-12.35L203.89-7.5Q203.89 0 198.03 0L198.03 0Q195.09 0 193.71-1.58 192.34-3.15 192.34-7.15L192.34-7.15 192.34-28.25Q192.34-31.15 193.91-32.68 195.49-34.2 198.03-34.2L198.03-34.2 208.54-34.2Q214.69-34.2 218.49-31.33 222.29-28.45 222.29-23.95L222.29-23.95Q222.29-20.55 220.86-18.63 219.44-16.7 216.29-15.8L216.29-15.8Q218.69-15.65 220.74-13.48 222.79-11.3 222.79-8.05L222.79-8.05Q222.79-4.75 222.16-2.98 221.54-1.2 220.39-0.6 219.24 0 217.14 0L217.14 0Q214.19 0 212.81-1.23 211.44-2.45 211.44-4.95L211.44-4.95Q211.44-8.05 210.84-9.73 210.24-11.4 209.29-11.9 208.34-12.4 206.64-12.4L206.64-12.4 203.89-12.35ZM247.78-25.6L247.78-7.5Q247.78-4.65 247.08-2.98 246.38-1.3 245.16-0.65 243.93 0 241.93 0L241.93 0Q238.98 0 237.66-1.58 236.33-3.15 236.28-7.15L236.28-7.15 236.18-25.6 231.93-25.6Q228.78-25.6 227.21-26.6 225.63-27.6 225.63-30.15L225.63-30.15Q225.63-31.7 226.26-32.6 226.88-33.5 228.13-33.88 229.38-34.25 231.48-34.25L231.48-34.25 252.88-34.25Q255.68-34.25 256.93-33.25 258.18-32.25 258.18-29.8L258.18-29.8Q258.18-28.15 257.46-27.23 256.73-26.3 255.53-25.95 254.33-25.6 252.43-25.6L252.43-25.6 247.78-25.6Z" opacity="1" transform="matrix(1,0,0,1,0,0)" fill="#333333" class="wordmark-text-0" data-fill-palette-color="primary" id="text-0"></path></svg></g></svg></g><g transform="matrix(1,0,0,1,75.54432,67.05966500872842)"><svg viewBox="0 0 244.43135999999998 27.080545664739876" height="27.080545664739876" width="244.43135999999998"><g transform="matrix(1,0,0,1,0,0)"><svg width="244.43135999999998" viewBox="1.5 -39 363.26 40.25" height="27.080545664739876" data-palette-color="#333333"><path d="M30.55-31.9L30.4-2.9 33.7-1.8 33.4-0.3 22.1-0.35 22-1.95 25.8-2.9 25.9-16.35 9.65-16.35 8.9-2.9 12.85-1.65 13.2 0.35 2.1 0.15 1.95-1.25 5.75-2.65 4.9-32.4 1.5-33.65 1.7-35.1 12.85-35.1 13.2-33.25 9.75-32.3 9.65-20.85 26.2-18.9 26.7-31.95 23.45-33.05 23-34.4 33.55-35.1 34-34 30.55-31.9ZM52.1-13.1L47.85-12.95 42.25-9.2 42.1-3.6 44.1-2.55Q45.1-2.6 45.95-2.65L45.95-2.65Q46.65-2.7 47.22-2.78 47.8-2.85 47.8-2.95L47.8-2.95Q47.8-2.95 48-3.25 48.2-3.55 48.52-4.03 48.85-4.5 49.25-5.08 49.65-5.65 50.1-6.25L50.1-6.25Q51.1-7.65 52.45-9.45L52.45-9.45 52.1-13.1ZM39.4-22.8L44.65-26.45 55.95-23.8 56.15-3.25 60.4-2.95 60.45-0.65 54.25-0.05 52.15-4.45 49.55-0.35 41.1 1.25 38-2.5 38.2-10.1 46.75-15.65 52.05-16.35 52.45-21.8 44.1-22.9 41.65-18.65 38.9-21.55 39.4-22.8ZM91.35-6.6L94-3.55 85.65 0.65 82.65-0.9 82.65-16.1 81.1-20.65 77.3-21.05 71.55-12.7 71.55-2.45 74.25-1.65 73.85 0.25 64.75-0.15 64.35-1.25 67-2.45 67-20.65 63.65-22.55 66.25-26 70.85-21.05 71.55-16.45 76.55-24.45 83-24.1 86.8-17.25 86-3.9 86.8-3.2 91.35-6.6ZM110.99-9.1L111.24-19.95 105.39-22.15 100.04-20.4 98.74-10.6 103.19-3.25 106.04-3.9 110.99-9.1ZM120.84-0.9L112.84-0.25 110.79-4.8 107.49-0.35 99.89-0.8 94.84-10.9 97.84-22.6 105.09-25.5 111.79-22.75 112.04-35.25 115.19-39 117.99-36.7 115.89-34.95 115.04-3.1 119.84-4 120.84-0.9ZM140.14-4.1L141.34-0.2 133.59 0.2 123.84-3 123.44-15.35 127.69-23.9 134.74-26.3 140.14-23.2 137.44-16.15 135.89-16.95 137.44-21.6 135.49-23.2 135.49-23.2 129.64-20.45 126.94-14.25 127.69-5.3 133.59-3 140.14-4.1ZM158.54-24.8L162.09-20.6 159.04-18 156.39-21.85 152.34-20.5 151.14-17.85 151.34-2.85 154.29-1.9 153.99-0.15 145.14-0.15 144.99-1.5 147.34-2.45 147.29-22.45 144.84-23.85 146.99-26.6 150.64-24.25 150.94-22.55 153.49-23.55 158.54-24.8ZM178.19-13.1L173.94-12.95 168.34-9.2 168.19-3.6 170.19-2.55Q171.19-2.6 172.04-2.65L172.04-2.65Q172.74-2.7 173.31-2.78 173.89-2.85 173.89-2.95L173.89-2.95Q173.89-2.95 174.09-3.25 174.29-3.55 174.61-4.03 174.94-4.5 175.34-5.08 175.74-5.65 176.19-6.25L176.19-6.25Q177.19-7.65 178.54-9.45L178.54-9.45 178.19-13.1ZM165.49-22.8L170.74-26.45 182.04-23.8 182.24-3.25 186.49-2.95 186.54-0.65 180.34-0.05 178.24-4.45 175.64-0.35 167.19 1.25 164.09-2.5 164.29-10.1 172.84-15.65 178.14-16.35 178.54-21.8 170.19-22.9 167.74-18.65 164.99-21.55 165.49-22.8ZM199.03-32.9L196.58-29.65 196.53-24.35 203.38-25.3 203.68-22.65 196.58-21.9 197.38-2.6 200.28-2.55 201.08-0.15 191.23-0.3 190.98-1.95 193.38-2.3 192.93-19.1 192.98-21.05 189.53-21.5 189.68-23.3 192.68-24.25 192.73-30.7 197.68-36.05 205.73-34.75 204.88-32 199.03-32.9ZM223.43-4.3L223.43-1.55 215.23 0 211.33-3.85 211.33-9 211.33-21.9 208.93-21.5 206.98-21.05 206.63-23.45 210.18-24.6 210.88-24.6 210.88-29.3 210.18-30.9 214.43-30.9 214.83-26.55 214.83-24.95 221.83-25.8 221.83-21.9 214.83-22.25 214.83-5.8 217.18-3.15 223.43-4.3ZM249.58-2.1L252.53-1 252.63 0.5 243.08-0.25 243.03-1.7 246.48-2.8 245.63-32.75 241.98-34 242.08-35.35 252.78-35.45 253.08-33.65 249.73-32.65 249.58-2.1ZM272.27-4.3L272.27-1.55 264.07 0 260.17-3.85 260.17-9 260.17-21.9 257.77-21.5 255.82-21.05 255.47-23.45 259.02-24.6 259.72-24.6 259.72-29.3 259.02-30.9 263.27-30.9 263.67-26.55 263.67-24.95 270.67-25.8 270.67-21.9 263.67-22.25 263.67-5.8 266.02-3.15 272.27-4.3ZM280.07-13.2L280.12-13.4 291.82-15.25 290.42-21.8 287.07-23.05 280.52-20.85 280.07-13.2ZM283.22-25.7L290.27-25.15 294.27-21.65 295.72-13.05 280.07-10.55 282.77-2.6 288.67-2.75 295.67-4.85 296.07-0.9 281.97 1.1 275.82-8 276.52-20.85 283.22-25.7ZM341.92-8.45L344.12-5.8 337.87 0 333.77-0.75 333.32-20.7 330.27-22.6 323.07-17.55 323.47-15.5 323.97-2.75 326.47-1.55 326.22-0.35 317.07-0.1 317.27-1.4 319.77-2.6 319.47-19.5 317.42-22.7 312.92-20.55 308.07-15.75 308.52-2.7 311.67-1.65 311.42 0.15 301.92 0.05 301.77-1.35 304.02-2.25 304.37-21.9 300.57-24.45 302.77-28.15 307.02-24.75 307.32-19.65 313.87-24.85 321.57-24.6 322.47-19.9 330.42-24.85 335.67-23.95 337.52-19.9 336.77-3.5 338.12-3.4 341.92-8.45ZM346.76-24.7L355.01-26.1 360.62-23.8 362.62-25.75 364.76-24.25 360.97-19.15 359.17-20.85 350.97-22.8 348.31-19.7 351.76-14.85 361.81-12.35 363.22-3.85 356.62 0.25 347.81-1.75 346.62 0.3 344.12-0.15 345.81-5.4 356.01-3 359.17-5.35 357.97-9.55 347.26-13.2 344.37-19.15 346.76-24.7Z" opacity="1" transform="matrix(1,0,0,1,0,0)" fill="#333333" class="slogan-text-1" data-fill-palette-color="secondary" id="text-1"></path></svg></g></svg></g></svg></g></svg></g><g transform="matrix(1,0,0,1,0,3.792909088034037)"><svg viewBox="0 0 105.38243463209388 105.38243463209388" height="105.38243463209388" width="105.38243463209388"><g><svg xmlns="http://www.w3.org/2000/svg" xmlns:xlink="http://www.w3.org/1999/xlink" version="1.1" x="0" y="0" viewBox="7.537 7.537 84.92699999999999 84.92699999999999" enable-background="new 0 0 100 100" xml:space="preserve" height="105.38243463209388" width="105.38243463209388" class="icon-icon-0" data-fill-palette-color="accent" id="icon-0"></svg></g></svg></g></svg></g><defs></defs><mask id="67934d9f-6564-4285-a43e-29cbff1715ec"><g id="SvgjsG1630"><svg viewBox="0 0 395.52 84.08044647364972" height="84.08044647364972" width="395.52"><g><svg viewBox="0 0 531.4101580643606 112.96825280816195" height="84.08044647364972" width="395.52"><g><rect width="4.892506444637237" height="112.96825280816195" x="118.19004312590863" y="0" fill="black" opacity="1" stroke-width="0" stroke="transparent" fill-opacity="1" class="rect-qz-0" rx="1%" id="SvgjsRect1629" data-palette-color="#333333"></rect></g><g transform="matrix(1,0,0,1,135.89015806436063,9.41402106734683)"><svg viewBox="0 0 395.52 94.14021067346829" height="94.14021067346829" width="395.52"><g id="SvgjsG1628"><svg viewBox="0 0 395.52 94.14021067346829" height="94.14021067346829" width="395.52" id="SvgjsSvg1627"><g><svg viewBox="0 0 395.52 54.25205651491366" height="54.25205651491366" width="395.52"><g transform="matrix(1,0,0,1,0,0)"><svg width="395.52" viewBox="3.4 -34.6 254.78 34.95" height="54.25205651491366" data-palette-color="#333333"><path d="M14.95-27.25L14.95-6.8Q16.25-6.8 17.23-7.08 18.2-7.35 19.07-8.08 19.95-8.8 20.5-10 21.05-11.2 21.38-13.08 21.7-14.95 21.7-17.5L21.7-17.5Q21.7-20.35 21.2-22.33 20.7-24.3 19.75-25.33 18.8-26.35 17.68-26.78 16.55-27.2 14.95-27.25L14.95-27.25ZM9.1-34.2L16.45-34.2Q24.25-34.2 28.98-29.7 33.7-25.2 33.7-17.3L33.7-17.3Q33.7-14.75 33.23-12.35 32.75-9.95 31.65-7.68 30.55-5.4 28.9-3.73 27.25-2.05 24.7-1.03 22.15 0 18.95 0L18.95 0 9.1 0Q6.05 0 4.73-1.55 3.4-3.1 3.4-7.15L3.4-7.15 3.4-28.25Q3.4-34.2 9.1-34.2L9.1-34.2ZM54.35-7L54.35-7Q56.05-7 57.27-8.5 58.5-10 59.02-12.2 59.55-14.4 59.55-16.9L59.55-16.9Q59.55-19.45 59-21.73 58.45-24 57.22-25.6 56-27.2 54.35-27.2L54.35-27.2Q52.75-27.2 51.55-25.6 50.35-24 49.75-21.7 49.15-19.4 49.15-16.9L49.15-16.9Q49.15-14.4 49.72-12.2 50.3-10 51.52-8.5 52.75-7 54.35-7ZM63.2-1.68Q59.25 0.3 54.32 0.3 49.4 0.3 45.47-1.68 41.55-3.65 39.2-7.6 36.85-11.55 36.85-16.9L36.85-16.9Q36.85-25 41.72-29.78 46.6-34.55 54.35-34.55 62.1-34.55 67-29.78 71.9-25 71.9-16.9L71.9-16.9Q71.9-11.55 69.52-7.6 67.15-3.65 63.2-1.68ZM95.59-25.6L95.59-7.5Q95.59-4.65 94.9-2.98 94.2-1.3 92.97-0.65 91.75 0 89.75 0L89.75 0Q86.8 0 85.47-1.58 84.15-3.15 84.09-7.15L84.09-7.15 84-25.6 79.75-25.6Q76.59-25.6 75.02-26.6 73.45-27.6 73.45-30.15L73.45-30.15Q73.45-31.7 74.07-32.6 74.7-33.5 75.95-33.88 77.2-34.25 79.3-34.25L79.3-34.25 100.7-34.25Q103.5-34.25 104.75-33.25 106-32.25 106-29.8L106-29.8Q106-28.15 105.27-27.23 104.55-26.3 103.34-25.95 102.15-25.6 100.25-25.6L100.25-25.6 95.59-25.6ZM122.64-34.6L122.64-34.6Q128.59-34.6 132.79-32.15 136.99-29.7 136.99-26.95L136.99-26.95Q136.99-26.2 136.67-25.68 136.34-25.15 135.87-24.93 135.39-24.7 134.84-24.7L134.84-24.7Q133.94-24.7 132.14-25.63 130.34-26.55 128.14-27.48 125.94-28.4 124.09-28.4L124.09-28.4Q121.14-28.4 121.14-26L121.14-26Q121.14-25.25 121.62-24.58 122.09-23.9 123.14-23.18 124.19-22.45 125.19-21.9 126.19-21.35 127.94-20.43 129.69-19.5 130.89-18.8L130.89-18.8Q134.74-16.6 136.29-14.6 137.84-12.6 137.84-10L137.84-10Q137.84 0.35 123.89 0.35L123.89 0.35Q121.14 0.35 118.57-0.2 115.99-0.75 114.07-1.65 112.14-2.55 110.67-3.65 109.19-4.75 108.44-5.9 107.69-7.05 107.69-8.05L107.69-8.05Q107.69-9.15 108.42-9.93 109.14-10.7 110.54-10.7L110.54-10.7Q111.59-10.7 115.59-9.38 119.59-8.05 122.04-8.05L122.04-8.05Q124.29-8.05 124.29-9.6L124.29-9.6Q124.29-10.05 124.12-10.43 123.94-10.8 123.52-11.18 123.09-11.55 122.57-11.88 122.04-12.2 121.12-12.7 120.19-13.2 119.27-13.7 118.34-14.2 116.84-15 115.34-15.8 113.94-16.6L113.94-16.6Q112.09-17.65 110.77-19.2 109.44-20.75 108.84-22.28 108.24-23.8 108.24-25.1L108.24-25.1Q108.24-29.3 111.99-31.95 115.74-34.6 122.64-34.6ZM171.64-26.1L171.64-26.1Q169.49-26.1 168.46-24.85 167.44-23.6 167.44-20.4L167.44-20.4 167.44-14.5 175.74-14.5 175.74-20.5Q175.74-22.6 175.24-23.88 174.74-25.15 173.86-25.63 172.99-26.1 171.64-26.1ZM175.74-4.95L175.74-7.6 167.44-7.6 167.44-4.95Q167.44-2.4 166.09-1.2 164.74 0 161.44 0L161.44 0Q160.04 0 159.14-0.4 158.24-0.8 157.56-1.75 156.89-2.7 156.56-4.53 156.24-6.35 156.06-8.93 155.89-11.5 155.89-15.45L155.89-15.45Q155.89-18.9 156.61-21.78 157.34-24.65 158.56-26.65 159.79-28.65 161.34-30.18 162.89-31.7 164.71-32.55 166.54-33.4 168.26-33.83 169.99-34.25 171.74-34.25L171.74-34.25Q173.84-34.25 175.89-33.68 177.94-33.1 180.04-31.7 182.14-30.3 183.71-28.23 185.29-26.15 186.29-22.85 187.29-19.55 187.29-15.45L187.29-15.45Q187.29-8.85 186.81-5.68 186.34-2.5 185.21-1.25 184.09 0 181.74 0L181.74 0Q178.44 0 177.09-1.2 175.74-2.4 175.74-4.95L175.74-4.95ZM211.54-24.3L211.54-24.3Q211.54-26.7 209.79-27.6 208.03-28.5 203.89-28.5L203.89-28.5 203.89-19.85Q207.78-19.85 209.66-20.83 211.54-21.8 211.54-24.3ZM203.89-12.35L203.89-7.5Q203.89 0 198.03 0L198.03 0Q195.09 0 193.71-1.58 192.34-3.15 192.34-7.15L192.34-7.15 192.34-28.25Q192.34-31.15 193.91-32.68 195.49-34.2 198.03-34.2L198.03-34.2 208.54-34.2Q214.69-34.2 218.49-31.33 222.29-28.45 222.29-23.95L222.29-23.95Q222.29-20.55 220.86-18.63 219.44-16.7 216.29-15.8L216.29-15.8Q218.69-15.65 220.74-13.48 222.79-11.3 222.79-8.05L222.79-8.05Q222.79-4.75 222.16-2.98 221.54-1.2 220.39-0.6 219.24 0 217.14 0L217.14 0Q214.19 0 212.81-1.23 211.44-2.45 211.44-4.95L211.44-4.95Q211.44-8.05 210.84-9.73 210.24-11.4 209.29-11.9 208.34-12.4 206.64-12.4L206.64-12.4 203.89-12.35ZM247.78-25.6L247.78-7.5Q247.78-4.65 247.08-2.98 246.38-1.3 245.16-0.65 243.93 0 241.93 0L241.93 0Q238.98 0 237.66-1.58 236.33-3.15 236.28-7.15L236.28-7.15 236.18-25.6 231.93-25.6Q228.78-25.6 227.21-26.6 225.63-27.6 225.63-30.15L225.63-30.15Q225.63-31.7 226.26-32.6 226.88-33.5 228.13-33.88 229.38-34.25 231.48-34.25L231.48-34.25 252.88-34.25Q255.68-34.25 256.93-33.25 258.18-32.25 258.18-29.8L258.18-29.8Q258.18-28.15 257.46-27.23 256.73-26.3 255.53-25.95 254.33-25.6 252.43-25.6L252.43-25.6 247.78-25.6Z" opacity="1" transform="matrix(1,0,0,1,0,0)" fill="black" class="wordmark-text-0" id="SvgjsPath1626"></path></svg></g></svg></g><g transform="matrix(1,0,0,1,75.54432,67.05966500872842)"><svg viewBox="0 0 244.43135999999998 27.080545664739876" height="27.080545664739876" width="244.43135999999998"><g transform="matrix(1,0,0,1,0,0)"><svg width="244.43135999999998" viewBox="1.5 -39 363.26 40.25" height="27.080545664739876" data-palette-color="#333333"><path d="M30.55-31.9L30.4-2.9 33.7-1.8 33.4-0.3 22.1-0.35 22-1.95 25.8-2.9 25.9-16.35 9.65-16.35 8.9-2.9 12.85-1.65 13.2 0.35 2.1 0.15 1.95-1.25 5.75-2.65 4.9-32.4 1.5-33.65 1.7-35.1 12.85-35.1 13.2-33.25 9.75-32.3 9.65-20.85 26.2-18.9 26.7-31.95 23.45-33.05 23-34.4 33.55-35.1 34-34 30.55-31.9ZM52.1-13.1L47.85-12.95 42.25-9.2 42.1-3.6 44.1-2.55Q45.1-2.6 45.95-2.65L45.95-2.65Q46.65-2.7 47.22-2.78 47.8-2.85 47.8-2.95L47.8-2.95Q47.8-2.95 48-3.25 48.2-3.55 48.52-4.03 48.85-4.5 49.25-5.08 49.65-5.65 50.1-6.25L50.1-6.25Q51.1-7.65 52.45-9.45L52.45-9.45 52.1-13.1ZM39.4-22.8L44.65-26.45 55.95-23.8 56.15-3.25 60.4-2.95 60.45-0.65 54.25-0.05 52.15-4.45 49.55-0.35 41.1 1.25 38-2.5 38.2-10.1 46.75-15.65 52.05-16.35 52.45-21.8 44.1-22.9 41.65-18.65 38.9-21.55 39.4-22.8ZM91.35-6.6L94-3.55 85.65 0.65 82.65-0.9 82.65-16.1 81.1-20.65 77.3-21.05 71.55-12.7 71.55-2.45 74.25-1.65 73.85 0.25 64.75-0.15 64.35-1.25 67-2.45 67-20.65 63.65-22.55 66.25-26 70.85-21.05 71.55-16.45 76.55-24.45 83-24.1 86.8-17.25 86-3.9 86.8-3.2 91.35-6.6ZM110.99-9.1L111.24-19.95 105.39-22.15 100.04-20.4 98.74-10.6 103.19-3.25 106.04-3.9 110.99-9.1ZM120.84-0.9L112.84-0.25 110.79-4.8 107.49-0.35 99.89-0.8 94.84-10.9 97.84-22.6 105.09-25.5 111.79-22.75 112.04-35.25 115.19-39 117.99-36.7 115.89-34.95 115.04-3.1 119.84-4 120.84-0.9ZM140.14-4.1L141.34-0.2 133.59 0.2 123.84-3 123.44-15.35 127.69-23.9 134.74-26.3 140.14-23.2 137.44-16.15 135.89-16.95 137.44-21.6 135.49-23.2 135.49-23.2 129.64-20.45 126.94-14.25 127.69-5.3 133.59-3 140.14-4.1ZM158.54-24.8L162.09-20.6 159.04-18 156.39-21.85 152.34-20.5 151.14-17.85 151.34-2.85 154.29-1.9 153.99-0.15 145.14-0.15 144.99-1.5 147.34-2.45 147.29-22.45 144.84-23.85 146.99-26.6 150.64-24.25 150.94-22.55 153.49-23.55 158.54-24.8ZM178.19-13.1L173.94-12.95 168.34-9.2 168.19-3.6 170.19-2.55Q171.19-2.6 172.04-2.65L172.04-2.65Q172.74-2.7 173.31-2.78 173.89-2.85 173.89-2.95L173.89-2.95Q173.89-2.95 174.09-3.25 174.29-3.55 174.61-4.03 174.94-4.5 175.34-5.08 175.74-5.65 176.19-6.25L176.19-6.25Q177.19-7.65 178.54-9.45L178.54-9.45 178.19-13.1ZM165.49-22.8L170.74-26.45 182.04-23.8 182.24-3.25 186.49-2.95 186.54-0.65 180.34-0.05 178.24-4.45 175.64-0.35 167.19 1.25 164.09-2.5 164.29-10.1 172.84-15.65 178.14-16.35 178.54-21.8 170.19-22.9 167.74-18.65 164.99-21.55 165.49-22.8ZM199.03-32.9L196.58-29.65 196.53-24.35 203.38-25.3 203.68-22.65 196.58-21.9 197.38-2.6 200.28-2.55 201.08-0.15 191.23-0.3 190.98-1.95 193.38-2.3 192.93-19.1 192.98-21.05 189.53-21.5 189.68-23.3 192.68-24.25 192.73-30.7 197.68-36.05 205.73-34.75 204.88-32 199.03-32.9ZM223.43-4.3L223.43-1.55 215.23 0 211.33-3.85 211.33-9 211.33-21.9 208.93-21.5 206.98-21.05 206.63-23.45 210.18-24.6 210.88-24.6 210.88-29.3 210.18-30.9 214.43-30.9 214.83-26.55 214.83-24.95 221.83-25.8 221.83-21.9 214.83-22.25 214.83-5.8 217.18-3.15 223.43-4.3ZM249.58-2.1L252.53-1 252.63 0.5 243.08-0.25 243.03-1.7 246.48-2.8 245.63-32.75 241.98-34 242.08-35.35 252.78-35.45 253.08-33.65 249.73-32.65 249.58-2.1ZM272.27-4.3L272.27-1.55 264.07 0 260.17-3.85 260.17-9 260.17-21.9 257.77-21.5 255.82-21.05 255.47-23.45 259.02-24.6 259.72-24.6 259.72-29.3 259.02-30.9 263.27-30.9 263.67-26.55 263.67-24.95 270.67-25.8 270.67-21.9 263.67-22.25 263.67-5.8 266.02-3.15 272.27-4.3ZM280.07-13.2L280.12-13.4 291.82-15.25 290.42-21.8 287.07-23.05 280.52-20.85 280.07-13.2ZM283.22-25.7L290.27-25.15 294.27-21.65 295.72-13.05 280.07-10.55 282.77-2.6 288.67-2.75 295.67-4.85 296.07-0.9 281.97 1.1 275.82-8 276.52-20.85 283.22-25.7ZM341.92-8.45L344.12-5.8 337.87 0 333.77-0.75 333.32-20.7 330.27-22.6 323.07-17.55 323.47-15.5 323.97-2.75 326.47-1.55 326.22-0.35 317.07-0.1 317.27-1.4 319.77-2.6 319.47-19.5 317.42-22.7 312.92-20.55 308.07-15.75 308.52-2.7 311.67-1.65 311.42 0.15 301.92 0.05 301.77-1.35 304.02-2.25 304.37-21.9 300.57-24.45 302.77-28.15 307.02-24.75 307.32-19.65 313.87-24.85 321.57-24.6 322.47-19.9 330.42-24.85 335.67-23.95 337.52-19.9 336.77-3.5 338.12-3.4 341.92-8.45ZM346.76-24.7L355.01-26.1 360.62-23.8 362.62-25.75 364.76-24.25 360.97-19.15 359.17-20.85 350.97-22.8 348.31-19.7 351.76-14.85 361.81-12.35 363.22-3.85 356.62 0.25 347.81-1.75 346.62 0.3 344.12-0.15 345.81-5.4 356.01-3 359.17-5.35 357.97-9.55 347.26-13.2 344.37-19.15 346.76-24.7Z" opacity="1" transform="matrix(1,0,0,1,0,0)" fill="black" class="slogan-text-1" id="SvgjsPath1625"></path></svg></g></svg></g></svg></g></svg></g><g transform="matrix(1,0,0,1,0,3.792909088034037)"><svg viewBox="0 0 105.38243463209388 105.38243463209388" height="105.38243463209388" width="105.38243463209388"><g><svg xmlns="http://www.w3.org/2000/svg" xmlns:xlink="http://www.w3.org/1999/xlink" version="1.1" x="0" y="0" viewBox="7.537 7.537 84.92699999999999 84.92699999999999" enable-background="new 0 0 100 100" xml:space="preserve" height="105.38243463209388" width="105.38243463209388" class="icon-icon-0" data-fill-palette-color="accent" id="SvgjsSvg1624"><path d="M91.758 49.744c-1.858-0.674-3.394-2.006-4.323-3.751-1.07-2.01-2.859-3.484-5.038-4.148-2.179-0.664-4.485-0.441-6.496 0.63-1.157 0.616-2.162 1.502-2.924 2.568-0.423-0.195-0.872-0.336-1.338-0.418 0.306-0.389 0.552-0.818 0.736-1.281 1.606-0.915 2.954-2.278 3.854-3.98l0.154-0.291-0.314-0.097c-0.948-0.292-1.93-0.44-2.917-0.44-0.899 0-1.779 0.122-2.621 0.352-0.459-0.197-0.937-0.327-1.429-0.386 0.267-0.379 0.486-0.794 0.651-1.239 0.472 0.078 0.944 0.12 1.413 0.12 1.682 0 3.325-0.499 4.75-1.459 1.889-1.273 3.168-3.206 3.603-5.442 0.266-1.364 0.191-2.787-0.214-4.116-0.577-1.891-0.434-3.919 0.403-5.71l0.318-0.68-0.68 0.318c-1.791 0.837-3.819 0.98-5.71 0.404-4.497-1.372-9.272 1.171-10.645 5.668-0.383 1.254-0.47 2.593-0.255 3.887-0.439 0.165-0.855 0.385-1.237 0.653-0.059-0.497-0.189-0.979-0.39-1.442 0.485-1.766 0.485-3.679-0.085-5.53l-0.097-0.314-0.291 0.154c-1.713 0.906-3.064 2.258-3.971 3.85-0.466 0.185-0.898 0.432-1.289 0.739-0.08-0.453-0.218-0.901-0.418-1.335 1.782-1.273 2.991-3.146 3.411-5.305 0.435-2.236-0.027-4.507-1.301-6.396-0.776-1.152-1.836-2.106-3.062-2.759-1.745-0.929-3.078-2.464-3.752-4.323L50 7.537l-0.256 0.706c-0.674 1.858-2.006 3.394-3.751 4.323-4.15 2.21-5.729 7.384-3.519 11.534 0.616 1.157 1.502 2.162 2.568 2.925-0.196 0.426-0.335 0.876-0.417 1.338-0.392-0.308-0.825-0.556-1.292-0.741-0.906-1.592-2.258-2.944-3.971-3.85l-0.291-0.154-0.097 0.314c-0.57 1.851-0.57 3.764-0.085 5.53-0.199 0.46-0.33 0.94-0.389 1.434-0.376-0.264-0.791-0.483-1.239-0.649 0.36-2.16-0.11-4.34-1.339-6.163-1.273-1.889-3.206-3.168-5.442-3.603-1.364-0.265-2.788-0.191-4.116 0.214-1.891 0.577-3.919 0.434-5.71-0.404l-0.68-0.318 0.318 0.68c0.837 1.791 0.98 3.819 0.404 5.71-0.665 2.179-0.441 4.485 0.629 6.496 1.071 2.011 2.86 3.484 5.039 4.148 0.807 0.246 1.649 0.37 2.491 0.37 0.466 0 0.932-0.041 1.393-0.117 0.163 0.439 0.383 0.855 0.651 1.239-0.492 0.059-0.97 0.188-1.429 0.386-0.842-0.23-1.722-0.352-2.621-0.352-0.987 0-1.968 0.148-2.917 0.44l-0.314 0.097 0.154 0.291c0.9 1.702 2.247 3.065 3.854 3.979 0.185 0.463 0.43 0.892 0.735 1.28-0.46 0.082-0.91 0.221-1.336 0.417-2.672-3.737-7.867-4.694-11.7-2.109-1.152 0.777-2.106 1.835-2.759 3.062-0.929 1.745-2.464 3.077-4.323 3.751L7.537 50l0.706 0.257c1.858 0.674 3.394 2.007 4.323 3.752 1.532 2.877 4.488 4.518 7.541 4.518 1.351 0 2.721-0.321 3.994-0.999 1.157-0.616 2.162-1.503 2.925-2.568 0.423 0.194 0.871 0.336 1.337 0.418-0.306 0.389-0.552 0.818-0.736 1.281-1.606 0.914-2.954 2.278-3.854 3.979l-0.154 0.291 0.314 0.097c0.948 0.292 1.929 0.44 2.917 0.44 0 0 0 0 0 0 0.899 0 1.779-0.122 2.621-0.352 0.458 0.197 0.937 0.327 1.429 0.386-0.267 0.379-0.487 0.794-0.652 1.239-4.533-0.754-8.883 2.243-9.766 6.781-0.265 1.364-0.191 2.787 0.214 4.116 0.577 1.891 0.434 3.919-0.404 5.71l-0.318 0.68 0.68-0.318c1.791-0.837 3.819-0.98 5.71-0.403 2.178 0.665 4.485 0.441 6.496-0.63 2.01-1.07 3.483-2.859 4.148-5.038 0.383-1.255 0.47-2.594 0.255-3.887 0.439-0.165 0.855-0.385 1.237-0.653 0.059 0.497 0.19 0.979 0.39 1.441-0.485 1.767-0.485 3.679 0.085 5.53l0.097 0.314 0.291-0.154c1.712-0.905 3.064-2.258 3.971-3.85 0.466-0.185 0.898-0.432 1.289-0.739 0.08 0.453 0.218 0.901 0.417 1.336-3.737 2.672-4.694 7.867-2.11 11.7 0.777 1.152 1.835 2.106 3.062 2.759 1.745 0.93 3.077 2.465 3.751 4.323L50 92.464l0.257-0.706c0.674-1.858 2.007-3.394 3.752-4.323 4.149-2.209 5.729-7.384 3.519-11.534-0.616-1.156-1.502-2.16-2.566-2.923 0.107-0.234 0.2-0.479 0.274-0.729 0.06-0.201 0.106-0.404 0.143-0.607 0.392 0.307 0.823 0.554 1.289 0.738 0.906 1.592 2.258 2.944 3.971 3.85l0.291 0.154 0.097-0.314c0.57-1.852 0.57-3.764 0.085-5.53 0.199-0.46 0.33-0.939 0.39-1.434 0.376 0.264 0.791 0.483 1.239 0.648-0.753 4.532 2.243 8.883 6.781 9.766 1.363 0.266 2.787 0.191 4.116-0.214 1.891-0.577 3.919-0.434 5.71 0.403l0.68 0.318-0.318-0.68c-0.837-1.791-0.98-3.819-0.403-5.71 1.372-4.497-1.171-9.272-5.668-10.645-1.254-0.382-2.592-0.47-3.885-0.255-0.163-0.438-0.383-0.854-0.65-1.237 0.492-0.059 0.971-0.188 1.429-0.386 0.842 0.229 1.722 0.352 2.621 0.352 0.001 0 0.001 0 0.001 0 0.986 0 1.968-0.148 2.916-0.44l0.314-0.097-0.154-0.291c-0.899-1.701-2.247-3.065-3.854-3.979-0.185-0.463-0.43-0.892-0.734-1.28 0.459-0.082 0.909-0.221 1.335-0.417 1.273 1.781 3.146 2.99 5.305 3.41 0.549 0.106 1.099 0.159 1.646 0.159 1.682 0 3.325-0.499 4.75-1.46 1.152-0.776 2.106-1.836 2.759-3.062 0.93-1.745 2.465-3.078 4.323-3.752L92.464 50 91.758 49.744zM76.156 42.955c1.882-1.002 4.042-1.211 6.081-0.589 2.04 0.622 3.715 2.001 4.717 3.883 0.79 1.483 1.99 2.687 3.447 3.479H78.29c-1.201-0.392-2.193-1.218-2.796-2.33-0.482-0.889-1.189-1.608-2.029-2.103C74.173 44.326 75.097 43.52 76.156 42.955zM73.035 54.322c-0.718 0.39-1.526 0.596-2.338 0.596-1.808 0-3.466-0.986-4.327-2.575-0.469-0.866-1.153-1.572-1.979-2.07h12.603c-0.826 0.498-1.51 1.204-1.979 2.07C74.56 53.183 73.875 53.867 73.035 54.322zM58.014 54.918C58.013 54.918 58.013 54.918 58.014 54.918c-2.081 0-3.902-1.296-4.607-3.212l6.664 2.761c-0.284 0.13-0.58 0.234-0.886 0.31C58.8 54.87 58.405 54.918 58.014 54.918zM53.615 51.203c0.284-0.131 0.58-0.235 0.886-0.31 0.385-0.095 0.779-0.143 1.172-0.143 2.08 0 3.901 1.296 4.606 3.213L53.615 51.203zM55.673 50.206c-0.436 0-0.874 0.054-1.302 0.158-0.542 0.132-1.059 0.347-1.536 0.636l-0.171 0.104 0.048 0.194c0.6 2.452 2.779 4.165 5.301 4.165 0 0 0 0 0.001 0 0.065 0 0.131-0.004 0.197-0.006 0.206 0.226 0.398 0.463 0.577 0.711-0.252-0.024-0.506-0.04-0.761-0.04-0.003 0-0.006 0-0.009 0-0.739 0-1.465-0.201-2.099-0.581l-0.934-0.561 0.561 0.934c0.38 0.635 0.581 1.361 0.581 2.102 0 0.258 0.016 0.513 0.04 0.767-0.248-0.179-0.486-0.372-0.712-0.578 0.064-1.91-0.875-3.802-2.622-4.861-0.478-0.29-0.994-0.504-1.536-0.637l-0.194-0.048L51 52.835c-0.757 1.247-0.982 2.715-0.636 4.132 0.257 1.051 0.808 1.981 1.583 2.7-0.014 0.305-0.046 0.607-0.095 0.908-0.161-0.196-0.331-0.389-0.513-0.57-0.524-0.523-0.896-1.179-1.075-1.896L50 57.051l-0.264 1.058c-0.18 0.718-0.551 1.373-1.075 1.896-0.182 0.182-0.352 0.374-0.513 0.57-0.049-0.302-0.081-0.606-0.095-0.912 1.396-1.306 2.069-3.307 1.583-5.292-0.132-0.542-0.347-1.059-0.636-1.536l-0.104-0.171-0.194 0.048c-1.417 0.347-2.614 1.225-3.371 2.472-0.562 0.925-0.831 1.972-0.791 3.029-0.225 0.205-0.461 0.397-0.709 0.575 0.025-0.254 0.041-0.509 0.041-0.767 0-0.74 0.201-1.467 0.581-2.102l0.561-0.934-0.934 0.561c-0.634 0.38-1.359 0.581-2.099 0.581-0.002 0-0.005 0-0.008 0-0.255 0-0.509 0.016-0.761 0.04 0.179-0.248 0.372-0.486 0.579-0.712 0.063 0.002 0.125 0.006 0.188 0.006 0 0 0 0 0 0 1.927 0 3.674-0.982 4.673-2.628 0.29-0.478 0.503-0.994 0.636-1.536l0.047-0.194L47.166 51c-0.855-0.519-1.833-0.793-2.829-0.793-1.55 0-2.982 0.636-4.003 1.74-0.303-0.014-0.605-0.045-0.904-0.094 0.196-0.161 0.386-0.333 0.567-0.514 0.523-0.524 1.179-0.896 1.896-1.075L42.95 50l-1.057-0.264c-0.718-0.18-1.374-0.551-1.896-1.075-0.182-0.182-0.374-0.352-0.571-0.513 0.3-0.049 0.602-0.081 0.905-0.094 1.005 1.083 2.436 1.741 3.997 1.741 0 0 0 0 0 0 0.436 0 0.874-0.053 1.301-0.158 0.542-0.132 1.059-0.347 1.536-0.636l0.171-0.104-0.047-0.194c-0.6-2.453-2.78-4.165-5.301-4.165-0.066 0-0.132 0.003-0.198 0.006-0.207-0.225-0.399-0.463-0.578-0.711 0.252 0.025 0.506 0.041 0.761 0.041 0.002 0 0.005 0 0.008 0 0.739 0 1.465 0.201 2.099 0.581l0.934 0.561-0.561-0.934c-0.38-0.635-0.582-1.361-0.581-2.101 0-0.257-0.016-0.513-0.041-0.767 0.248 0.178 0.485 0.37 0.709 0.576-0.017 0.496 0.032 0.998 0.153 1.493 0.347 1.417 1.225 2.614 2.472 3.371 0.477 0.29 0.994 0.503 1.536 0.636l0.194 0.047L49 47.166c1.366-2.25 0.909-5.104-0.947-6.831 0.014-0.304 0.045-0.608 0.095-0.909 0.162 0.197 0.331 0.389 0.513 0.571 0.524 0.523 0.896 1.179 1.075 1.896L50 42.95l0.265-1.057c0.18-0.718 0.551-1.374 1.075-1.896 0.182-0.182 0.352-0.374 0.513-0.571 0.05 0.302 0.082 0.607 0.095 0.913-1.396 1.305-2.069 3.307-1.583 5.292 0.132 0.542 0.347 1.059 0.636 1.536l0.104 0.171 0.194-0.047c2.557-0.625 4.252-2.967 4.16-5.5 0.226-0.206 0.463-0.398 0.71-0.576-0.024 0.254-0.04 0.509-0.04 0.767 0 0.74-0.201 1.466-0.581 2.101l-0.561 0.934 0.934-0.561c0.634-0.38 1.359-0.581 2.099-0.581 0.003 0 0.006 0 0.009 0 0.255 0 0.509-0.016 0.761-0.041-0.179 0.249-0.372 0.487-0.578 0.712-0.063-0.002-0.125-0.006-0.188-0.006-1.927 0-3.674 0.982-4.673 2.628-0.29 0.477-0.504 0.994-0.637 1.536l-0.048 0.194L52.835 49c0.855 0.519 1.833 0.793 2.829 0.793l0 0c1.55 0 2.981-0.636 4.003-1.74 0.305 0.013 0.607 0.045 0.908 0.094-0.196 0.162-0.389 0.331-0.57 0.513-0.523 0.524-1.179 0.896-1.896 1.075L57.051 50l1.058 0.265c0.718 0.18 1.373 0.551 1.896 1.075 0.182 0.181 0.37 0.353 0.567 0.514-0.299 0.049-0.6 0.08-0.902 0.094C58.665 50.864 57.234 50.206 55.673 50.206zM63.232 69.345c-2.599-0.771-4.085-3.514-3.313-6.112 0.28-0.943 0.3-1.926 0.068-2.859l8.908 8.907c-0.938-0.229-1.936-0.211-2.863 0.064C65.122 69.615 64.142 69.615 63.232 69.345zM59.396 63.077c-0.05 0.17-0.091 0.34-0.124 0.51-1.637-1.37-2.602-3.417-2.6-5.565 0-0.37-0.045-0.738-0.132-1.096l2.526 2.526C59.64 60.579 59.757 61.864 59.396 63.077zM69.345 66.032c-0.28 0.942-0.299 1.925-0.068 2.859l-8.907-8.908c0.938 0.23 1.936 0.211 2.863-0.064 0.909-0.27 1.89-0.27 2.8 0C68.631 60.691 70.117 63.434 69.345 66.032zM63.077 59.396c-1.193 0.354-2.516 0.233-3.625-0.329l-2.526-2.526c0.356 0.086 0.723 0.132 1.093 0.132 0.004-0.001 0.006-0.001 0.009 0 2.146 0 4.192 0.965 5.562 2.603C63.417 59.309 63.246 59.347 63.077 59.396zM50.894 56.837c-0.268-1.092-0.155-2.217 0.31-3.222l2.76 6.663c-0.293-0.108-0.576-0.243-0.845-0.406C51.995 59.19 51.205 58.112 50.894 56.837zM51.706 53.407c0.294 0.108 0.576 0.244 0.846 0.407 2.154 1.308 2.945 4.019 1.914 6.256L51.706 53.407zM52.343 75.015c-0.866 0.47-1.572 1.153-2.07 1.979V64.392c0.498 0.825 1.204 1.51 2.07 1.979 0.841 0.456 1.524 1.14 1.979 1.979 0.626 1.155 0.765 2.484 0.391 3.743C54.34 73.352 53.498 74.39 52.343 75.015zM49.046 60.391c0.262-0.263 0.49-0.555 0.682-0.868v3.572c-0.392 1.201-1.218 2.194-2.33 2.797-0.155 0.084-0.305 0.176-0.448 0.272C46.761 64.037 47.526 61.908 49.046 60.391zM47.658 66.37c0.866-0.469 1.573-1.153 2.07-1.979v12.603c-0.497-0.826-1.204-1.51-2.07-1.979-0.84-0.455-1.524-1.14-1.979-1.979C44.386 70.652 45.274 67.662 47.658 66.37zM53.051 66.167c-0.145-0.098-0.293-0.191-0.448-0.275-1.112-0.604-1.938-1.596-2.33-2.797v-3.572c0.191 0.313 0.42 0.605 0.682 0.868C52.475 61.908 53.24 64.039 53.051 66.167zM45.535 60.07c-0.131-0.284-0.235-0.58-0.31-0.886-0.312-1.275-0.108-2.596 0.573-3.719 0.583-0.961 1.458-1.677 2.497-2.06L45.535 60.07zM48.798 53.615c0.131 0.284 0.235 0.58 0.31 0.886 0.599 2.448-0.759 4.925-3.069 5.777L48.798 53.615zM40.082 63.232c0.272 0.916 0.272 1.884 0 2.8-0.615 2.071-2.552 3.518-4.71 3.518-0.473 0-0.944-0.069-1.402-0.205-0.505-0.149-1.028-0.226-1.555-0.226-0.44 0-0.88 0.056-1.308 0.161l8.907-8.907C39.782 61.307 39.802 62.289 40.082 63.232zM41.974 56.673c0.003 0 0.006-0.001 0.008 0 0.37 0 0.737-0.046 1.093-0.132l-2.527 2.526c-1.109 0.563-2.432 0.684-3.625 0.329-0.169-0.05-0.34-0.089-0.512-0.122C37.781 57.638 39.827 56.673 41.974 56.673zM40.604 63.077c-0.36-1.213-0.243-2.498 0.33-3.625l2.526-2.526c-0.087 0.357-0.132 0.725-0.132 1.096 0.001 2.149-0.963 4.197-2.602 5.567C40.693 63.417 40.654 63.246 40.604 63.077zM44.337 50.752c0.708 0 1.406 0.155 2.048 0.451l-6.663 2.76c0.108-0.293 0.244-0.576 0.407-0.845C41.028 51.637 42.602 50.752 44.337 50.752zM46.594 51.706c-0.108 0.294-0.244 0.577-0.407 0.846-0.899 1.481-2.472 2.366-4.208 2.365 0 0 0 0 0 0-0.708 0-1.406-0.155-2.048-0.451L46.594 51.706zM26.965 45.678c0.718-0.389 1.527-0.595 2.338-0.595 1.808 0 3.466 0.986 4.327 2.575 0.47 0.866 1.153 1.573 1.979 2.07H23.007c0.826-0.497 1.51-1.204 1.979-2.07C25.441 46.818 26.125 46.133 26.965 45.678zM39.61 49.046c0.262 0.262 0.554 0.49 0.869 0.682h-3.573c-1.201-0.392-2.193-1.218-2.796-2.33-0.084-0.155-0.178-0.304-0.275-0.448C35.961 46.76 38.092 47.526 39.61 49.046zM35.609 50.272c-0.826 0.498-1.509 1.204-1.979 2.07-0.455 0.84-1.14 1.524-1.979 1.979-0.718 0.39-1.527 0.596-2.338 0.596-1.808 0-3.466-0.986-4.327-2.575-0.469-0.866-1.153-1.572-1.979-2.07H35.609zM34.109 52.603c0.603-1.112 1.595-1.938 2.796-2.33h3.573c-0.314 0.191-0.606 0.42-0.868 0.682-1.518 1.521-3.649 2.286-5.776 2.097C33.932 52.906 34.025 52.758 34.109 52.603zM41.988 45.083c2.08 0 3.901 1.296 4.606 3.212l-6.664-2.76c0.284-0.131 0.58-0.235 0.885-0.31C41.201 45.131 41.596 45.083 41.988 45.083zM46.385 48.798c-0.284 0.131-0.58 0.235-0.885 0.31-0.385 0.094-0.779 0.142-1.172 0.142h0c-2.08 0-3.901-1.296-4.606-3.212L46.385 48.798zM36.769 30.656c2.599 0.772 4.085 3.514 3.313 6.113-0.28 0.943-0.299 1.925-0.068 2.859l-8.908-8.907c0.938 0.229 1.936 0.211 2.863-0.065C34.878 30.386 35.859 30.386 36.769 30.656zM40.604 36.924c0.05-0.17 0.091-0.34 0.125-0.51 1.637 1.37 2.601 3.417 2.6 5.565 0 0.371 0.045 0.739 0.132 1.096l-2.527-2.527C40.361 39.422 40.244 38.136 40.604 36.924zM30.656 33.969c0.28-0.943 0.299-1.925 0.068-2.859l8.908 8.908c-0.938-0.23-1.936-0.211-2.863 0.064-0.909 0.27-1.891 0.27-2.8 0C31.37 39.31 29.884 36.568 30.656 33.969zM36.924 40.604c1.193-0.354 2.515-0.233 3.625 0.33l2.527 2.527c-0.356-0.087-0.723-0.132-1.093-0.132-0.002 0-0.005 0-0.008 0-2.147 0-4.193-0.965-5.563-2.602C36.584 40.692 36.755 40.654 36.924 40.604zM48.798 46.385l-2.76-6.663c0.293 0.108 0.576 0.244 0.845 0.407C49.038 41.437 49.828 44.148 48.798 46.385zM48.294 46.594c-0.293-0.108-0.576-0.244-0.845-0.407-1.123-0.681-1.913-1.759-2.225-3.035-0.267-1.092-0.155-2.216 0.31-3.222L48.294 46.594zM50.954 39.61c-0.262 0.262-0.49 0.554-0.682 0.868v-3.573c0.393-1.201 1.218-2.193 2.33-2.796 0.155-0.084 0.305-0.176 0.449-0.272C53.24 35.963 52.475 38.093 50.954 39.61zM52.343 33.63c-0.866 0.47-1.572 1.153-2.07 1.979V23.007c0.498 0.826 1.205 1.51 2.07 1.979 0.84 0.455 1.524 1.14 1.979 1.979C55.614 29.349 54.727 32.338 52.343 33.63zM49.728 35.609c-0.497-0.826-1.204-1.509-2.07-1.979-0.84-0.455-1.524-1.14-1.979-1.979-1.292-2.383-0.404-5.374 1.979-6.665 0.866-0.469 1.573-1.153 2.07-1.979V35.609zM46.95 33.834c0.145 0.098 0.293 0.191 0.448 0.275 1.112 0.603 1.938 1.595 2.33 2.796v3.573c-0.191-0.314-0.419-0.606-0.682-0.868C47.526 38.092 46.76 35.961 46.95 33.834zM54.467 39.931c0.131 0.284 0.234 0.58 0.31 0.885 0.599 2.449-0.76 4.925-3.07 5.778L54.467 39.931zM51.203 46.385c-0.131-0.284-0.235-0.58-0.31-0.885-0.6-2.449 0.759-4.925 3.069-5.778L51.203 46.385zM59.919 36.769c-0.271-0.916-0.271-1.884 0-2.8 0.615-2.071 2.553-3.518 4.711-3.518 0.473 0 0.944 0.069 1.402 0.205 0.927 0.276 1.925 0.294 2.863 0.065l-8.908 8.907C60.219 38.694 60.199 37.711 59.919 36.769zM58.027 43.328c-0.003 0-0.006 0-0.009 0-0.37 0-0.736 0.045-1.093 0.132l2.526-2.526c1.109-0.563 2.432-0.685 3.625-0.33 0.169 0.05 0.34 0.089 0.512 0.123C62.22 42.363 60.174 43.328 58.027 43.328zM59.396 36.924c0.36 1.212 0.243 2.498-0.329 3.625l-2.526 2.526c0.087-0.357 0.132-0.725 0.132-1.096-0.002-2.148 0.964-4.197 2.602-5.567C59.308 36.583 59.347 36.754 59.396 36.924zM55.664 49.249L55.664 49.249c-0.708 0-1.406-0.156-2.049-0.451l6.663-2.76c-0.108 0.293-0.243 0.576-0.406 0.845C58.973 48.365 57.399 49.249 55.664 49.249zM53.407 48.294c0.108-0.293 0.244-0.576 0.407-0.845 0.898-1.481 2.472-2.366 4.207-2.366 0.708 0 1.406 0.155 2.049 0.451L53.407 48.294zM59.522 49.728c0.313-0.191 0.605-0.419 0.868-0.682 1.519-1.521 3.649-2.287 5.776-2.097-0.098 0.145-0.191 0.293-0.275 0.448-0.603 1.112-1.596 1.938-2.797 2.33H59.522zM60.391 50.954c-0.263-0.262-0.555-0.49-0.868-0.682h3.572c1.201 0.393 2.193 1.218 2.797 2.33 0.084 0.155 0.178 0.304 0.274 0.448C64.039 53.24 61.908 52.475 60.391 50.954zM64.392 49.728c0.825-0.497 1.51-1.204 1.979-2.07 0.456-0.84 1.14-1.524 1.979-1.979 0.719-0.389 1.527-0.595 2.339-0.595 1.808 0 3.466 0.986 4.326 2.575 0.47 0.866 1.153 1.573 1.979 2.07H64.392zM70.988 44.548c-0.1-0.005-0.199-0.01-0.3-0.01-0.902 0-1.801 0.229-2.599 0.661-0.591 0.32-1.111 0.743-1.543 1.247-1.896-0.252-3.813 0.209-5.38 1.262-0.355-0.081-0.715-0.139-1.077-0.172 0.086-0.12 0.17-0.242 0.248-0.371 0.265-0.437 0.463-0.907 0.597-1.399l3.719-1.54c0.918 0.273 1.866 0.413 2.819 0.413 0.001 0 0.001 0 0.001 0 1.442 0 2.835-0.312 4.099-0.886C71.407 44.037 71.212 44.303 70.988 44.548zM67.474 44.094c-0.667 0-1.331-0.073-1.983-0.215l9.853-4.081C73.629 42.466 70.683 44.094 67.474 44.094zM75.135 39.295l-9.854 4.081c1.714-2.668 4.661-4.296 7.87-4.296C73.818 39.08 74.482 39.153 75.135 39.295zM69.673 39.165c-2.201 0.824-4.07 2.419-5.229 4.558l-3.718 1.54c-0.575-0.329-1.201-0.55-1.85-0.654 0.232-0.28 0.446-0.576 0.64-0.883 1.852-0.364 3.535-1.394 4.696-2.912 0.141 0.011 0.281 0.017 0.421 0.017 1.573 0 3.04-0.691 4.057-1.816C69.024 39.03 69.353 39.08 69.673 39.165zM64.634 40.287c-0.473 0-0.944-0.069-1.401-0.205-0.505-0.15-1.028-0.226-1.555-0.226-0.44 0-0.881 0.056-1.309 0.161l8.907-8.907c-0.23 0.934-0.212 1.917 0.068 2.859 0.272 0.916 0.272 1.884 0 2.8C68.729 38.84 66.793 40.287 64.634 40.287zM78.984 30.376c-0.407 2.093-1.605 3.902-3.373 5.094-1.686 1.137-3.697 1.581-5.696 1.266 0.25-0.961 0.236-1.968-0.048-2.923-0.36-1.213-0.242-2.499 0.33-3.625l8.563-8.564c-0.469 1.591-0.468 3.291 0.022 4.898C79.163 27.767 79.232 29.1 78.984 30.376zM63.514 26.523c1.284-4.209 5.754-6.59 9.964-5.306 1.607 0.49 3.308 0.492 4.898 0.022l-8.564 8.564c-1.109 0.563-2.432 0.684-3.625 0.33-0.508-0.151-1.031-0.228-1.557-0.228-0.467 0-0.925 0.062-1.364 0.177C63.081 28.896 63.163 27.672 63.514 26.523zM60.986 31.313c-0.734 0.659-1.297 1.516-1.59 2.501-0.19 0.644-0.26 1.312-0.209 1.973-1.519 1.162-2.549 2.845-2.912 4.697-0.308 0.193-0.604 0.407-0.884 0.64-0.023-0.146-0.051-0.292-0.086-0.438-0.122-0.496-0.314-0.969-0.567-1.412l1.54-3.719c2.162-1.172 3.739-3.06 4.555-5.239C60.92 30.641 60.971 30.974 60.986 31.313zM60.706 24.866c0.826 3.806-0.806 7.746-4.081 9.853L60.706 24.866zM60.203 24.658l-4.081 9.853C55.295 30.705 56.927 26.765 60.203 24.658zM56.259 28.422c-0.965 2.118-1.185 4.568-0.483 6.926l-1.54 3.716c-0.654 0.178-1.25 0.469-1.771 0.847-0.034-0.362-0.092-0.723-0.173-1.077 1.053-1.567 1.515-3.485 1.263-5.38 1.301-1.115 1.986-2.771 1.897-4.441C55.701 28.786 55.971 28.588 56.259 28.422zM53.752 13.047c1.148 0.611 2.14 1.504 2.867 2.583 1.191 1.768 1.624 3.894 1.217 5.987-0.389 1.996-1.497 3.732-3.132 4.923-0.504-0.856-1.226-1.558-2.102-2.033-1.112-0.603-1.938-1.595-2.33-2.796V9.599C51.066 11.057 52.269 12.257 53.752 13.047zM42.955 23.844c-2.069-3.885-0.591-8.729 3.293-10.797 1.483-0.79 2.687-1.99 3.479-3.448V21.71c-0.392 1.202-1.218 2.194-2.33 2.796-0.905 0.49-1.615 1.201-2.102 2.03C44.327 25.829 43.52 24.905 42.955 23.844zM44.549 29.013c-0.055 0.976 0.151 1.977 0.65 2.897 0.32 0.591 0.743 1.112 1.247 1.543-0.252 1.895 0.209 3.813 1.262 5.38-0.081 0.354-0.139 0.714-0.172 1.077-0.12-0.087-0.242-0.17-0.371-0.248-0.437-0.265-0.907-0.463-1.399-0.598l-1.541-3.719c0.701-2.357 0.481-4.807-0.483-6.925C44.031 28.589 44.3 28.787 44.549 29.013zM39.295 24.866l4.081 9.853C40.1 32.612 38.468 28.672 39.295 24.866zM43.879 34.511l-4.082-9.853C43.074 26.765 44.706 30.705 43.879 34.511zM39.167 30.317c0.815 2.18 2.393 4.067 4.555 5.239l1.539 3.716c-0.333 0.581-0.553 1.205-0.656 1.849-0.279-0.231-0.573-0.444-0.88-0.637-0.364-1.852-1.394-3.535-2.912-4.697 0.131-1.708-0.555-3.364-1.798-4.482C39.03 30.969 39.081 30.639 39.167 30.317zM26.523 21.217c1.244-0.379 2.577-0.449 3.854-0.2 2.093 0.407 3.902 1.604 5.094 3.373 1.137 1.686 1.581 3.698 1.266 5.696-0.957-0.247-1.975-0.233-2.923 0.048-1.193 0.354-2.516 0.233-3.625-0.33l-8.564-8.564C23.216 21.709 24.916 21.708 26.523 21.217zM26.523 36.487c-2.039-0.622-3.714-2.001-4.716-3.883s-1.211-4.042-0.589-6.081c0.49-1.607 0.492-3.307 0.022-4.898l8.564 8.564c0.572 1.127 0.69 2.412 0.33 3.625-0.293 0.986-0.293 1.991-0.051 2.921C28.896 36.92 27.672 36.838 26.523 36.487zM31.306 39.015c0.651 0.728 1.505 1.291 2.508 1.589 0.639 0.189 1.31 0.259 1.972 0.208 1.162 1.519 2.846 2.55 4.698 2.914 0.193 0.308 0.407 0.604 0.64 0.884-0.147 0.023-0.293 0.051-0.438 0.086-0.496 0.122-0.969 0.314-1.412 0.567l-3.718-1.54c-1.159-2.139-3.028-3.734-5.229-4.558C30.646 39.08 30.973 39.03 31.306 39.015zM34.719 43.376l-9.853-4.081c0.652-0.142 1.316-0.215 1.983-0.215C30.059 39.08 33.005 40.708 34.719 43.376zM24.658 39.798l9.853 4.081c-0.652 0.142-1.316 0.215-1.982 0.215 0 0 0 0 0 0C29.318 44.094 26.372 42.466 24.658 39.798zM28.428 43.752c1.264 0.574 2.657 0.886 4.1 0.886 0 0 0 0 0 0 0.953 0 1.901-0.14 2.82-0.413l3.715 1.539c0.177 0.651 0.465 1.249 0.843 1.771-0.361 0.034-0.719 0.091-1.073 0.172-1.566-1.053-3.485-1.514-5.381-1.262-1.025-1.197-2.533-1.908-4.149-1.908-0.098 0-0.195 0.004-0.292 0.009C28.788 44.302 28.593 44.037 28.428 43.752zM13.047 46.249c0.611-1.148 1.504-2.139 2.583-2.866 3.567-2.405 8.396-1.534 10.91 1.915-0.856 0.503-1.558 1.225-2.033 2.101-0.603 1.112-1.595 1.938-2.796 2.33H9.599C11.057 48.935 12.257 47.732 13.047 46.249zM23.844 57.046c-3.885 2.069-8.729 0.591-10.797-3.294-0.79-1.483-1.99-2.687-3.448-3.479H21.71c1.201 0.393 2.193 1.218 2.796 2.33 0.482 0.89 1.189 1.608 2.029 2.103C25.828 55.675 24.904 56.481 23.844 57.046zM29.013 55.452c0.1 0.006 0.199 0.011 0.3 0.011 0.902 0 1.8-0.229 2.598-0.661 0.59-0.32 1.111-0.742 1.542-1.245 0.34 0.045 0.68 0.068 1.02 0.068 1.554 0 3.078-0.468 4.364-1.332 0.354 0.08 0.713 0.138 1.075 0.172-0.086 0.119-0.17 0.242-0.248 0.37-0.265 0.437-0.463 0.908-0.598 1.399l-3.718 1.54c-0.918-0.272-1.867-0.412-2.82-0.412-1.443 0-2.835 0.312-4.1 0.886C28.593 55.964 28.789 55.698 29.013 55.452zM32.528 55.907c0.667 0 1.331 0.072 1.983 0.215l-9.853 4.081C26.372 57.535 29.318 55.907 32.528 55.907zM26.849 60.921c-0.667 0-1.331-0.073-1.983-0.215l9.853-4.081C33.005 59.293 30.059 60.921 26.849 60.921zM30.328 60.836c2.201-0.823 4.07-2.419 5.229-4.558l3.717-1.54c0.575 0.329 1.202 0.55 1.85 0.653-0.232 0.28-0.446 0.576-0.64 0.884-1.852 0.363-3.535 1.394-4.697 2.911-0.14-0.011-0.28-0.017-0.421-0.017-1.573 0-3.04 0.691-4.056 1.816C30.977 60.971 30.648 60.921 30.328 60.836zM35.367 59.715c0.473 0 0.944 0.068 1.402 0.204 0.928 0.275 1.925 0.295 2.863 0.065l-8.907 8.907c0.23-0.935 0.211-1.917-0.069-2.859-0.272-0.916-0.272-1.884 0-2.8C31.271 61.161 33.208 59.715 35.367 59.715zM21.017 69.624c0.821-4.223 4.852-7.021 9.068-6.359-0.25 0.961-0.235 1.967 0.048 2.922 0.36 1.213 0.242 2.498-0.33 3.625l-8.564 8.564c0.47-1.591 0.468-3.291-0.022-4.898C20.838 72.233 20.769 70.901 21.017 69.624zM36.487 73.478c-0.622 2.039-2.001 3.715-3.883 4.717s-4.042 1.211-6.081 0.589c-1.607-0.49-3.307-0.492-4.898-0.022l8.564-8.563c1.109-0.563 2.432-0.685 3.625-0.33 0.508 0.151 1.032 0.228 1.557 0.228 0.467 0 0.925-0.062 1.364-0.177C36.92 71.104 36.838 72.328 36.487 73.478zM39.015 68.688c0.735-0.659 1.297-1.516 1.589-2.501 0.191-0.644 0.261-1.312 0.209-1.973 1.518-1.162 2.548-2.845 2.912-4.697 0.308-0.193 0.603-0.407 0.883-0.64 0.023 0.146 0.052 0.292 0.087 0.438 0.122 0.496 0.314 0.969 0.567 1.412l-1.54 3.719c-2.163 1.172-3.74 3.06-4.555 5.238C39.081 69.359 39.03 69.026 39.015 68.688zM39.295 75.135c-0.827-3.807 0.805-7.746 4.081-9.854L39.295 75.135zM39.798 75.343l4.082-9.853C44.706 69.297 43.074 73.236 39.798 75.343zM43.742 71.579c0.964-2.118 1.184-4.567 0.483-6.926l1.54-3.717c0.655-0.178 1.25-0.469 1.771-0.847 0.034 0.362 0.092 0.723 0.172 1.077-1.053 1.566-1.514 3.484-1.262 5.38-1.301 1.115-1.986 2.771-1.898 4.441C44.3 71.215 44.031 71.412 43.742 71.579zM46.249 86.954c-1.148-0.611-2.139-1.505-2.866-2.583-1.192-1.768-1.625-3.894-1.217-5.987 0.388-1.995 1.497-3.731 3.132-4.923 0.504 0.856 1.225 1.559 2.101 2.033 1.112 0.603 1.938 1.595 2.33 2.796v12.111C48.935 88.944 47.732 87.744 46.249 86.954zM57.046 76.156c2.069 3.886 0.591 8.729-3.294 10.798-1.483 0.79-2.686 1.99-3.479 3.447V78.29c0.393-1.201 1.218-2.193 2.33-2.796 0.887-0.48 1.607-1.18 2.104-2.028C55.676 74.174 56.481 75.098 57.046 76.156zM55.454 70.99c0.057-1-0.163-1.998-0.652-2.9-0.32-0.591-0.743-1.111-1.247-1.543 0.252-1.896-0.21-3.813-1.263-5.38 0.081-0.354 0.139-0.715 0.173-1.077 0.119 0.087 0.242 0.17 0.37 0.248 0.437 0.265 0.908 0.463 1.399 0.597l1.541 3.719c-0.701 2.357-0.481 4.808 0.483 6.926C55.971 71.413 55.702 71.216 55.454 70.99zM60.706 75.135l-4.081-9.853C59.9 67.389 61.532 71.329 60.706 75.135zM56.122 65.49l4.081 9.853C56.927 73.236 55.295 69.296 56.122 65.49zM60.833 69.684c-0.815-2.179-2.393-4.066-4.555-5.238l-1.539-3.717c0.337-0.589 0.553-1.216 0.653-1.852 0.279 0.232 0.575 0.446 0.883 0.64 0.363 1.853 1.394 3.535 2.912 4.697-0.132 1.708 0.556 3.364 1.798 4.482C60.971 69.032 60.92 69.362 60.833 69.684zM73.478 78.783c-1.244 0.38-2.576 0.449-3.854 0.201-4.223-0.822-7.021-4.853-6.359-9.069 0.956 0.247 1.975 0.233 2.922-0.048 1.194-0.354 2.517-0.233 3.625 0.33l8.564 8.563C76.785 78.291 75.085 78.293 73.478 78.783zM73.478 63.514c4.21 1.284 6.59 5.754 5.306 9.964-0.49 1.607-0.491 3.308-0.022 4.898l-8.563-8.564c-0.572-1.126-0.69-2.412-0.33-3.625 0.293-0.986 0.293-1.991 0.051-2.921C71.104 63.081 72.329 63.163 73.478 63.514zM68.695 60.986c-0.651-0.729-1.505-1.291-2.509-1.59-0.639-0.189-1.31-0.258-1.972-0.208-1.162-1.519-2.846-2.55-4.698-2.913-0.193-0.309-0.407-0.604-0.64-0.884 0.146-0.023 0.293-0.051 0.438-0.086 0.496-0.122 0.969-0.314 1.412-0.567l3.718 1.54c1.159 2.139 3.028 3.734 5.229 4.558C69.354 60.921 69.027 60.971 68.695 60.986zM73.151 60.921c-3.209 0-6.156-1.628-7.869-4.296l9.853 4.081C74.482 60.848 73.818 60.921 73.151 60.921 73.152 60.921 73.152 60.921 73.151 60.921zM75.343 60.203l-9.853-4.081c0.652-0.143 1.316-0.215 1.982-0.215C70.683 55.907 73.629 57.535 75.343 60.203zM71.572 56.248c-1.264-0.574-2.656-0.886-4.1-0.886-0.953 0-1.901 0.14-2.82 0.412l-3.715-1.538c-0.177-0.652-0.466-1.249-0.844-1.772 0.36-0.033 0.718-0.091 1.07-0.171 1.287 0.864 2.811 1.332 4.364 1.332 0.34 0 0.681-0.023 1.021-0.069 1.025 1.196 2.532 1.907 4.148 1.907 0.098 0 0.194-0.004 0.292-0.01C71.213 55.698 71.407 55.964 71.572 56.248zM86.954 53.752c-0.611 1.148-1.505 2.14-2.583 2.867-1.768 1.191-3.894 1.624-5.987 1.217-1.995-0.389-3.731-1.497-4.923-3.132 0.856-0.504 1.559-1.225 2.033-2.102 0.603-1.112 1.595-1.938 2.796-2.33h12.111C88.944 51.065 87.744 52.269 86.954 53.752z" fill="white"></path></svg></g></svg></g></svg></g><defs><mask></mask></defs></svg><rect width="395.52" height="84.08044647364972" fill="black" stroke="none" visibility="hidden"></rect></g></mask><linearGradient x1="0" x2="1" y1="0.548" y2="0.55" id="2a7045cf-4089-4b2f-a192-e0986f31ecfd"><stop stop-color="#ff6cab" offset="0"></stop><stop stop-color="#7366ff" offset="1"></stop></linearGradient><rect width="395.52" height="84.08044647364972" fill="url(#2a7045cf-4089-4b2f-a192-e0986f31ecfd)" mask="url(#67934d9f-6564-4285-a43e-29cbff1715ec)" data-fill-palette-color="accent"></rect></svg><rect width="395.52" height="84.08044647364972" fill="none" stroke="none" visibility="hidden"></rect></g></svg></g></svg>