<svg xmlns="http://www.w3.org/2000/svg" viewBox="0 0 246.5 95"><defs><style>.cls-1{fill:#fff;}.cls-2{fill:#7600ff;}.cls-3{fill:#00dbff;}.cls-4{fill:#ff6700;}.cls-5{fill:#ff00ed;}.cls-6{fill:#38ff00;}.cls-7{fill:#ff0;}.cls-8{fill:#fc0000;}.cls-9{fill:#0600ff;}</style></defs><g id="Layer_2" data-name="Layer 2"><g id="Layer_1-2" data-name="Layer 1"><g id="Layer_2-2" data-name="Layer 2"><g id="Layer_1-2-2" data-name="Layer 1-2"><path class="cls-1" d="M71.79,26.28a23.41,23.41,0,0,1-1.08,7,24,24,0,0,1-8,11.56,22.58,22.58,0,0,1-6.26,3.51A21.3,21.3,0,0,1,49,49.66H47.08l-2.47-.07H40.07l-2,0a10,10,0,0,0-1.54.07l.14-1a10.52,10.52,0,0,0,2.43-.38,2.53,2.53,0,0,0,1.41-1.16,9.28,9.28,0,0,0,1-2.59L47.8,20.77a9.84,9.84,0,0,0,.43-2.47A1.28,1.28,0,0,0,47.5,17,6.41,6.41,0,0,0,45,16.6l.14-1,1.63.09c.64,0,1.33.05,2.07.05H51c.73,0,1.55-.06,2.45-.07l2.61-.05h2.19q6.81,0,10.17,2.71T71.79,26.28ZM48.46,48.8a17.16,17.16,0,0,0,6.68-1.25A16.11,16.11,0,0,0,60.37,44a20.26,20.26,0,0,0,3.77-5.23,27.58,27.58,0,0,0,2.28-6.48A33.94,33.94,0,0,0,67.18,25c0-2.84-.8-5-2.4-6.4s-4.22-2.14-7.87-2.14a6.42,6.42,0,0,0-2.3.34,2.72,2.72,0,0,0-1.39,1.22,9.47,9.47,0,0,0-1,2.57L46,44.67A10.93,10.93,0,0,0,45.54,47a1.38,1.38,0,0,0,.6,1.36A4.33,4.33,0,0,0,48.46,48.8Z"/><path class="cls-1" d="M74.81,42.8a21.07,21.07,0,0,1,.57-4.61,24.62,24.62,0,0,1,1.73-4.95,21.34,21.34,0,0,1,2.81-4.46,13.53,13.53,0,0,1,3.86-3.24,10,10,0,0,1,4.9-1.22,6.41,6.41,0,0,1,4.78,1.84c1.2,1.24,1.8,3.13,1.8,5.69a21.09,21.09,0,0,1-.58,4.61A24,24,0,0,1,93,41.4a21.41,21.41,0,0,1-2.81,4.47,13.53,13.53,0,0,1-3.86,3.24,10,10,0,0,1-4.9,1.22,6.31,6.31,0,0,1-4.77-1.87C75.43,47.21,74.81,45.33,74.81,42.8ZM88.39,25.28a4.41,4.41,0,0,0-3,1.22,12.41,12.41,0,0,0-2.59,3.31,28.34,28.34,0,0,0-2.07,4.68,34.19,34.19,0,0,0-1.36,5.38,31.72,31.72,0,0,0-.48,5.33,5.69,5.69,0,0,0,.69,3.16,2.33,2.33,0,0,0,2,1,4.46,4.46,0,0,0,3-1.22,12.72,12.72,0,0,0,2.62-3.31,26,26,0,0,0,2.06-4.68,36.56,36.56,0,0,0,1.35-5.36,32.05,32.05,0,0,0,.48-5.35,5.88,5.88,0,0,0-.67-3.19A2.33,2.33,0,0,0,88.39,25.28Z"/><path class="cls-1" d="M104,45.58a2.33,2.33,0,0,0,.22,2.28,2.23,2.23,0,0,0,1.7.7,3.36,3.36,0,0,0,2.14-.92,9.31,9.31,0,0,0,2.13-3.88l.68-1.88h.91l-1,3a8.2,8.2,0,0,1-2.71,4.27,6.59,6.59,0,0,1-3.87,1.15,4.64,4.64,0,0,1-3-.84,3.5,3.5,0,0,1-1.2-2.34,8.88,8.88,0,0,1,.38-3.51l7.44-25.92a17.24,17.24,0,0,0,2.28-.19,9.88,9.88,0,0,0,2-.48ZM116.22,25l-.14,1H101.15l.24-1Z"/><path class="cls-1" d="M118.18,48.94a4.24,4.24,0,0,0,.84.31,6.29,6.29,0,0,0,1.37.12,4.91,4.91,0,0,0,3.48-1.27,4.78,4.78,0,0,0,1.37-3.67,8.31,8.31,0,0,0-.55-3,15.43,15.43,0,0,0-2-3.39c-.73-1-1.44-2.07-2.11-3.14a7,7,0,0,1-1-3.82,6.35,6.35,0,0,1,1-3.57,6.92,6.92,0,0,1,2.71-2.38,8.13,8.13,0,0,1,3.72-.86,11.54,11.54,0,0,1,2.74.33A4.71,4.71,0,0,1,132,25.88a3.52,3.52,0,0,1,.89,2.61,3.15,3.15,0,0,1-.22,1,2.4,2.4,0,0,1-.69,1,2,2,0,0,1-2.64-.12,1.92,1.92,0,0,1-.58-1.47,3.92,3.92,0,0,1,.36-1.65,6.91,6.91,0,0,1,1-1.56,4.39,4.39,0,0,0-2.4-.58,4,4,0,0,0-3,1.2,4.52,4.52,0,0,0-1.2,3.36,5,5,0,0,0,.34,1.94,8.5,8.5,0,0,0,1,1.76c.43.6,1,1.37,1.56,2.3a31,31,0,0,1,2,3.5,8.14,8.14,0,0,1,.81,3.56,6.87,6.87,0,0,1-1.13,3.91,7.85,7.85,0,0,1-3,2.66,9,9,0,0,1-4.12,1,10.32,10.32,0,0,1-3.12-.48,5.47,5.47,0,0,1-2.43-1.51,4,4,0,0,1-.93-2.76,3,3,0,0,1,.4-1.42,1.54,1.54,0,0,1,1.47-.74,1.68,1.68,0,0,1,1.63.94,4.54,4.54,0,0,1,.48,2.08,7,7,0,0,1-.12,1.37A10.94,10.94,0,0,1,118.18,48.94Z"/><path class="cls-1" d="M149.62,41.88a13,13,0,0,0-2.13,4A1.84,1.84,0,0,0,148,48a5.18,5.18,0,0,0,2.88.7l-.24,1c-.9-.06-1.83-.1-2.78-.12s-1.86,0-2.69,0h-2a13.65,13.65,0,0,0-1.58.12l.24-1a4.51,4.51,0,0,0,1.39-.6,8.72,8.72,0,0,0,1.58-1.32,15.87,15.87,0,0,0,1.83-2.26l20.68-29.08H168l2,30.19a3.45,3.45,0,0,0,.88,2.37,2.51,2.51,0,0,0,1.47.7l-.19,1c-.65-.06-1.44-.1-2.4-.12s-1.91,0-2.84,0h-3.26c-1,0-1.86.06-2.5.12l.19-1a5.78,5.78,0,0,0,3.27-.84c.64-.5.93-1.56.86-3.19L164.17,21l.33-.1Zm3.84-6h14l-.38,1H152.6Z"/><path class="cls-1" d="M182.78,49.66h-4.17l5.76-20.59a5.07,5.07,0,0,0,.31-2.31.89.89,0,0,0-1-.67,2.45,2.45,0,0,0-1.93,1.11A14.88,14.88,0,0,0,180,31l-.62,1.77h-.91l1.2-3.5a8.66,8.66,0,0,1,1.7-3.07,5.49,5.49,0,0,1,2.06-1.47,5.7,5.7,0,0,1,2-.4,2.74,2.74,0,0,1,2,.62,2.58,2.58,0,0,1,.68,1.63,8.94,8.94,0,0,1-.15,2.19c-.14.78-.31,1.54-.5,2.28Zm12.34-24.14a3.48,3.48,0,0,0-2.28,1,13.36,13.36,0,0,0-2.4,3A39,39,0,0,0,188,34.18q-1.22,2.72-2.4,6c-.79,2.19-1.55,4.57-2.28,7.16l1.2-6.15q1.59-4.69,3-7.92a31.84,31.84,0,0,1,2.72-5.21A9.72,9.72,0,0,1,193,25.18a5.5,5.5,0,0,1,3-.88,2.6,2.6,0,0,1,2.83,2.76,3.27,3.27,0,0,1-.48,1.75,3.59,3.59,0,0,1-1.23,1.25,3,3,0,0,1-1.65.46,2,2,0,0,1-1.37-.46,1.54,1.54,0,0,1-.55-1.27,3.23,3.23,0,0,1,.28-1.37,3.27,3.27,0,0,1,.77-1,3.4,3.4,0,0,1,1.11-.67.86.86,0,0,0-.22-.15A1,1,0,0,0,195.12,25.52Z"/><path class="cls-1" d="M204.23,45.58a2.33,2.33,0,0,0,.22,2.28,2.23,2.23,0,0,0,1.7.7,3.36,3.36,0,0,0,2.14-.92,9.31,9.31,0,0,0,2.13-3.88l.67-1.88H212l-1,3a8.37,8.37,0,0,1-2.71,4.27,6.59,6.59,0,0,1-3.87,1.15,4.64,4.64,0,0,1-3-.84,3.44,3.44,0,0,1-1.22-2.37,8.88,8.88,0,0,1,.38-3.51L208,17.69a17.24,17.24,0,0,0,2.28-.19,9.88,9.88,0,0,0,2-.48ZM216.42,25l-.14,1H201.35l.24-1Z"/><path class="cls-1" d="M42,75.92a5.09,5.09,0,0,0-.19,1.29.61.61,0,0,0,.41.58,4.42,4.42,0,0,0,1.2.19l-.1.48q-.54,0-1.38-.06H38.53a12,12,0,0,0-1.32.06l.12-.48a5.09,5.09,0,0,0,1.23-.19,1.27,1.27,0,0,0,.71-.58,4.56,4.56,0,0,0,.48-1.29L42.92,64a3.89,3.89,0,0,0,.19-1.31.64.64,0,0,0-.42-.57A3.43,3.43,0,0,0,41.5,62l.12-.48,1.3,0h3.42l1.4,0-.12.48a3.9,3.9,0,0,0-1.27.18,1.3,1.3,0,0,0-.71.57A6.36,6.36,0,0,0,45.15,64Zm1.08-5.76.17-.48H51.7l-.19.48ZM52.86,64a4.48,4.48,0,0,0,.2-1.31.6.6,0,0,0-.42-.57,3.5,3.5,0,0,0-1.2-.18l.12-.48,1.38,0h3.4l1.34,0-.12.48a3.9,3.9,0,0,0-1.27.18,1.25,1.25,0,0,0-.71.57A5.43,5.43,0,0,0,55.09,64L51.92,75.92a4.68,4.68,0,0,0-.19,1.29.59.59,0,0,0,.41.58,4.42,4.42,0,0,0,1.2.19l-.1.48q-.51,0-1.32-.06H48.51a9.53,9.53,0,0,0-1.39.06l.1-.48a6.09,6.09,0,0,0,1.27-.19,1.34,1.34,0,0,0,.72-.58,5.42,5.42,0,0,0,.48-1.29Z"/><path class="cls-1" d="M60.29,78a2.11,2.11,0,0,0,1.32-.73,10.83,10.83,0,0,0,1.51-2,21.5,21.5,0,0,0,1.42-2.84,20.7,20.7,0,0,0,1-3.28l-.41,2.59a25.75,25.75,0,0,1-1.82,4.09,7.24,7.24,0,0,1-1.85,2.23,3.2,3.2,0,0,1-1.9.69A1.94,1.94,0,0,1,57.9,78a3.58,3.58,0,0,1-.56-2.09,9.25,9.25,0,0,1,.38-2.51,15.33,15.33,0,0,1,1.07-2.7,13.9,13.9,0,0,1,1.57-2.44,8.38,8.38,0,0,1,1.93-1.78,3.86,3.86,0,0,1,2.13-.67,1.38,1.38,0,0,1,1.28.83A3.53,3.53,0,0,1,65.88,69l-.26.15a4.06,4.06,0,0,0-.17-2.1,1.15,1.15,0,0,0-1.11-.78,2,2,0,0,0-1.3.62,7,7,0,0,0-1.32,1.65,15.91,15.91,0,0,0-1.16,2.34,18,18,0,0,0-.81,2.68,12.45,12.45,0,0,0-.3,2.65,3.08,3.08,0,0,0,.23,1.44A.68.68,0,0,0,60.29,78Zm6.05-11.91A11.13,11.13,0,0,0,67.49,66a5.33,5.33,0,0,0,1.05-.24l-3,10.61a2.85,2.85,0,0,1-.13.56,1.38,1.38,0,0,0,0,.64c.06.19.22.28.49.28a1.25,1.25,0,0,0,.94-.52,6.17,6.17,0,0,0,.91-1.92l.29-.89h.46l-.6,1.75a4.85,4.85,0,0,1-.81,1.5,2.8,2.8,0,0,1-1,.77,2.29,2.29,0,0,1-1,.23,1.42,1.42,0,0,1-1.32-.63,1.78,1.78,0,0,1-.17-1.28c.09-.49.21-1,.33-1.48Z"/><path class="cls-1" d="M73.6,78.46H71.51l2.88-10.3a3.42,3.42,0,0,0,.16-.63,1,1,0,0,0,0-.6c-.06-.17-.22-.25-.48-.25a1.17,1.17,0,0,0-.93.51,7.44,7.44,0,0,0-.92,1.93l-.31.89h-.45l.6-1.75a3.64,3.64,0,0,1,1.3-2,3,3,0,0,1,1.55-.48,1.49,1.49,0,0,1,1,.31,1.26,1.26,0,0,1,.36.8A4.15,4.15,0,0,1,76.2,68c-.07.4-.15.78-.25,1.17Zm1.1-5a32.8,32.8,0,0,1,1.64-3.63,13.21,13.21,0,0,1,1.56-2.36,5.06,5.06,0,0,1,1.57-1.3,3.72,3.72,0,0,1,1.67-.39,1.84,1.84,0,0,1,1.54.54,2,2,0,0,1,.38,1.37,7.1,7.1,0,0,1-.34,1.71l-2.33,7a2.8,2.8,0,0,0-.18,1.07c0,.28.21.42.57.42a1.24,1.24,0,0,0,.9-.51,6.34,6.34,0,0,0,.94-1.94l.32-.89h.45l-.6,1.75A4,4,0,0,1,82,77.86a2.59,2.59,0,0,1-1,.73,2.89,2.89,0,0,1-1,.21,2,2,0,0,1-1-.2,1.29,1.29,0,0,1-.56-.5,1.64,1.64,0,0,1-.23-1.1,8.15,8.15,0,0,1,.38-1.53l2.28-6.87a5.54,5.54,0,0,0,.21-.8,1.71,1.71,0,0,0,0-.84c-.08-.25-.31-.37-.7-.37a2,2,0,0,0-1.22.5,7.56,7.56,0,0,0-1.34,1.43,14.3,14.3,0,0,0-1.37,2.21,28.88,28.88,0,0,0-1.29,2.83,33.51,33.51,0,0,0-1.11,3.3Z"/><path class="cls-1" d="M89.07,78a2.18,2.18,0,0,0,1.36-.71A10.18,10.18,0,0,0,92,75.4a18.09,18.09,0,0,0,1.44-2.76,20.1,20.1,0,0,0,1-3.2L94.09,72a24.23,24.23,0,0,1-1.86,4,7.19,7.19,0,0,1-1.88,2.15,3.35,3.35,0,0,1-2,.66A2.41,2.41,0,0,1,87,78.46a2.3,2.3,0,0,1-.88-1,4.27,4.27,0,0,1-.31-1.77,9.15,9.15,0,0,1,.37-2.49,13,13,0,0,1,1.07-2.62A11.45,11.45,0,0,1,89,68.15a8.23,8.23,0,0,1,2.14-1.71,5,5,0,0,1,2.5-.65,1.51,1.51,0,0,1,1,.42,1.75,1.75,0,0,1,.53,1.26L95,68a2.1,2.1,0,0,0-.48-1.24,1.19,1.19,0,0,0-.87-.37,3,3,0,0,0-1.76.62,6.62,6.62,0,0,0-1.55,1.66A13.23,13.23,0,0,0,89.12,71a15.37,15.37,0,0,0-.82,2.57,12.22,12.22,0,0,0-.3,2.41,3.52,3.52,0,0,0,.27,1.57A.83.83,0,0,0,89.07,78Zm5.38-1.61a2.61,2.61,0,0,0-.14,1c0,.31.22.47.57.47a1.15,1.15,0,0,0,.89-.54,7,7,0,0,0,.86-1.91l.29-.89h.46l-.56,1.75a3.9,3.9,0,0,1-.77,1.5,2.67,2.67,0,0,1-1,.76,2.9,2.9,0,0,1-1,.22,1.29,1.29,0,0,1-1.51-1.37,3.31,3.31,0,0,1,.06-.89,8.33,8.33,0,0,1,.25-1.1l3.45-13a1.34,1.34,0,0,0-.07-1.2c-.19-.25-.68-.38-1.46-.38l.14-.51A10.16,10.16,0,0,0,97.24,60a10.06,10.06,0,0,0,1.92-.71Z"/><path class="cls-1" d="M107.35,66.27a2.9,2.9,0,0,0-1.81.74,7.57,7.57,0,0,0-1.65,2,12.33,12.33,0,0,0-1.18,3,13.62,13.62,0,0,0-.45,3.48,2.71,2.71,0,0,0,.47,1.77,1.56,1.56,0,0,0,1.21.54,3.62,3.62,0,0,0,1.78-.53,5.91,5.91,0,0,0,1.82-1.87l.48.19a7.17,7.17,0,0,1-1.2,1.54,6.43,6.43,0,0,1-1.67,1.21,4.21,4.21,0,0,1-2,.47,3.1,3.1,0,0,1-2.31-.89,3.67,3.67,0,0,1-.86-2.64,10.11,10.11,0,0,1,.32-2.39,13.34,13.34,0,0,1,.94-2.54,10.45,10.45,0,0,1,1.5-2.28,7.41,7.41,0,0,1,2-1.65,5.09,5.09,0,0,1,2.47-.62,3,3,0,0,1,1.82.54,1.73,1.73,0,0,1,.77,1.5,2.15,2.15,0,0,1-.2.9,2,2,0,0,1-.59.73,1.48,1.48,0,0,1-.91.29.91.91,0,0,1-.75-.28,1,1,0,0,1-.24-.66,1.56,1.56,0,0,1,.55-1.19A2.53,2.53,0,0,1,109,67a2,2,0,0,0-.62-.54A2.28,2.28,0,0,0,107.35,66.27Z"/><path class="cls-1" d="M113.87,78.46h-2.09l2.88-10.3a2.66,2.66,0,0,0,.16-1.15.44.44,0,0,0-.49-.33,1.19,1.19,0,0,0-1,.55,7,7,0,0,0-.92,1.89l-.31.89h-.45l.6-1.75a4.56,4.56,0,0,1,.85-1.54,3,3,0,0,1,1-.73,3.12,3.12,0,0,1,1-.2,1.39,1.39,0,0,1,1,.31,1.28,1.28,0,0,1,.34.82,4.42,4.42,0,0,1-.08,1.09c-.07.39-.15.77-.25,1.14ZM120,66.39a1.74,1.74,0,0,0-1.14.51,6.89,6.89,0,0,0-1.2,1.49,20.72,20.72,0,0,0-1.23,2.33c-.4.9-.8,1.91-1.2,3s-.77,2.3-1.14,3.58l.6-3.07c.53-1.57,1-2.89,1.48-4a16.18,16.18,0,0,1,1.36-2.61A4.87,4.87,0,0,1,119,66.23a2.76,2.76,0,0,1,1.5-.44,1.42,1.42,0,0,1,1,.38,1.37,1.37,0,0,1,.37,1,1.65,1.65,0,0,1-.24.87,1.84,1.84,0,0,1-.61.63,1.52,1.52,0,0,1-.83.22,1,1,0,0,1-.68-.22.78.78,0,0,1-.28-.64,1.57,1.57,0,0,1,.15-.68,1.52,1.52,0,0,1,.38-.52,1.74,1.74,0,0,1,.55-.34.41.41,0,0,0-.11-.07Z"/><path class="cls-1" d="M125.36,78a2.11,2.11,0,0,0,1.32-.73,10.83,10.83,0,0,0,1.51-2,21.5,21.5,0,0,0,1.42-2.84,20.7,20.7,0,0,0,1-3.28l-.41,2.59a25.75,25.75,0,0,1-1.82,4.09,7.24,7.24,0,0,1-1.85,2.23,3.2,3.2,0,0,1-1.9.69A2,2,0,0,1,123,78a3.58,3.58,0,0,1-.56-2.09,9.25,9.25,0,0,1,.38-2.51,15.33,15.33,0,0,1,1.07-2.7,13.9,13.9,0,0,1,1.57-2.44,8.38,8.38,0,0,1,1.93-1.78,3.86,3.86,0,0,1,2.13-.67,1.38,1.38,0,0,1,1.28.83A3.53,3.53,0,0,1,131,69l-.26.15a4,4,0,0,0-.17-2.06,1.15,1.15,0,0,0-1.11-.78,2,2,0,0,0-1.3.62,7,7,0,0,0-1.32,1.65,15.91,15.91,0,0,0-1.16,2.34,18,18,0,0,0-.81,2.68,12.45,12.45,0,0,0-.3,2.65,3.08,3.08,0,0,0,.23,1.44A.68.68,0,0,0,125.36,78Zm6-11.91a11.13,11.13,0,0,0,1.15-.09,5.33,5.33,0,0,0,1.05-.24l-3,10.61a2.85,2.85,0,0,1-.13.56,1.38,1.38,0,0,0,0,.64c.06.19.22.28.49.28a1.25,1.25,0,0,0,.94-.52,6.17,6.17,0,0,0,.91-1.92l.29-.89h.46L133,76.3a4.85,4.85,0,0,1-.81,1.5,2.8,2.8,0,0,1-1,.77,2.29,2.29,0,0,1-1,.23,1.42,1.42,0,0,1-1.32-.63,1.78,1.78,0,0,1-.17-1.28c.09-.49.21-1,.33-1.48Z"/><path class="cls-1" d="M145.08,60.05a1.65,1.65,0,0,0-.79.19,2.9,2.9,0,0,0-.6.44,3.34,3.34,0,0,0-.76,1.23,15.68,15.68,0,0,0-.6,1.91c-.18.72-.38,1.48-.59,2.28L137.3,82.64a10.54,10.54,0,0,0-1.13.09,5.82,5.82,0,0,0-1,.24l4.51-16.87a21.11,21.11,0,0,1,1.07-3.17,6.88,6.88,0,0,1,1.38-2,3.91,3.91,0,0,1,1.36-.87,4.21,4.21,0,0,1,1.64-.33,2.62,2.62,0,0,1,1.69.49,1.49,1.49,0,0,1,.59,1.22,1.56,1.56,0,0,1-.21.79,1.81,1.81,0,0,1-.58.62,1.48,1.48,0,0,1-.82.24,1.15,1.15,0,0,1-.72-.21.71.71,0,0,1-.24-.6,1.48,1.48,0,0,1,.39-1,2,2,0,0,1,1-.59c0-.15-.1-.28-.31-.4A1.55,1.55,0,0,0,145.08,60.05Zm-7.73,6.55.14-.48h7.08l-.14.48Z"/><path class="cls-1" d="M147.35,76.42a1.19,1.19,0,0,0,.11,1.14,1.13,1.13,0,0,0,.85.35,1.65,1.65,0,0,0,1.07-.46,4.81,4.81,0,0,0,1.07-1.94l.33-.94h.46l-.51,1.51a4.09,4.09,0,0,1-1.35,2.14,3.32,3.32,0,0,1-1.93.58,2.31,2.31,0,0,1-1.5-.42,1.74,1.74,0,0,1-.62-1.19,4.15,4.15,0,0,1,.2-1.75l3.72-13a4.4,4.4,0,0,0,1.14-.1,5.61,5.61,0,0,0,1-.24Zm6.1-10.3-.08.48h-7.46l.12-.48Z"/><path class="cls-1" d="M162.37,68.16c.34-1,.23-1.48-.33-1.48a1.22,1.22,0,0,0-1,.6,9,9,0,0,0-.91,1.84l-.33.89h-.46l.62-1.75a4.36,4.36,0,0,1,.87-1.54A2.84,2.84,0,0,1,161.9,66a3.12,3.12,0,0,1,1-.2,1.75,1.75,0,0,1,1.13.31,1.29,1.29,0,0,1,.43.82,3.32,3.32,0,0,1,0,1.09,8.71,8.71,0,0,1-.31,1.14l-2.57,7.27a2,2,0,0,0-.15,1.09.46.46,0,0,0,.53.4h0a1.21,1.21,0,0,0,.91-.53,7.32,7.32,0,0,0,1-1.92l.33-.89h.46L164,76.32a4.67,4.67,0,0,1-.82,1.48,2.8,2.8,0,0,1-1,.77,2.83,2.83,0,0,1-1.11.23,1.39,1.39,0,0,1-1.65-1.73,7.08,7.08,0,0,1,.41-1.63Zm.75-6.4a1.87,1.87,0,0,1,.63-1.08,1.66,1.66,0,0,1,1.12-.46,1.12,1.12,0,0,1,1,.46,1.3,1.3,0,0,1,.23,1.08,1.94,1.94,0,0,1-.64,1.08,1.67,1.67,0,0,1-1.14.45,1.12,1.12,0,0,1-.94-.45A1.28,1.28,0,0,1,163.12,61.76Z"/><path class="cls-1" d="M169.73,76.42a1.19,1.19,0,0,0,.11,1.14,1.13,1.13,0,0,0,.85.35,1.65,1.65,0,0,0,1.07-.46,4.69,4.69,0,0,0,1.07-1.94l.34-.94h.45l-.5,1.51a4.1,4.1,0,0,1-1.36,2.14,3.32,3.32,0,0,1-1.93.58,2.31,2.31,0,0,1-1.5-.42,1.69,1.69,0,0,1-.61-1.19,4.32,4.32,0,0,1,.19-1.75l3.72-13a4.4,4.4,0,0,0,1.14-.1,4.86,4.86,0,0,0,1-.24Zm6.1-10.3-.07.48h-7.47l.12-.48Z"/><path class="cls-1" d="M177.91,73c.9-.3,1.71-.6,2.44-.9a7.29,7.29,0,0,0,1.73-1,5.07,5.07,0,0,0,1.37-1.68,4.64,4.64,0,0,0,.51-2.16,2.36,2.36,0,0,0-.1-.88.31.31,0,0,0-.29-.2,2.19,2.19,0,0,0-1.29.53,6.74,6.74,0,0,0-1.37,1.45,13.52,13.52,0,0,0-2.14,4.61,10.81,10.81,0,0,0-.33,2.65,2.77,2.77,0,0,0,.45,1.77,1.54,1.54,0,0,0,1.2.54,3.84,3.84,0,0,0,1.83-.53,5.76,5.76,0,0,0,1.87-1.87l.38.19a7.17,7.17,0,0,1-1.2,1.54,6.55,6.55,0,0,1-1.66,1.21,4.23,4.23,0,0,1-2,.47,3.52,3.52,0,0,1-1.68-.39,2.55,2.55,0,0,1-1.11-1.14,4.11,4.11,0,0,1-.38-1.86,8.27,8.27,0,0,1,.38-2.31,13.53,13.53,0,0,1,1.1-2.57,12,12,0,0,1,1.69-2.37,8.09,8.09,0,0,1,2.18-1.72,5.25,5.25,0,0,1,2.57-.65,2,2,0,0,1,1.26.39,1.4,1.4,0,0,1,.52,1.19,3.1,3.1,0,0,1-.57,1.79,6.24,6.24,0,0,1-1.48,1.51,13.14,13.14,0,0,1-2,1.21c-.69.34-1.39.65-2.11.92s-1.3.46-1.82.62Z"/><path class="cls-1" d="M190.09,78.46H188l2.88-10.3a3.53,3.53,0,0,0,.14-.56,1.38,1.38,0,0,0,0-.64c0-.19-.2-.28-.45-.28a1.23,1.23,0,0,0-1,.55,7.33,7.33,0,0,0-.91,1.89l-.32.89h-.45l.6-1.75a4.56,4.56,0,0,1,.85-1.54,3,3,0,0,1,1-.73,3.12,3.12,0,0,1,1-.2,1.4,1.4,0,0,1,1,.32,1.32,1.32,0,0,1,.35.84,3.63,3.63,0,0,1-.08,1.09q-.12.58-.27,1.11Zm6.79-9.89a4.84,4.84,0,0,0,.23-1,1.37,1.37,0,0,0-.07-.75.56.56,0,0,0-.59-.3,2.19,2.19,0,0,0-1.47.82,11.67,11.67,0,0,0-1.64,2.31,27.32,27.32,0,0,0-1.59,3.43,41,41,0,0,0-1.37,4.19l.79-3.84a34.64,34.64,0,0,1,2.07-4.56,7.75,7.75,0,0,1,1.93-2.4,3.44,3.44,0,0,1,2.07-.72A1.34,1.34,0,0,1,198.78,67a3.82,3.82,0,0,1,0,1.17c-.07.42-.15.82-.25,1.2l-2.45,9h-2.16Zm6,0a4.6,4.6,0,0,0,.24-1.38c0-.42-.17-.63-.52-.63a2.19,2.19,0,0,0-1.52.84,11.41,11.41,0,0,0-1.63,2.38,37.2,37.2,0,0,0-1.67,3.63c-.55,1.38-1.08,2.91-1.59,4.57l.55-3.07c.62-1.67,1.2-3.08,1.73-4.24A17.87,17.87,0,0,1,200,67.85a5.62,5.62,0,0,1,1.58-1.57,3.48,3.48,0,0,1,1.78-.49,1.5,1.5,0,0,1,1.37.57,2.32,2.32,0,0,1,.3,1.41,6.54,6.54,0,0,1-.33,1.64l-2.33,7a2.39,2.39,0,0,0-.16,1.12c0,.24.23.37.55.37a1.24,1.24,0,0,0,.9-.51,6.61,6.61,0,0,0,1-1.94l.31-.89h.45l-.6,1.75a4.1,4.1,0,0,1-.82,1.54,2.67,2.67,0,0,1-1,.73,2.89,2.89,0,0,1-1,.21,2.14,2.14,0,0,1-1-.18,1.44,1.44,0,0,1-.54-.47,1.74,1.74,0,0,1-.19-1.14,9.45,9.45,0,0,1,.38-1.57Z"/><path class="cls-1" d="M209,78.1a2.41,2.41,0,0,0,.42.16,2.57,2.57,0,0,0,.68.06,2.47,2.47,0,0,0,1.74-.64,2.39,2.39,0,0,0,.69-1.84,4.13,4.13,0,0,0-.28-1.47,7.6,7.6,0,0,0-1-1.69c-.37-.52-.72-1-1.06-1.58a3.51,3.51,0,0,1-.5-1.9,3.23,3.23,0,0,1,.5-1.79,3.47,3.47,0,0,1,1.36-1.19,4,4,0,0,1,1.86-.43,5.3,5.3,0,0,1,1.37.17,2.18,2.18,0,0,1,1.11.61,1.76,1.76,0,0,1,.45,1.31,1.79,1.79,0,0,1-.11.51,1.23,1.23,0,0,1-.35.52.94.94,0,0,1-.65.21,1,1,0,0,1-.67-.27,1,1,0,0,1-.29-.73,2,2,0,0,1,.18-.83,3.57,3.57,0,0,1,.5-.78,2.2,2.2,0,0,0-1.2-.29,2,2,0,0,0-1.49.6,2.26,2.26,0,0,0-.6,1.68,2.45,2.45,0,0,0,.17,1,4.21,4.21,0,0,0,.49.88l.78,1.15a16.81,16.81,0,0,1,1,1.75,3.9,3.9,0,0,1,.4,1.78,3.37,3.37,0,0,1-.56,2,4,4,0,0,1-1.5,1.34,4.46,4.46,0,0,1-2.06.48,5.13,5.13,0,0,1-1.56-.24,2.78,2.78,0,0,1-1.22-.76,2,2,0,0,1-.46-1.38,1.39,1.39,0,0,1,.2-.71.75.75,0,0,1,.73-.37.85.85,0,0,1,.82.47,2.17,2.17,0,0,1,.24,1,4,4,0,0,1-.06.69A1.39,1.39,0,0,1,209,78.1Z"/><circle class="cls-2" cx="226" cy="5.5" r="5.5"/><circle class="cls-3" cx="241" cy="31.5" r="5.5"/><circle class="cls-4" cx="226" cy="89.5" r="5.5"/><circle class="cls-5" cx="241" cy="63.5" r="5.5"/><circle class="cls-6" cx="11.5" cy="89" r="5.5"/><circle class="cls-7" cx="5.5" cy="59" r="5.5"/><circle class="cls-8" cx="10.5" cy="32" r="5.5"/><circle class="cls-9" cx="27.5" cy="6" r="5.5"/></g></g></g></g></svg>