<svg xmlns="http://www.w3.org/2000/svg" xmlns:xlink="http://www.w3.org/1999/xlink" version="1.1" x="0px" y="0px" viewBox="0 0 64 80" style="enable-background:new 0 0 64 64;" xml:space="preserve"><path d="M28,40c-0.551,0-1-0.448-1-1h-2c0,1.654,1.346,3,3,3s3-1.346,3-3h-2C29,39.552,28.551,40,28,40z"/><path d="M39,39h-2c0,0.552-0.449,1-1,1s-1-0.448-1-1h-2c0,1.654,1.346,3,3,3S39,40.654,39,39z"/><path d="M57.131,51H54c0-0.553-0.448-1-1-1h-4.247c-2.363,0-4.673-0.444-6.951-1.356C40.733,48.217,39.609,48,38.459,48h-0.485  C40.412,46.175,42,43.273,42,40c0-5.514-4.486-10-10-10s-10,4.486-10,10c0,3.273,1.588,6.175,4.026,8h-0.485  c-1.149,0-2.274,0.217-3.428,0.678C19.92,49.556,17.61,50,15.247,50H11c-0.552,0-1,0.447-1,1H7.001  c-0.739,0-1.415,0.405-1.763,1.057s-0.311,1.438,0.1,2.055l0.072,0.107C6.153,55.334,7.398,56,8.739,56H10c0,0.553,0.448,1,1,1  h4.838c1.747,0,3.478-0.222,5.162-0.661V62h2v-7c0-0.321-0.154-0.623-0.415-0.812c-0.261-0.188-0.598-0.24-0.901-0.137  C19.795,54.681,17.828,55,15.838,55H12v-3h3.247c2.619,0,5.179-0.493,7.693-1.499c0.832-0.332,1.706-0.501,2.6-0.501h4.693  l-2.091,3.485c-0.176,0.293-0.19,0.656-0.037,0.962l3,6C31.275,60.786,31.621,61,32,61s0.725-0.214,0.895-0.553l3-6  c0.153-0.306,0.139-0.669-0.037-0.962L33.766,50h4.693c0.894,0,1.769,0.169,2.685,0.535c2.43,0.972,4.99,1.465,7.609,1.465H52v3  h-3.838c-1.99,0-3.957-0.319-5.846-0.948c-0.304-0.104-0.64-0.052-0.901,0.137C41.154,54.377,41,54.679,41,55v7h2v-5.661  C44.685,56.778,46.415,57,48.162,57H53c0.552,0,1-0.447,1-1h1.395c1.34,0,2.584-0.666,3.329-1.782l0.072-0.107  c0.411-0.615,0.449-1.401,0.1-2.054C58.546,51.405,57.871,51,57.131,51z M8.739,54c-0.67,0-1.292-0.333-1.665-0.893L7.001,53H10v1  H8.739z M32,32c2.701,0,5.088,1.349,6.538,3.404C36.501,34.487,34.289,34,32,34s-4.501,0.487-6.538,1.404  C26.912,33.349,29.299,32,32,32z M24,40c0-0.541,0.055-1.07,0.158-1.581C26.468,36.841,29.168,36,32,36s5.532,0.841,7.842,2.419  C39.945,38.93,40,39.459,40,40c0,4.411-3.589,8-8,8S24,44.411,24,40z M32,57.764l-1.86-3.72L32,50.943l1.86,3.101L32,57.764z   M57.059,53.109C56.687,53.667,56.065,54,55.395,54H54v-1l3.131,0.001L57.059,53.109z"/><path d="M44.799,37.602C46.893,34.815,48,31.495,48,28c0-8.822-7.178-16-16-16s-16,7.178-16,16c0,3.495,1.106,6.814,3.2,9.601  l1.599-1.201C18.968,33.962,18,31.058,18,28c0-7.72,6.28-14,14-14s14,6.28,14,14c0,3.059-0.968,5.963-2.799,8.4L44.799,37.602z"/><path d="M6,28c0,8.255,3.79,15.836,10.397,20.8l1.201-1.6C11.499,42.618,8,35.62,8,28C8,14.767,18.767,4,32,4s24,10.767,24,24  c0,7.62-3.5,14.619-9.601,19.202l1.201,1.6C54.209,43.837,58,36.255,58,28C58,13.663,46.336,2,32,2S6,13.663,6,28z"/><path d="M31.962,27.991C31.975,27.992,31.987,28,32,28c0.006,0,0.012-0.004,0.018-0.004c0.014,0.001,0.028,0.003,0.042,0.003  c0.052,0,0.1-0.02,0.151-0.028l1.42-0.157c3.276-0.365,5.819-2.908,6.183-6.183l0.18-1.59c0.034-0.303-0.071-0.604-0.287-0.819  s-0.517-0.325-0.82-0.286l-1.586,0.18c-0.824,0.091-1.607,0.34-2.334,0.703c-0.257-0.776-0.646-1.519-1.184-2.192l-1.001-1.252  c-0.379-0.475-1.183-0.475-1.562,0l-1.001,1.252c-0.538,0.673-0.928,1.416-1.184,2.192c-0.727-0.362-1.509-0.611-2.331-0.702  l-1.59-0.181c-0.302-0.039-0.604,0.071-0.82,0.286s-0.321,0.517-0.287,0.819l0.18,1.588c0.364,3.276,2.906,5.819,6.184,6.185  l1.459,0.163c0.024,0.004,0.052,0.007,0.08,0.009v0.001C31.927,27.99,31.945,27.99,31.962,27.991z M37.523,21.104l0.342-0.038  l-0.039,0.344c-0.228,2.047-1.647,3.695-3.565,4.249c0.713-1.153,1.075-2.445,1.059-3.744  C35.975,21.476,36.723,21.192,37.523,21.104z M31.779,18.877L32,18.601l0.221,0.276c1.471,1.839,1.471,4.407,0,6.246L32,25.399  l-0.221-0.276C30.309,23.284,30.309,20.716,31.779,18.877z M26.174,21.407l-0.039-0.342l0.345,0.039  c0.797,0.087,1.545,0.372,2.2,0.81c-0.016,1.298,0.346,2.59,1.058,3.743C27.82,25.103,26.401,23.456,26.174,21.407z"/><rect x="58" y="47" width="2" height="2"/><rect x="4" y="47" width="2" height="2"/><text x="0" y="79" fill="#000000" font-size="5px" font-weight="bold" font-family="'Helvetica Neue', Helvetica, Arial-Unicode, Arial, Sans-serif">Created by Nithinan Tatah</text><text x="0" y="84" fill="#000000" font-size="5px" font-weight="bold" font-family="'Helvetica Neue', Helvetica, Arial-Unicode, Arial, Sans-serif">from the Noun Project</text></svg>