<svg xmlns="http://www.w3.org/2000/svg" data-name="Layer 48" viewBox="0 0 36 45" x="0px" y="0px"><path d="m35,24c0,.13-.03.26-.08.38-.1.24-.3.44-.54.54-.12.05-.25.08-.38.08h-7c-.55,0-1-.45-1-1s.45-1,1-1h4.59l-9.59-9.59-4.29,4.29c-.2.2-.45.29-.71.29s-.51-.1-.71-.29c-.39-.39-.39-1.02,0-1.41l5-5c.39-.39,1.02-.39,1.41,0l10.29,10.29V3H3v20h6c.55,0,1,.45,1,1s-.45,1-1,1H2c-.55,0-1-.45-1-1V2c0-.55.45-1,1-1h32c.55,0,1,.45,1,1v22ZM10,15c-2.21,0-4-1.79-4-4s1.79-4,4-4,4,1.79,4,4-1.79,4-4,4Zm2-4c0-1.1-.9-2-2-2s-2,.9-2,2,.9,2,2,2,2-.9,2-2Zm14.71,22.29c.39.39.39,1.02,0,1.41-.2.2-.45.29-.71.29s-.51-.1-.71-.29l-3.11-3.11c-1.17.88-2.61,1.4-4.18,1.4-3.86,0-7-3.14-7-7s3.14-7,7-7,7,3.14,7,7c0,1.57-.53,3.02-1.4,4.18l3.11,3.11Zm-8.71-2.29c1.38,0,2.63-.56,3.53-1.46,0,0,0,0,0,0s0,0,0,0c.9-.91,1.46-2.15,1.46-3.53,0-2.76-2.24-5-5-5s-5,2.24-5,5,2.24,5,5,5Z"/><text x="0" y="51" fill="#000000" font-size="5px" font-weight="bold" font-family="'Helvetica Neue', Helvetica, Arial-Unicode, Arial, Sans-serif">Created by Humam</text><text x="0" y="56" fill="#000000" font-size="5px" font-weight="bold" font-family="'Helvetica Neue', Helvetica, Arial-Unicode, Arial, Sans-serif">from the Noun Project</text></svg>