<svg xmlns="http://www.w3.org/2000/svg" data-name="Layer 2" viewBox="0 0 100 125" x="0px" y="0px"><title>Artboard 5</title><path d="M90,9H10a1,1,0,0,0-1,1V90a1,1,0,0,0,1,1H90a1,1,0,0,0,1-1V10A1,1,0,0,0,90,9ZM89,65.36542l-7.43549,3.499a9.97787,9.97787,0,0,0-17.91644,1.62579L45.95,65.80505a6.93475,6.93475,0,0,0-3.15723-6.67993l3.97437-8.67169A9.93677,9.93677,0,0,0,58.132,46.79828l9.024,5.15692A3.9476,3.9476,0,0,0,67,53a4.016,4.016,0,1,0,1.13922-2.78625L59.1283,45.06427a9.85273,9.85273,0,0,0,.62115-6.2597l11.00177-3.6673a7.103,7.103,0,1,0-.63458-1.89685L59.11475,36.90771a10.05707,10.05707,0,0,0-4.27851-4.65435l3.56336-8.31409A3.951,3.951,0,0,0,59,24a4,4,0,1,0-2.2287-7.31927L50.38055,11H89ZM73,66a8,8,0,1,1-8,8A8.00917,8.00917,0,0,1,73,66ZM39,70a5,5,0,1,1,5-5A5.00588,5.00588,0,0,1,39,70ZM11,39.29218l8.79083-8.71235A6.97044,6.97044,0,0,0,29.37238,29.48l11.64038,7.16327a9.76937,9.76937,0,0,0-.8465,6.12647l-7.73395,2.20953a3.988,3.988,0,1,0-5.19311,5.59424L22.80206,72.02A3.995,3.995,0,0,0,19,76c0,.0376.01007.07239.01111.10974L11,78.42059ZM24,30a5,5,0,1,1,5-5A5.00588,5.00588,0,0,1,24,30ZM58,41a8,8,0,1,1-8-8A8.00917,8.00917,0,0,1,58,41ZM29,49a2,2,0,1,1,2-2A2.002,2.002,0,0,1,29,49ZM21,76a2,2,0,1,1,2,2A2.002,2.002,0,0,1,21,76Zm4.6087-3.00739a3.99168,3.99168,0,0,0-.8479-.56616L29.19794,50.98A3.995,3.995,0,0,0,33,47c0-.03424-.00928-.066-.01013-.1l7.72534-2.20709a10.04519,10.04519,0,0,0,4.23517,4.92395L40.976,58.28864a6.98536,6.98536,0,0,0-8.24475,9.80725ZM71,51a2,2,0,1,1-2,2A2.002,2.002,0,0,1,71,51Zm1-19a5,5,0,1,1,5,5A5.00588,5.00588,0,0,1,72,32ZM57,20a2,2,0,1,1,2,2A2.002,2.002,0,0,1,57,20Zm-9.63055-9,8.08532,7.18707a3.916,3.916,0,0,0,1.108,4.96179l-3.56262,8.31232a9.9689,9.9689,0,0,0-10.93738,3.48029L30.42206,27.778a7.00238,7.00238,0,1,0-12.03949,1.38092L11,36.47565V11ZM11,89V80.5025l8.57257-2.47284a3.98046,3.98046,0,0,0,7.17291-3.39129l7.12091-4.89569a6.94976,6.94976,0,0,0,8.2298,1.52594l4.89649,7.12268a4.06578,4.06578,0,1,0,1.64569-1.13678L43.743,70.13336a7.02222,7.02222,0,0,0,1.69775-2.394l17.69593,4.68451a9.99677,9.99677,0,1,0,19.28216-1.75116L89,67.57574V89ZM50,79a2,2,0,1,1-2,2A2.002,2.002,0,0,1,50,79Z"/><text x="0" y="115" fill="#000000" font-size="5px" font-weight="bold" font-family="'Helvetica Neue', Helvetica, Arial-Unicode, Arial, Sans-serif">Created by Path Lord</text><text x="0" y="120" fill="#000000" font-size="5px" font-weight="bold" font-family="'Helvetica Neue', Helvetica, Arial-Unicode, Arial, Sans-serif">from the Noun Project</text></svg>