<svg xmlns="http://www.w3.org/2000/svg" xmlns:xlink="http://www.w3.org/1999/xlink" version="1.1" x="0px" y="0px" viewBox="0 0 80 100" style="enable-background:new 0 0 80 80;" xml:space="preserve"><path d="M39.1743774,17.4599609c-7.7751465,0-14.8395386,4.2200317-18.5415039,11.03125  c-8.6658936,2.25-13.6328125,5.8908081-13.6328125,10.0263672c0,4.1129761,4.9440918,7.7484741,13.5697632,10.0097046  c3.6814575,6.8936157,10.7628784,11.1621704,18.6040649,11.1621704c7.8014526,0,14.8670044-4.2417603,18.5620728-11.0930176  c8.7854614-2.2497559,13.821228-5.9093628,13.821228-10.0788574c0-4.177063-5.0568237-7.8422241-13.8789063-10.0930176  C53.9666748,21.6536255,46.9240723,17.4599609,39.1743774,17.4599609z M39.1743774,19.4599609  c7.152832,0,13.6489258,3.9404297,16.9521484,10.2802734c1.4116211,2.7246094,2.1577148,5.7783203,2.1577148,8.8300781  c0,0.081665-0.0046997,0.1664429-0.0071411,0.2495728c-3.3936157,1.2407227-20.3782959,6.730896-38.2055664-0.0042114  c-0.0023804-0.0817261-0.007019-0.1651001-0.007019-0.2453613c0-3.0527344,0.7460938-6.1064453,2.1567383-8.828125  C25.5249634,23.3994141,32.0210571,19.4599609,39.1743774,19.4599609z M39.1738892,57.6894531  c-6.4754028,0-12.3770142-3.2182007-15.8937378-8.5204468c4.8410645,1.0217285,10.3170776,1.5604858,15.9987183,1.5604858  c5.5839233,0,10.9727783-0.5196533,15.7449951-1.5046997C51.4993286,54.4924316,45.6146851,57.6894531,39.1738892,57.6894531z   M69.5571899,38.5175781c0,3.1474609-4.8779297,6.3095703-12.7324219,8.2509766  c-5.1464844,1.2832031-11.2138672,1.9609375-17.5458984,1.9609375c-6.4296875,0-12.581543-0.7001953-17.7905273-2.0253906  c-7.703125-1.9501953-12.4882813-5.0878906-12.4882813-8.1865234c0-2.8355713,3.984375-5.6881714,10.5241699-7.6416626  c-0.9551392,2.4509888-1.4597168,5.071228-1.4597168,7.694397c0,0.2167969,0.0087891,0.4394531,0.0180664,0.6621094  l0.0053101,0.1356201c-0.0635376,0.4474487,0.1651001,0.895874,0.6040649,1.069458  c7.0908203,2.7939453,14.003418,3.7255859,20.0712891,3.7255859c11.5405273,0,20.005249-3.3638306,20.8422241-3.708374  c0.0187988-0.0072021,0.0366211-0.0139771,0.0548706-0.0222778c0.0012207-0.0004883,0.0055542-0.0022583,0.0067139-0.0027466  c0.0430298-0.0180664,0.0720215-0.0523071,0.111084-0.0753784c0.0600586-0.0383911,0.1251221-0.0692749,0.1757202-0.1192627  c0.2304077-0.2131958,0.3391113-0.5187988,0.3057861-0.8329468l0.0065308-0.1696777  c0.0092773-0.2226563,0.0180664-0.4453125,0.0180664-0.6621094c0-2.6484375-0.515564-5.2941284-1.4898071-7.767334  C65.4817505,32.7627563,69.5571899,35.6434326,69.5571899,38.5175781z"/><path d="M68.1675415,12.6269531c0-2.8994141-2.359375-5.2587891-5.2592773-5.2587891s-5.2592773,2.359375-5.2592773,5.2587891  s2.359375,5.2587891,5.2592773,5.2587891S68.1675415,15.5263672,68.1675415,12.6269531z M59.6489868,12.6269531  c0-1.796875,1.4619141-3.2587891,3.2592773-3.2587891s3.2592773,1.4619141,3.2592773,3.2587891  s-1.4619141,3.2587891-3.2592773,3.2587891S59.6489868,14.4238281,59.6489868,12.6269531z"/><path d="M14.7578735,57.6894531c-4.1201172,0-7.4716797,3.3515625-7.4716797,7.4716797  c0,4.1191406,3.3515625,7.4707031,7.4716797,7.4707031s7.4716797-3.3515625,7.4716797-7.4707031  C22.2295532,61.0410156,18.8779907,57.6894531,14.7578735,57.6894531z M14.7578735,70.6318359  c-3.0170898,0-5.4716797-2.4541016-5.4716797-5.4707031c0-3.0175781,2.4545898-5.4716797,5.4716797-5.4716797  s5.4716797,2.4541016,5.4716797,5.4716797C20.2295532,68.1777344,17.7749634,70.6318359,14.7578735,70.6318359z"/><path d="M66.7979126,68.4257813c0.0683594,0,0.1376953-0.0068359,0.2060547-0.0214844  c0.3725586-0.078125,0.668457-0.3613281,0.7626953-0.7304688L68.7236938,63.9375l3.6210938-1.3310547  c0.3574219-0.1308594,0.609375-0.4541016,0.6494141-0.8320313c0.0405273-0.3789063-0.137207-0.7470703-0.4589844-0.9511719  l-3.2583008-2.0654297l-0.1459961-3.8554688c-0.0146484-0.3798828-0.2436523-0.7197266-0.5913086-0.875  c-0.3481445-0.15625-0.7529297-0.1005859-1.0463867,0.1425781l-2.9707031,2.4619141l-3.7114258-1.0527344  c-0.3681641-0.1035156-0.7597656,0.0087891-1.0151367,0.2910156c-0.2548828,0.2832031-0.3276367,0.6855469-0.1875,1.0400391  l1.4223633,3.5859375l-2.1474609,3.2050781c-0.2119141,0.3164063-0.2260742,0.7255859-0.0361328,1.0556641  c0.1894531,0.3291016,0.5371094,0.5136719,0.9301758,0.4990234l3.8500977-0.2451172l2.3842773,3.0332031  C66.2036743,68.2880859,66.4946899,68.4257813,66.7979126,68.4257813z M64.0889282,62.9794922  c-0.0209961,0-0.0419922,0.0009766-0.0634766,0.0019531l-2.3525391,0.1494141l1.3120117-1.9580078  c0.1835938-0.2734375,0.2202148-0.6191406,0.0991211-0.9257813l-0.8691406-2.1914063l2.2675781,0.6435547  c0.3164063,0.0898438,0.6577148,0.0195313,0.9111328-0.1914063l1.8154297-1.5048828l0.0888672,2.3564453  c0.0126953,0.3291016,0.1860352,0.6298828,0.4643555,0.8066406l1.9912109,1.2617188l-2.2128906,0.8134766  c-0.309082,0.1132813-0.5424805,0.3710938-0.6240234,0.6904297l-0.5844727,2.2832031l-1.4570313-1.8535156  C64.6846313,63.1191406,64.3945923,62.9794922,64.0889282,62.9794922z"/><text x="0" y="95" fill="#000000" font-size="5px" font-weight="bold" font-family="'Helvetica Neue', Helvetica, Arial-Unicode, Arial, Sans-serif">Created by Designer Brother</text><text x="0" y="100" fill="#000000" font-size="5px" font-weight="bold" font-family="'Helvetica Neue', Helvetica, Arial-Unicode, Arial, Sans-serif">from the Noun Project</text></svg>