<svg xmlns="http://www.w3.org/2000/svg" xmlns:xlink="http://www.w3.org/1999/xlink" version="1.1" x="0px" y="0px" viewBox="0 0 512 640" style="enable-background:new 0 0 512 512;" xml:space="preserve"><g><g><g><g><g><path d="M302.267,416.333c-1.104,0-2-0.896-2-2V135.667c0-1.104,0.896-2,2-2s2,0.896,2,2v278.666       C304.267,415.438,303.371,416.333,302.267,416.333z"/></g><g><path d="M272.267,422c-1.104,0-2-0.896-2-2V135.667c0-1.104,0.896-2,2-2s2,0.896,2,2V420       C274.267,421.104,273.371,422,272.267,422z"/></g><g><path d="M242.267,422c-1.104,0-2-0.896-2-2V135.667c0-1.104,0.896-2,2-2s2,0.896,2,2V420       C244.267,421.104,243.371,422,242.267,422z"/></g><g><path d="M212.267,416.333c-1.104,0-2-0.896-2-2V135.667c0-1.104,0.896-2,2-2s2,0.896,2,2v278.666       C214.267,415.438,213.371,416.333,212.267,416.333z"/></g></g><g><path d="M256.001,492.333c-0.476,0-0.951-0.001-1.428-0.005c-25.514-0.186-50.299-5.354-73.666-15.363      c-1.016-0.435-1.486-1.61-1.051-2.626c0.435-1.015,1.61-1.483,2.626-1.051c22.876,9.799,47.141,14.859,72.12,15.04      c0.467,0.004,0.933,0.005,1.398,0.005c76.171,0,144.318-45.434,173.615-115.747c0.424-1.02,1.592-1.501,2.615-1.077      c1.02,0.425,1.501,1.596,1.076,2.615C403.389,445.934,333.791,492.333,256.001,492.333z M155.182,463.198      c-0.365,0-0.733-0.1-1.065-0.309c-27.015-17.033-49.604-40.715-65.329-68.484C72.571,365.766,64,333.233,64,300.324l0.001-0.668      c0.113-32.766,11.297-66.99,33.241-101.721c0.367-0.58,1.005-0.932,1.691-0.932l76-0.004c0.652,0,1.264,0.318,1.638,0.853      s0.465,1.218,0.242,1.831c-1.837,5.054-6.238,9.637-10.122,13.681c-0.896,0.932-1.767,1.84-2.575,2.72      c-21.14,23.041-32.782,52.961-32.782,84.249c-0.001,26.246,8.06,51.352,23.31,72.603c0.645,0.897,0.438,2.147-0.459,2.791      c-0.897,0.645-2.146,0.438-2.791-0.459c-15.74-21.935-24.061-47.847-24.06-74.935c0-32.292,12.016-63.173,33.835-86.953      c0.828-0.901,1.721-1.831,2.638-2.787c2.85-2.967,6-6.247,7.961-9.593l-71.729,0.004c-21.15,33.765-31.928,66.955-32.037,98.668      L68,300.324c0,64.833,32.99,124.341,88.25,159.182c0.935,0.59,1.214,1.824,0.625,2.759      C156.495,462.868,155.846,463.198,155.182,463.198z M255.981,429c-0.437,0-0.874-0.002-1.313-0.007      c-30.397-0.308-59.795-11.419-82.776-31.286c-0.836-0.723-0.928-1.985-0.205-2.821c0.722-0.836,1.984-0.928,2.821-0.205      c22.266,19.249,50.749,30.015,80.203,30.313c0.426,0.005,0.848,0.007,1.27,0.007c68.61,0,124.544-55.808,124.685-124.404v-0.264      c0.001-3.543-0.149-7.126-0.448-10.651c-0.093-1.101,0.724-2.068,1.824-2.161c1.121-0.091,2.068,0.725,2.162,1.824      c0.308,3.637,0.463,7.334,0.462,10.989v0.267c-0.07,34.171-13.548,66.384-37.949,90.709C322.334,415.614,290.11,429,255.981,429      z M440.753,346.872c-0.155,0-0.313-0.018-0.469-0.056c-1.074-0.258-1.736-1.338-1.478-2.412      c3.446-14.347,5.193-29.175,5.193-44.071c0-34.093-10.199-68.414-29.506-99.329h-72.049c2.16,5.015,6.191,9.842,10.199,14.397      c11.423,12.986,19.978,27.847,25.428,44.169c0.35,1.048-0.217,2.181-1.264,2.53c-1.053,0.35-2.181-0.215-2.531-1.264      c-5.279-15.813-13.568-30.211-24.637-42.794c-4.982-5.664-10.011-11.757-11.962-18.481c-0.175-0.604-0.056-1.256,0.321-1.759      c0.378-0.503,0.971-0.799,1.6-0.799h76c0.687,0,1.324,0.352,1.69,0.932C437.381,229.731,448,265.14,448,300.333      c0,15.211-1.784,30.354-5.305,45.006C442.476,346.256,441.656,346.872,440.753,346.872z"/></g><g><path d="M415.6,201.004H383.69c-1.104,0-2-0.896-2-2s0.896-2,2-2H413.6v-80.799c0-0.714,0.381-1.374,0.998-1.731      c15.011-8.687,24.336-24.834,24.336-42.14c0-26.835-21.832-48.667-48.667-48.667S341.6,45.499,341.6,72.334v124.67h12.091      c1.104,0,2,0.896,2,2s-0.896,2-2,2H339.6c-1.104,0-2-0.896-2-2V72.334c0-29.041,23.626-52.667,52.667-52.667      s52.667,23.626,52.667,52.667c0,18.343-9.677,35.48-25.334,45.01v81.66C417.6,200.108,416.704,201.004,415.6,201.004z"/></g><g><path d="M174.934,201.004h-76c-1.104,0-2-0.896-2-2v-81.66c-15.656-9.529-25.333-26.668-25.333-45.01      c0-29.041,23.626-52.667,52.666-52.667c29.041,0,52.667,23.626,52.667,52.667v88.147c0,1.104-0.896,2-2,2s-2-0.896-2-2V72.334      c0-26.835-21.832-48.667-48.667-48.667S75.601,45.499,75.601,72.334c0,17.306,9.324,33.453,24.335,42.14      c0.617,0.357,0.998,1.018,0.998,1.731v80.799h72v-6.522c0-1.104,0.896-2,2-2s2,0.896,2,2v8.522      C176.934,200.108,176.038,201.004,174.934,201.004z"/></g><g><path d="M339.6,137.667H174.934c-1.104,0-2-0.896-2-2v-38c0-1.104,0.896-2,2-2h97.333c1.104,0,2,0.896,2,2s-0.896,2-2,2h-95.333      v34H337.6v-34h-35.333c-1.104,0-2-0.896-2-2s0.896-2,2-2H339.6c1.104,0,2,0.896,2,2v38      C341.6,136.771,340.704,137.667,339.6,137.667z"/></g><g><path d="M377.6,441.667c-0.512,0-1.023-0.195-1.414-0.586l-38-38c-0.781-0.78-0.781-2.047,0-2.828s2.047-0.781,2.828,0l38,38      c0.781,0.781,0.781,2.048,0,2.828C378.623,441.472,378.111,441.667,377.6,441.667z"/></g><g><path d="M340,402c-1.103,0-1.998-0.893-2-1.996l-0.4-200.996c-0.002-1.104,0.892-2.002,1.996-2.004c0.001,0,0.003,0,0.004,0      c1.103,0,1.998,0.893,2,1.996l0.4,200.996c0.002,1.104-0.892,2.002-1.996,2.004C340.003,402,340.001,402,340,402z"/></g><g><path d="M136.934,441.667c-0.512,0-1.024-0.195-1.414-0.586c-0.781-0.78-0.781-2.047,0-2.828l37.414-37.414V199.004      c0-1.104,0.896-2,2-2s2,0.896,2,2v202.663c0,0.53-0.211,1.039-0.586,1.414l-38,38      C137.957,441.472,137.445,441.667,136.934,441.667z"/></g></g></g></g><text x="0" y="527" fill="#000000" font-size="5px" font-weight="bold" font-family="'Helvetica Neue', Helvetica, Arial-Unicode, Arial, Sans-serif">Created by Flatart</text><text x="0" y="532" fill="#000000" font-size="5px" font-weight="bold" font-family="'Helvetica Neue', Helvetica, Arial-Unicode, Arial, Sans-serif">from the Noun Project</text></svg>