<svg xmlns="http://www.w3.org/2000/svg" data-name="Layer 1" viewBox="0 0 100 125" x="0px" y="0px"><title>30</title><path d="M44.32312,28.34406a5.08295,5.08295,0,1,1,5.08289,5.083A5.083,5.083,0,0,1,44.32312,28.34406ZM57.35425,71.7019c-1.43848-.46093-3.19666-1.81359-3.19666-5.67047V40.70923a.68479.68479,0,0,0-.6842-.68543H43.37927a2.57266,2.57266,0,0,0-2.57214,2.57331,2.59968,2.59968,0,0,0,1.83935,2.46429c1.43824.46094,3.19654,1.8136,3.19654,5.67047V66.03143c0,3.85688-1.7583,5.20948-3.19727,5.67047a2.5995,2.5995,0,0,0-1.83923,2.46424A2.57279,2.57279,0,0,0,43.37927,76.739H56.62073a2.57279,2.57279,0,0,0,2.57275-2.57281A2.59955,2.59955,0,0,0,57.35425,71.7019ZM95,50A45,45,0,1,1,50,5,45.05077,45.05077,0,0,1,95,50Zm-6,0A39,39,0,1,0,50,89,39.0439,39.0439,0,0,0,89,50Z"/><text x="0" y="115" fill="#000000" font-size="5px" font-weight="bold" font-family="'Helvetica Neue', Helvetica, Arial-Unicode, Arial, Sans-serif">Created by Hrbon</text><text x="0" y="120" fill="#000000" font-size="5px" font-weight="bold" font-family="'Helvetica Neue', Helvetica, Arial-Unicode, Arial, Sans-serif">from the Noun Project</text></svg>