<svg xmlns="http://www.w3.org/2000/svg" data-name="Layer 2" viewBox="0 0 100 125" x="0px" y="0px"><path d="M76.6515233,20.4930936H27.2829788c-1.1213814,0-2.0305828,.9092014-2.0305828,2.0305828v12.1834968h-1.9039193c-1.1213814,0-2.0305828,.9092014-2.0305828,2.0305828s.9092014,2.0305828,2.0305828,2.0305828h1.9039193v20.6865623h-1.9039193c-1.1213814,0-2.0305828,.9092014-2.0305828,2.0305828s.9092014,2.0305828,2.0305828,2.0305828h1.9039193v13.9602568c0,1.1213814,.9092014,2.0305828,2.0305828,2.0305828h49.3685445c1.1213814,0,2.0305828-.9092014,2.0305828-2.0305828V22.5236764c0-1.1213814-.9092014-2.0305828-2.0305828-2.0305828Zm-2.0305828,54.9526472H29.3135616v-11.929674h1.9034235c1.1213814,0,2.0305828-.9092014,2.0305828-2.0305828s-.9092014-2.0305828-2.0305828-2.0305828h-1.9034235v-20.6865623h1.9034235c1.1213814,0,2.0305828-.9092014,2.0305828-2.0305828s-.9092014-2.0305828-2.0305828-2.0305828h-1.9034235v-10.152914h45.3073789v50.8914816Zm-22.6539373-23.3036147c4.9371519,0,8.9539481-4.0165483,8.9539481-8.9534523,0-4.9371519-4.0167962-8.9537002-8.9539481-8.9537002-4.936904,0-8.9532045,4.0165483-8.9532045,8.9537002,0,4.936904,4.0163004,8.9534523,8.9532045,8.9534523Zm0-13.8459869c2.6978593,0,4.8927825,2.1946753,4.8927825,4.8925346,0,2.6976114-2.1949232,4.8922867-4.8927825,4.8922867-2.6976114,0-4.8920389-2.1946753-4.8920389-4.8922867,0-2.6978593,2.1944274-4.8925346,4.8920389-4.8925346Zm-14.403951,29.6618276h28.8086457c1.1213814,0,2.0305828-.9092014,2.0305828-2.0305828v-5.2281558c0-4.0021716-3.2560713-7.2582429-7.2584908-7.2582429h-18.3528298c-4.0024195,0-7.2584908,3.2560713-7.2584908,7.2582429v5.2281558c0,1.1213814,.9092014,2.0305828,2.0305828,2.0305828Zm2.0305828-7.2587386c0-1.762879,1.4341983-3.1970773,3.1973251-3.1970773h18.3528298c1.7631269,0,3.1973251,1.4341983,3.1973251,3.1970773v3.197573h-24.7474801v-3.197573Z"/><text x="0" y="115" fill="#000000" font-size="5px" font-weight="bold" font-family="'Helvetica Neue', Helvetica, Arial-Unicode, Arial, Sans-serif">Created by Indraa</text><text x="0" y="120" fill="#000000" font-size="5px" font-weight="bold" font-family="'Helvetica Neue', Helvetica, Arial-Unicode, Arial, Sans-serif">from the Noun Project</text></svg>