<svg xmlns="http://www.w3.org/2000/svg" xmlns:xlink="http://www.w3.org/1999/xlink" version="1.1" x="0px" y="0px" viewBox="0 0 96 120" enable-background="new 0 0 96 96" xml:space="preserve"><path d="M73.726,63.142c-0.206-1.786,0.162-5.982,0.518-10.04c0.128-1.465,0.256-2.923,0.357-4.269  c0.333-4.413-3.055-6.437-5.088-6.961c-1.995-2.171-4.781-3.543-5.271-3.774c-0.362-0.284-0.767-0.571-1.228-0.866  c-2.88-1.844-8.961-11.091-9.713-12.245c-0.179-0.936-0.339-1.8-0.477-2.545c-0.164-0.884-0.298-1.611-0.401-2.112  c-0.221-1.083-0.843-1.966-1.799-2.555c-1.807-1.112-4.409-0.976-6.241-0.476c-1.805,0.492-6.56-0.213-9.402-0.635  c-1.696-0.251-2.599-0.377-3.041-0.359c-0.625,0.033-1.15,0.38-1.441,0.954c-0.326,0.642-0.336,1.512-0.071,2.504l-6.363-5.32  l-2.989,3.582l5.312,4.502c-0.246,0.009-0.489,0.017-0.766,0.05c-0.994,0.12-1.444,0.623-1.647,1.024  c-0.716,1.419,0.577,3.696,1.717,5.706c0.429,0.754,0.833,1.467,0.973,1.88c0.579,1.716,0.129,5.528-0.019,6.782  c-0.152,1.293,0.556,4.005,1.573,7.694c0.559,2.026,1.136,4.122,1.136,4.801c0,0.95,0.491,3.345,1.059,6.119  c0.534,2.604,1.138,5.555,1.138,6.547c0,2.153,7.186,15.151,8.626,17.734l0.215,0.385h34.265l-0.032-0.781  C74.599,79.866,74.018,65.661,73.726,63.142z M23.179,17.844l1.073-1.287l8.127,6.794c0.318,0.325,0.678,0.625,1.071,0.896  l7.049,5.893c0.086,0.384,0.179,0.787,0.28,1.224c0.129,0.558,0.263,1.143,0.395,1.734L23.179,17.844z M38.311,26.355l0.008-0.053  c0.627,0.164,1.179,0.282,1.581,0.358c0.01,0.317,0.055,0.695,0.124,1.126L38.311,26.355z M40.08,45.933  c-0.323-1.296-0.618-2.631-0.804-3.479c-0.352-1.599-0.486-2.182-0.606-2.446c-0.027-0.06-0.057-0.16-0.089-0.287l0.003-0.001  c-0.171-0.617-0.335-2.504-0.466-4.467c0.817,1.01,1.931,1.979,3.312,2.266C41.096,41.063,40.645,45.158,40.08,45.933z   M41.052,47.075c-0.06,0.581-0.124,1.14-0.195,1.593c-0.123-0.347-0.25-0.77-0.378-1.223c0.075-0.028,0.151-0.052,0.223-0.094  C40.827,47.279,40.942,47.186,41.052,47.075z M38.095,32.454l3.563,3.02c0.007,0.038,0.014,0.077,0.021,0.114l-0.072-0.006  c-0.013,0.139-0.026,0.285-0.039,0.428C39.832,35.539,38.57,33.392,38.095,32.454z M73.105,48.72  c-0.101,1.34-0.228,2.792-0.356,4.251c-0.379,4.322-0.736,8.405-0.513,10.342c0.247,2.133,0.728,13.358,0.856,16.437h-31.82  c-4.079-7.34-8.222-15.467-8.222-16.619c0-1.144-0.568-3.915-1.168-6.849c-0.505-2.467-1.028-5.019-1.028-5.817  c0-0.84-0.452-2.523-1.19-5.2c-0.739-2.681-1.659-6.018-1.53-7.12c0.274-2.318,0.566-5.612-0.049-7.437  c-0.186-0.549-0.604-1.287-1.089-2.142c-0.712-1.254-2.037-3.588-1.683-4.29c0.068-0.134,0.302-0.188,0.487-0.21  c2.306-0.276,3.008,0.435,4.066,1.513c0.24,0.244,0.489,0.498,0.766,0.751c1.368,1.253,3.959,4.042,4.459,4.582  c0.376,0.863,1.22,2.952,1.312,3.92c0.061,0.647,0.334,3.4,0.658,4.934c0,0,0,0,0,0.001c0.013,0.067,0.026,0.115,0.039,0.173  c0.014,0.061,0.027,0.131,0.041,0.18l0.001,0c0.053,0.209,0.107,0.382,0.161,0.501c0.078,0.195,0.307,1.236,0.51,2.155  c1.044,4.745,1.721,7.284,2.524,7.993c0.296,0.261,0.673,0.336,1.013,0.2c0.829-0.332,1.015-1.48,1.392-5.862  c0.166-1.924,0.337-3.914,0.63-5.131c0.48-2.002-0.375-5.694-1.129-8.952c-0.416-1.795-0.985-4.254-0.825-4.76l0.269-0.847  l-0.878-0.124c-1.318-0.187-4.469-0.903-6.469-2.261l-0.945-0.79c-0.149-0.159-0.287-0.322-0.399-0.494  c-1.376-2.11-1.36-3.416-1.16-3.811c0.061-0.12,0.117-0.132,0.183-0.135c0.303-0.017,1.545,0.167,2.743,0.345  c3.338,0.495,7.91,1.172,10.017,0.598c1.921-0.523,3.907-0.404,5.061,0.306c0.611,0.375,0.976,0.892,1.116,1.577  c0.102,0.495,0.234,1.212,0.396,2.085c0.765,4.133,2.189,11.826,3.982,15.903c1.925,4.374,1.542,6.174,0.848,9.442l-0.119,0.563  l1.468,0.309l0.119-0.56c0.709-3.336,1.178-5.541-0.942-10.357c-1.006-2.287-1.901-5.822-2.624-9.179  c2.3,3.323,5.93,8.255,8.125,9.661c2.991,1.914,3.273,3.172,3.273,6.023c0,2.961-0.507,7.562-0.513,7.608l1.491,0.166  c0.021-0.192,0.521-4.729,0.521-7.774c0-1.272-0.081-2.313-0.366-3.235c1.73,1.282,3.528,3.127,3.438,5.239  c-0.193,4.549-0.386,8.035-0.387,8.037l1.498,0.083c0,0,0.193-3.495,0.388-8.056c0.035-0.819-0.146-1.59-0.45-2.315  C72.2,45.062,73.278,46.425,73.105,48.72z"/><path d="M28.228,86.25c-1.236,0-2.242,1.006-2.242,2.242s1.006,2.242,2.242,2.242s2.242-1.006,2.242-2.242  S29.464,86.25,28.228,86.25z M28.228,90.234c-0.96,0-1.742-0.782-1.742-1.742s0.782-1.742,1.742-1.742s1.742,0.782,1.742,1.742  S29.188,90.234,28.228,90.234z"/><path d="M8.512,27.812L7.521,29.82l-2.216,0.322l1.604,1.563L6.53,33.912l1.982-1.042l1.982,1.042l-0.378-2.207l1.604-1.563  L9.503,29.82L8.512,27.812z M9.578,31.53l0.251,1.468l-1.318-0.692l-1.318,0.692l0.251-1.468l-1.066-1.04l1.474-0.214l0.659-1.335  l0.659,1.335l1.474,0.214L9.578,31.53z"/><path d="M26.923,11.03l1.368-0.719l1.368,0.719l-0.261-1.523l1.107-1.079l-1.53-0.223l-0.684-1.386l-0.684,1.386l-1.53,0.223  l1.107,1.079L26.923,11.03z M27.151,8.776l0.788-0.114l0.352-0.713l0.352,0.713l0.788,0.114l-0.57,0.556l0.134,0.784l-0.704-0.37  l-0.704,0.37l0.134-0.784L27.151,8.776z"/><path d="M87.086,69.95l1.368,0.719l-0.261-1.523l1.107-1.079l-1.53-0.223l-0.684-1.386l-0.684,1.386l-1.53,0.223l1.107,1.079  l-0.261,1.523L87.086,69.95z M85.947,68.416l0.788-0.114l0.352-0.713l0.352,0.713l0.788,0.114l-0.57,0.556l0.134,0.784l-0.704-0.37  l-0.704,0.37l0.134-0.784L85.947,68.416z"/><path d="M87.086,14.135l-0.902,2.777h-2.919l2.361,1.717l-0.902,2.776l2.362-1.716l2.362,1.716l-0.902-2.776l2.361-1.717h-2.919  L87.086,14.135z M87.958,18.438l0.539,1.658l-1.411-1.025l-1.411,1.025l0.539-1.658l-1.411-1.026h1.745l0.539-1.659l0.539,1.659  h1.745L87.958,18.438z"/><path d="M79.13,5.267c-1.236,0-2.242,1.006-2.242,2.242s1.006,2.242,2.242,2.242s2.242-1.006,2.242-2.242S80.367,5.267,79.13,5.267z   M79.13,9.251c-0.96,0-1.742-0.782-1.742-1.742s0.782-1.742,1.742-1.742s1.742,0.782,1.742,1.742S80.091,9.251,79.13,9.251z"/><path d="M88.623,47.2c-0.985,0-1.786,0.801-1.786,1.786s0.801,1.786,1.786,1.786s1.786-0.801,1.786-1.786S89.607,47.2,88.623,47.2z   M88.623,50.272c-0.709,0-1.286-0.577-1.286-1.286s0.577-1.286,1.286-1.286s1.286,0.577,1.286,1.286S89.332,50.272,88.623,50.272z"/><path d="M14.958,14.794c-1.302,0-2.361,1.059-2.361,2.361s1.059,2.361,2.361,2.361s2.361-1.059,2.361-2.361  S16.259,14.794,14.958,14.794z M14.958,19.016c-1.026,0-1.861-0.835-1.861-1.861s0.835-1.861,1.861-1.861s1.861,0.835,1.861,1.861  S15.983,19.016,14.958,19.016z"/><path d="M21.983,88.514c0.326,0.083,0.655,0.156,0.988,0.223l0.099-0.49c-0.325-0.065-0.646-0.138-0.964-0.217L21.983,88.514z"/><path d="M9.529,79.253c0.339,0.567,0.711,1.124,1.104,1.655l0.402-0.297c-0.383-0.519-0.746-1.062-1.077-1.615L9.529,79.253z"/><path d="M14.832,85.124c0.532,0.396,1.088,0.769,1.653,1.108l0.258-0.429c-0.551-0.331-1.093-0.695-1.612-1.081L14.832,85.124z"/><path d="M11.893,82.448c0.441,0.49,0.914,0.964,1.404,1.41l0.337-0.37c-0.478-0.435-0.939-0.897-1.37-1.375L11.893,82.448z"/><path d="M7.146,68.852c0-0.327,0.008-0.655,0.024-0.985l-0.499-0.024c-0.017,0.337-0.025,0.674-0.025,1.009  c0,0.328,0.008,0.655,0.024,0.98l0.499-0.024C7.153,69.49,7.146,69.171,7.146,68.852z"/><path d="M6.864,71.81c0.097,0.653,0.228,1.309,0.388,1.95l0.485-0.122c-0.157-0.625-0.285-1.265-0.379-1.901L6.864,71.81z"/><path d="M18.24,87.172c0.597,0.283,1.216,0.54,1.838,0.763l0.169-0.471c-0.607-0.217-1.21-0.468-1.793-0.744L18.24,87.172z"/><path d="M7.83,75.663C8.052,76.282,8.308,76.9,8.592,77.5l0.452-0.214c-0.277-0.585-0.527-1.188-0.743-1.792L7.83,75.663z"/><path d="M7.533,64.949l-0.49-0.098c-0.066,0.333-0.125,0.665-0.174,0.998l0.494,0.073C7.412,65.598,7.469,65.273,7.533,64.949z"/><path d="M89.182,76.982l0.498,0.046c0.031-0.336,0.05-0.675,0.057-1.017l-0.5-0.01C89.229,76.331,89.211,76.658,89.182,76.982z"/><path d="M85.817,84.731l0.374,0.332c0.493-0.555,0.944-1.152,1.342-1.773l-0.421-0.27C86.729,83.62,86.293,84.195,85.817,84.731z"/><path d="M88.121,81.128l0.459,0.199c0.295-0.679,0.538-1.387,0.721-2.104l-0.484-0.124C88.639,79.791,88.405,80.473,88.121,81.128z"/><path d="M78.523,88.985l0.104,0.489c0.723-0.154,1.439-0.368,2.131-0.636l-0.181-0.466C79.912,88.631,79.22,88.837,78.523,88.985z"/><path d="M82.51,87.441l0.252,0.432c0.639-0.373,1.253-0.8,1.826-1.27l-0.317-0.387C83.718,86.669,83.125,87.082,82.51,87.441z"/><path d="M75.408,89.28l-0.01,0.5c0.096,0.002,0.192,0.003,0.288,0.003c0.245,0,0.488-0.006,0.73-0.019l-0.025-0.499  C76.065,89.282,75.739,89.289,75.408,89.28z"/><rect x="88.373" y="28.377" width="0.5" height="2"/><rect x="88.373" y="32.377" width="0.5" height="2"/><rect x="88.373" y="36.377" width="0.5" height="2"/><rect x="88.373" y="40.377" width="0.5" height="2"/><text x="0" y="111" fill="#000000" font-size="5px" font-weight="bold" font-family="'Helvetica Neue', Helvetica, Arial-Unicode, Arial, Sans-serif">Created by Scribble.liners</text><text x="0" y="116" fill="#000000" font-size="5px" font-weight="bold" font-family="'Helvetica Neue', Helvetica, Arial-Unicode, Arial, Sans-serif">from the Noun Project</text></svg>